<?xml version="1.0" encoding="UTF-8"?><svg id="Layer_2" xmlns="http://www.w3.org/2000/svg" viewBox="0 0 2.85 3.58"><defs><style>.cls-1{fill:#0168a1;fill-rule:evenodd;stroke-width:0px;}</style></defs><g id="marketing"><path class="cls-1" d="M.25,2.46s-.01-.02-.02-.03h0s-.02-.02-.03-.04c-.03-.04-.05-.09-.05-.14,0-.04,0-.07.01-.11-.02-.04-.03-.09-.04-.13,0-.03,0-.07.01-.1-.02,0-.05-.02-.07-.04h0S0,1.8,0,1.75h0s0-.02,0-.02c0-.08.09-.18.13-.24l.02-.03s.06-.07.08-.11h0s.02-.04.02-.05c0-.02,0-.04,0-.07,0-.02,0-.04,0-.06,0-.02,0-.04,0-.05,0-.01,0-.03-.01-.04-.02-.05,0-.16.01-.22.02-.07.04-.14.07-.21.1-.23.26-.39.48-.5C1.03.03,1.31,0,1.57,0c.28.01.54.09.76.26.22.17.37.4.46.67.09.29.07.56-.05.84-.11.24-.28.46-.45.66,0,0-.03.03-.03.04,0,.03,0,.08,0,.11.02.14.05.27.08.41.04.14.08.27.12.41.02.07-.02.15-.09.17-.07.02-.15-.02-.17-.09-.04-.14-.09-.28-.12-.42-.04-.14-.07-.29-.09-.44,0-.07-.02-.14,0-.21.02-.07.05-.11.09-.16.15-.17.31-.37.41-.59.09-.21.11-.42.04-.64-.07-.21-.18-.4-.36-.53-.18-.13-.39-.2-.61-.21-.22,0-.45.02-.65.11-.16.08-.27.2-.34.37-.02.05-.04.11-.05.16,0,.02-.01.06-.02.09,0,.02,0,.03.01.05,0,.03.01.05.01.08,0,.03,0,.06,0,.09,0,.03,0,.07,0,.1,0,.06-.03.11-.06.16h0c-.03.05-.06.1-.09.14h0s-.02.03-.02.03c0,.01-.02.02-.03.03.02,0,.03,0,.04.02h0c.14.08.09.18.03.3h0s-.01,0,0,.02c0,.01.02.03.02.04,0,.02.02.04.02.06,0,.03,0,.06,0,.08,0,.01,0,.02-.01.04,0,0,0,0,0,0h0s.03.04.04.06c.07.1.06.16.02.26,0,0,0,.01,0,.02,0,0,0,0,0,0,.09.05.17.06.27.06.36,0,.43.15.46.51,0,.09.01.19.01.28,0,.08-.06.14-.14.14s-.14-.06-.14-.14c0-.09,0-.17,0-.26-.02-.17-.02-.26-.2-.26-.16,0-.27-.02-.41-.1-.05-.03-.09-.07-.11-.12-.02-.05-.03-.09-.02-.15h0s.02-.07.03-.1H.25ZM1.73.73c.07.02.13.06.18.1l.12-.07s.09,0,.11.03h0s.13.23.13.23c.02.04,0,.09-.03.11h0s-.12.07-.12.07v.02c.01.06.01.12,0,.17v.02s.12.07.12.07c.04.02.05.07.03.11l-.14.23s-.07.05-.11.03h0s-.12-.07-.12-.07c-.05.04-.11.08-.18.1v.14s-.04.08-.08.08h0s-.27,0-.27,0c-.05,0-.08-.04-.08-.08v-.14c-.06-.02-.13-.06-.18-.1l-.12.07s-.09,0-.11-.03h0s-.13-.23-.13-.23c-.02-.04,0-.09.03-.11h0s.12-.07.12-.07c-.01-.07-.01-.14,0-.21l-.12-.07s-.05-.07-.03-.11l.14-.23s.07-.05.11-.03h0s.12.07.12.07c.05-.04.11-.08.18-.1v-.14s.04-.08.08-.08h.27s.08.04.08.08v.14h0ZM1.64.87h0s-.06-.04-.06-.08v-.12h-.11v.11s-.02.08-.06.08c-.08.02-.15.06-.21.12h0s-.07.03-.1.01l-.1-.06-.05.09.1.06s.05.06.04.09c-.02.08-.02.17,0,.25h0s0,.07-.04.09l-.1.06.05.09.1-.06h0s.07-.01.1.01c.06.06.13.1.21.12h0s.06.04.06.08v.12h.11v-.11s.02-.08.06-.09c.08-.02.15-.06.21-.12h0s.07-.03.1-.01l.1.06.05-.09-.1-.06s-.05-.06-.04-.09c.02-.08.02-.17,0-.25h0s0-.07.04-.09l.1-.06-.05-.09-.1.06h0s-.07.01-.1-.01c-.06-.06-.13-.1-.21-.12h0ZM1.52,1.04c.07,0,.14.03.19.08.05.05.08.12.08.2h0c0,.08-.03.15-.08.2-.05.05-.12.08-.2.08h0c-.07,0-.14-.03-.19-.08-.05-.05-.08-.12-.08-.2h0c0-.08.03-.15.08-.2.05-.05.12-.08.2-.08h0ZM1.6,1.24s-.05-.03-.08-.03h0s-.06.01-.08.03c-.02.02-.03.05-.03.08h0s.01.06.03.08c.02.02.05.03.08.03h0s.06-.01.08-.03c.02-.02.03-.05.03-.08h0s-.01-.06-.03-.08h0Z"/></g></svg>