<?xml version="1.0" encoding="UTF-8"?><svg id="Layer_2" xmlns="http://www.w3.org/2000/svg" viewBox="0 0 3.13 3.58"><defs><style>.cls-1{fill:#0168a1;stroke-width:0px;}</style></defs><g id="computer_system"><path class="cls-1" d="M.37,0h1.63s.07.02.1.04l1,1s.04.06.04.1h0v2.08c0,.1-.04.19-.11.26h0s0,0,0,0c-.07.06-.16.11-.26.11H.37c-.1,0-.19-.04-.26-.11h0S.11,3.47.11,3.47c-.07-.07-.11-.16-.11-.26V.37c0-.1.04-.19.11-.26.07-.07.16-.11.26-.11H.37ZM1.68,1.48h-.22v1.24h.22v-1.24h0ZM1.37,1.32h.39s.08.04.08.08v1.41h0s-.04.09-.08.09h-.39s-.08-.04-.08-.08v-1.41h0s.04-.08.08-.08h0ZM.99,2.42h-.22v.31h.22v-.31h0ZM.69,2.25h.39s.08.04.08.08v.47h0s-.04.09-.08.09h-.39s-.08-.04-.08-.08v-.47h0s.04-.08.08-.08h0ZM2.37,1.89h-.23v.83h.23v-.83h0ZM2.06,1.72h.39s.08.04.08.08v1h0s-.04.09-.08.09h-.39s-.08-.04-.08-.08v-1h0s.04-.08.08-.08h0ZM2.86,1.22h-.63c-.09,0-.16-.04-.22-.09h0c-.05-.06-.09-.14-.09-.22V.28H.37s-.05.01-.07.03c-.02.02-.03.04-.03.07v2.84s.01.05.03.07H.3s.04.03.07.03h2.4s.05,0,.07-.03h0s.03-.04.03-.07v-1.99h0ZM2.72,1.05l-.64-.64v.49s.02.08.04.1h0s.06.05.1.05h.49Z"/></g></svg>