<?xml version="1.0" encoding="UTF-8"?><svg id="Layer_2" xmlns="http://www.w3.org/2000/svg" viewBox="0 0 4.24 3.47"><defs><style>.cls-1{fill:#0168a1;stroke-width:0px;}</style></defs><g id="law_and_order"><path class="cls-1" d="M2.12,0c-.46,0-.86.34-.93.8-.07-.02-.15-.03-.22-.03-.21,0-.4.08-.53.22-.14.13-.22.32-.22.53s.08.38.2.51l-.18.18c-.08.08-.14.17-.18.26h0c-.04.1-.06.2-.06.32v.22c0,.06.02.12.05.17.04.05.09.09.16.1h.19v.06c0,.08.06.14.14.14h3.16c.08,0,.14-.06.14-.14v-.06h.19c.07,0,.12-.05.16-.1.03-.05.05-.11.05-.17v-.22c0-.11-.02-.22-.06-.32h0c-.04-.1-.1-.19-.18-.26l-.18-.18c.12-.13.2-.31.2-.51,0-.21-.08-.4-.22-.53-.14-.14-.32-.22-.53-.22-.08,0-.15.01-.22.03-.07-.46-.47-.8-.93-.8h0ZM1.7,3.2h0v-.12h0s0-.02,0-.02v-.49s-.04-.08-.08-.08-.08.04-.08.08v.36h-.36s0-.02,0-.03v-.29c0-.11.02-.2.06-.29h0c.02-.05.05-.11.09-.15h0s0,0,0,0h0s0,0,0,0h0s.05-.06.07-.09l.29-.29c.27.14.6.14.87,0l.3.29h0s.05.05.07.08h0s0,0,0,0h0s0,0,0,0h0s.07.1.09.15h0c.04.09.06.19.06.29v.29s0,.02,0,.03h-.36v-.36s-.04-.08-.08-.08-.08.04-.08.08v.49h0v.14h-.85ZM1.45.94h0c0-.37.3-.67.67-.67s.67.3.67.67c0,.87-1.34.87-1.34,0h0ZM3.56,3.2h-.4c.05-.02.09-.05.12-.1.04-.06.06-.13.06-.2v-.29c0-.12-.02-.24-.06-.35.11,0,.21-.03.31-.07l.21.21c.05.05.09.11.12.18h0c.03.06.04.13.04.21v.21h-.24v-.24s-.04-.08-.08-.08-.08.04-.08.08v.44h0ZM3.05,1.09h0s.05-.02.08-.03c.05-.02.09-.02.14-.02.13,0,.25.05.34.14.09.09.14.2.14.34s-.05.25-.14.34h0c-.09.08-.2.14-.34.14-.03,0-.07,0-.09,0h0s-.04,0-.06-.02c-.02-.03-.05-.06-.08-.08h0l-.26-.27h0s0,0,0,0h0c.12-.12.21-.28.25-.45h0s0,0,0,0h0s0,0,0,0v-.04s0,0,0,0h0s0,0,0,0h0ZM.68,3.2h0v-.44s-.04-.08-.08-.08-.08.04-.08.08v.24h-.24v-.21c0-.08.01-.15.04-.21h0,0c.03-.06.07-.12.12-.18l.21-.21c.09.04.2.07.31.07-.04.11-.06.23-.06.35v.29c0,.07.02.14.06.2.03.04.07.08.12.1h-.4ZM1.19,1.09h0s0,.01,0,.01h0s0,.04,0,.04h0s0,0,0,0h0c.04.17.13.33.25.45h0s-.27.27-.27.27c-.03.03-.05.05-.08.08-.02,0-.04.01-.06.02h0s-.06,0-.09,0c-.13,0-.25-.05-.34-.14h0c-.09-.09-.14-.2-.14-.34s.05-.25.14-.34c.09-.09.21-.14.34-.14.05,0,.1,0,.14.02.03,0,.05.02.08.03h0Z"/></g></svg>