<?xml version="1.0" encoding="UTF-8"?><svg id="Layer_2" xmlns="http://www.w3.org/2000/svg" viewBox="0 0 3.47 3.47"><defs><style>.cls-1{fill:#0168a1;stroke-width:0px;}</style></defs><g id="statistics"><path class="cls-1" d="M2.17,1.1s.08-.04.08-.08-.04-.08-.08-.08-.08.04-.08.08.04.08.08.08h0ZM2.27,1.84h0c-.08,0-.15.03-.21.08-.05.05-.09.13-.09.21s.03.15.09.21c.05.05.13.09.21.09s.15-.03.21-.09c.05-.05.08-.12.08-.21s-.03-.15-.08-.21c-.05-.05-.13-.08-.21-.08h0ZM2.36,2.22h0s-.05.04-.09.04-.07-.01-.09-.04c-.02-.02-.04-.05-.04-.09s.01-.07.04-.09c.02-.02.05-.04.09-.04s.07.01.09.04c.02.02.04.05.04.09s-.01.07-.04.09h0ZM.99,2.73h0c.08,0,.15-.03.21-.09.05-.05.09-.12.09-.21s-.03-.15-.09-.21c-.05-.05-.12-.08-.21-.08s-.15.03-.21.08c-.05.05-.08.13-.08.21s.03.15.08.21c.05.05.13.09.21.09h0ZM.9,2.35h0s.05-.04.09-.04.07.01.09.04c.02.02.04.05.04.09s-.01.07-.04.09c-.02.02-.05.04-.09.04s-.07-.01-.09-.04c-.02-.02-.04-.05-.04-.09s.01-.07.04-.09h0ZM2.14,1.41h0c0,.08.06.14.14.14s.14-.06.14-.14-.06-.14-.14-.14-.14.06-.14.14h0ZM2.5,1.79h0s.08-.04.08-.08-.04-.08-.08-.08-.08.04-.08.08.04.08.08.08h0ZM3.23.96h0c.08,0,.14-.06.14-.14s-.06-.14-.14-.14-.14.06-.14.14.06.14.14.14h0ZM2.79,1.84h0c-.08,0-.14.06-.14.14s.06.14.14.14.14-.06.14-.14-.06-.14-.14-.14h0ZM3.38,3.3H.16V.08s-.04-.08-.08-.08-.08.04-.08.08v3.3s.04.08.08.08h3.3s.08-.04.08-.08-.04-.08-.08-.08h0ZM1.12,2.11h0s.08-.04.08-.08-.04-.08-.08-.08-.08.04-.08.08.04.08.08.08h0ZM1.37,2.4h0c0,.08.06.14.14.14s.14-.06.14-.14-.06-.14-.14-.14-.14.06-.14.14h0ZM.67,3h0s.08-.04.08-.08-.04-.08-.08-.08-.08.04-.08.08.04.08.08.08h0ZM2.04,1.78h0s.08-.04.08-.08-.04-.08-.08-.08-.08.04-.08.08.04.08.08.08h0ZM1.75,2.4h0s.04.08.08.08.08-.04.08-.08-.04-.08-.08-.08-.08.04-.08.08h0ZM.42,2.86H.42c.08,0,.14-.06.14-.14s-.06-.14-.14-.14-.14.06-.14.14.06.14.14.14H.42ZM1.6,2.16h0c.08,0,.15-.03.21-.08.05-.05.09-.13.09-.21s-.03-.15-.09-.2c-.05-.05-.13-.09-.21-.09s-.15.03-.21.09c-.05.05-.09.12-.09.2s.03.15.09.21c.05.05.13.08.21.08h0ZM1.51,1.78h0s.05-.04.09-.04.07.01.09.04c.02.02.04.05.04.09s-.01.07-.04.09c-.02.02-.05.04-.09.04s-.07-.01-.09-.04c-.02-.02-.04-.05-.04-.09s.01-.07.04-.09h0ZM2.91,1.71h0c.08,0,.15-.03.21-.08.05-.05.09-.13.09-.21s-.03-.15-.09-.21c-.05-.05-.13-.09-.21-.09s-.15.03-.21.09c-.05.05-.09.12-.09.21s.03.15.09.21c.05.05.12.08.21.08h0ZM2.82,1.33h0s.05-.04.09-.04.07.02.09.04c.02.02.04.05.04.09s-.01.07-.04.09c-.02.02-.05.04-.09.04s-.07-.01-.09-.04c-.02-.02-.04-.05-.04-.09s.01-.07.04-.09h0Z"/></g></svg>