<?xml version="1.0" encoding="UTF-8"?><svg id="Layer_2" xmlns="http://www.w3.org/2000/svg" viewBox="0 0 3.58 3.58"><defs><style>.cls-1{fill:#0168a1;stroke-width:0px;}</style></defs><g id="organizer"><path class="cls-1" d="M1.31,1.74s.1.07.17.07.12-.03.17-.07c.04-.04.07-.1.07-.17s-.03-.12-.07-.16h0s-.1-.07-.17-.07-.12.03-.17.07h0s-.07.1-.07.17.03.12.07.17h0ZM1.42,1.52h0s.03-.02.05-.02.04,0,.05.02h0s.02.03.02.05,0,.04-.02.05c-.01.01-.03.02-.05.02s-.04,0-.05-.02c-.01-.01-.02-.03-.02-.05s0-.04.02-.05h0ZM1.31,2.36h0s.1.07.17.07.12-.03.17-.07h0s.07-.1.07-.17-.03-.12-.07-.17h0s-.1-.07-.17-.07-.12.03-.17.07h0s-.07.1-.07.17.03.12.07.16h0ZM1.42,2.15h0s.03-.02.05-.02.04,0,.05.02h0s.02.03.02.05,0,.04-.02.05h0s-.03.02-.05.02-.04,0-.05-.02h0s-.02-.03-.02-.05,0-.04.02-.05h0ZM2.58,1.74h0s.1.07.17.07.12-.03.17-.07c.04-.04.07-.1.07-.17s-.03-.12-.07-.16h0s-.1-.07-.17-.07-.12.03-.17.07h0s-.07.1-.07.17.03.12.07.17h0ZM2.69,1.52h0s.03-.02.05-.02.04,0,.05.02h0s.02.03.02.05,0,.04-.02.05c-.01.01-.03.02-.05.02s-.04,0-.05-.02c-.01-.01-.02-.03-.02-.05s0-.04.02-.05h0ZM1.94,1.74h0s.1.07.16.07.12-.03.17-.07c.04-.04.07-.1.07-.17s-.03-.12-.07-.16h0s-.1-.07-.17-.07-.12.03-.16.07h0s-.07.1-.07.17.03.12.07.17h0ZM2.06,1.52h0s.03-.02.05-.02.04,0,.05.02h0s.02.03.02.05,0,.04-.02.05-.03.02-.05.02-.04,0-.05-.02c-.01-.01-.02-.03-.02-.05s0-.04.02-.05h0ZM1.31,2.98h0s.1.07.17.07.12-.03.17-.07h0s.07-.1.07-.17-.03-.12-.07-.16h0s-.1-.07-.17-.07-.12.03-.17.07h0s-.07.1-.07.17.03.12.07.17h0ZM1.42,2.77h0s.03-.02.05-.02.04,0,.05.02h0s.02.03.02.05,0,.04-.02.05h0s-.03.02-.05.02-.04,0-.05-.02h0s-.02-.03-.02-.05,0-.04.02-.05h0ZM3.44,0H.14c-.08,0-.14.06-.14.14v3.3c0,.08.06.14.14.14h3.3c.08,0,.14-.06.14-.14V.14c0-.08-.06-.14-.14-.14h0ZM3.3,3.3H.27V1.08h3.03v2.22h0ZM3.3.91H.27V.28h.27v.21c0,.08.06.14.14.14s.14-.06.14-.14v-.21h.46v.21c0,.08.06.14.14.14s.14-.06.14-.14v-.21h.46v.21c0,.08.06.14.14.14s.14-.06.14-.14v-.21h.46v.21c0,.08.06.14.14.14s.14-.06.14-.14v-.21h.27v.64h0ZM1.94,2.98h0s.1.07.16.07.12-.03.17-.07h0s.07-.1.07-.17-.03-.12-.07-.16h0s-.1-.07-.17-.07-.12.03-.16.07h0s-.07.1-.07.17.03.12.07.17h0ZM2.06,2.77h0s.03-.02.05-.02.04,0,.05.02h0s.02.03.02.05,0,.04-.02.05h0s-.03.02-.05.02-.04,0-.05-.02h0s-.02-.03-.02-.05,0-.04.02-.05h0ZM.67,2.36h0s.1.07.17.07.12-.03.16-.07h0s.07-.1.07-.17-.03-.12-.07-.17h0s-.1-.07-.16-.07-.12.03-.17.07h0s-.07.1-.07.17.03.12.07.16h0ZM.79,2.15h0s.03-.02.05-.02c.02,0,.04,0,.05.02h0s.02.03.02.05,0,.04-.02.05h0s-.03.02-.05.02c-.02,0-.04,0-.05-.02h0s-.02-.03-.02-.05,0-.04.02-.05h0ZM.67,2.98h0s.1.07.17.07.12-.03.16-.07h0s.07-.1.07-.17-.03-.12-.07-.16h0s-.1-.07-.16-.07-.12.03-.17.07h0s-.07.1-.07.17.03.12.07.17h0ZM.79,2.77h0s.03-.02.05-.02c.02,0,.04,0,.05.02h0s.02.03.02.05,0,.04-.02.05h0s-.03.02-.05.02c-.02,0-.04,0-.05-.02h0s-.02-.03-.02-.05,0-.04.02-.05h0ZM1.94,2.36h0s.1.07.16.07.12-.03.17-.07h0s.07-.1.07-.17-.03-.12-.07-.17h0s-.1-.07-.17-.07-.12.03-.16.07h0s-.07.1-.07.17.03.12.07.16h0ZM2.06,2.15h0s.03-.02.05-.02.04,0,.05.02h0s.02.03.02.05,0,.04-.02.05h0s-.03.02-.05.02-.04,0-.05-.02h0s-.02-.03-.02-.05,0-.04.02-.05h0ZM2.58,2.36h0s.1.07.17.07.12-.03.17-.07h0s.07-.1.07-.17-.03-.12-.07-.17h0s-.1-.07-.17-.07-.12.03-.17.07h0s-.07.1-.07.17.03.12.07.16h0ZM2.69,2.15h0s.03-.02.05-.02.04,0,.05.02h0s.02.03.02.05,0,.04-.02.05h0s-.03.02-.05.02-.04,0-.05-.02h0s-.02-.03-.02-.05,0-.04.02-.05h0Z"/></g></svg>