<?xml version="1.0" encoding="UTF-8"?><svg id="Layer_2" xmlns="http://www.w3.org/2000/svg" viewBox="0 0 3.53 2.87"><defs><style>.cls-1{fill:#0168a1;stroke-width:0px;}</style></defs><g id="elections"><path class="cls-1" d="M.08.16h2.54s.08.04.08.08h0v.1l.34-.28h0c.26-.22.64.17.41.42l-.75.82v1.47s-.04.08-.08.08H.08s-.08-.04-.08-.08h0V.24s.04-.08.08-.08H.08ZM2.54.48v-.16H.17v2.38h2.37v-1.21l-.92,1.01c-.05.06-.14.06-.19,0,0,0,0,0-.01-.01L.46,1.49c-.06-.07-.08-.14-.07-.22H.4c0-.05.03-.1.06-.14H.46s.07-.07.11-.09h0c.08-.04.18-.05.27,0l.65.32,1.04-.87h0ZM3.22.28l-1.61,1.34s-.1.05-.16.02l-.73-.36s-.02,0-.03,0h0s-.02.02-.03.02h0s.84.9.84.9L3.25.31l-.03-.03h0Z"/></g></svg>