<?xml version="1.0" encoding="UTF-8"?><svg id="Layer_2" xmlns="http://www.w3.org/2000/svg" viewBox="0 0 3.48 3.58"><defs><style>.cls-1{fill:#0168a1;stroke-width:0px;}</style></defs><g id="web"><path class="cls-1" d="M3.33,1.08c-.08-.08-.18-.13-.29-.14l.21-.21s.04-.06.04-.1V.14c0-.08-.06-.14-.14-.14H.14C.06,0,0,.06,0,.14v.48s.01.08.04.11l1.17,1.18v1.54h0s0,.06.03.09c.05.06.14.07.19.02l.58-.48s.06-.07.06-.11v-1.06l.39-.39c.02.11.07.21.14.29.09.09.22.15.36.15s.27-.06.36-.15c.09-.09.15-.22.15-.36s-.06-.27-.15-.36h0ZM.28.27h2.74v.27H.28v-.27H.28ZM1.84,1.74h0s-.04.06-.04.1v1.05l-.31.26v-1.31s-.02-.07-.04-.1L.42.71h2.46l-1.03,1.04h0ZM3.21,1.68h0c-.06.06-.15.1-.24.1s-.18-.04-.24-.1c-.06-.06-.1-.15-.1-.24,0-.04,0-.07.02-.11l.22-.22s.07-.02.11-.02c.09,0,.18.04.24.1.06.06.1.15.1.24s-.04.18-.1.24h0Z"/></g></svg>