<?xml version="1.0" encoding="UTF-8"?><svg id="Layer_2" xmlns="http://www.w3.org/2000/svg" viewBox="0 0 3.29 3.29"><defs><style>.cls-1{fill:#0168a1;stroke-width:0px;}</style></defs><g id="elections"><path class="cls-1" d="M2.65,2.46l.59.59c.05.05.05.14,0,.19-.05.05-.14.05-.19,0l-.59-.59c-.12.1-.24.18-.38.23-.18.07-.37.12-.57.12s-.4-.04-.57-.12h0c-.18-.08-.35-.19-.49-.33H.44c-.14-.14-.25-.3-.33-.49h0c-.07-.18-.11-.37-.11-.57s.04-.4.11-.57c.08-.18.19-.35.33-.49.27-.27.65-.44,1.06-.44.2,0,.4.04.57.11h0c.18.08.35.19.49.33h0c.14.14.24.31.32.49h0c.07.18.11.37.11.57s-.04.4-.11.57c-.06.14-.14.27-.23.39h0ZM1.5.46c.31,0,.57.25.57.57,0,.16-.06.3-.17.4h0s0,0,0,0c.11.11.23.21.29.36h0c.03.07.05.15.05.24v.18s-.01.08-.04.12c-.02.04-.06.06-.11.07,0,0-.01,0-.01,0h-.16v.07s-.04.08-.08.08h-.67s-.08-.04-.08-.08h0v-.07h-.16s-.01,0-.02,0c-.04,0-.08-.03-.1-.07-.02-.03-.04-.08-.04-.12v-.18c0-.08.02-.16.05-.24.06-.15.19-.25.3-.36h0c-.11-.11-.17-.25-.17-.4,0-.31.25-.57.57-.57h0ZM1.08,2.22v-.19s.04-.08.08-.08.08.04.08.08v.35h.51v-.35s.04-.08.08-.08.08.04.08.08v.19h.15s0-.01,0-.02v-.18c0-.06-.01-.12-.03-.17h0c-.05-.12-.19-.23-.28-.33-.08.04-.17.06-.26.06s-.18-.02-.26-.06c-.09.09-.23.2-.28.32-.02.05-.03.11-.03.18v.18s0,.01,0,.02h.15ZM1.5.62c-.22,0-.4.18-.4.4s.18.4.4.4.4-.18.4-.4-.18-.4-.4-.4h0ZM1.97.37c-.14-.06-.3-.09-.47-.09-.49,0-.95.3-1.13.76-.06.14-.09.3-.09.47s.03.32.09.46h0c.06.16.15.29.27.4h0c.11.11.25.2.4.27h0c.14.06.3.09.47.09s.32-.03.47-.09c.15-.06.28-.15.4-.26h0s0,0,0,0c.11-.11.2-.25.27-.4.06-.14.09-.3.09-.47s-.03-.32-.09-.46h0c-.06-.15-.15-.29-.26-.4h0c-.11-.12-.25-.21-.4-.27h0Z"/></g></svg>