<?xml version="1.0" encoding="UTF-8"?><svg id="Layer_2" xmlns="http://www.w3.org/2000/svg" viewBox="0 0 3.58 3.21"><defs><style>.cls-1{fill:#0168a1;stroke-width:0px;}</style></defs><g id="web"><path class="cls-1" d="M1.69,3.17L.33,1.8c-.14-.14-.25-.31-.29-.49-.05-.18-.04-.36.02-.55.06-.17.15-.32.28-.44.12-.12.28-.22.45-.27.2-.06.39-.06.57-.02.16.04.31.12.45.23.13-.11.29-.19.45-.23.18-.05.37-.05.57.02.17.05.32.15.45.27.12.12.22.27.28.44h0c.06.19.06.38.02.55-.05.18-.15.35-.29.49h0s-1.36,1.36-1.36,1.36c-.05.05-.14.05-.19,0h0ZM1.95.49h0l-.44.44s-.08.03-.12,0c-.03-.03-.03-.08,0-.12l.28-.28h0c-.12-.12-.25-.2-.4-.24-.13-.03-.27-.03-.42.01-.13.04-.24.11-.34.2-.09.09-.17.2-.21.33-.05.14-.05.27-.01.4.04.14.11.26.22.37l1.27,1.27,1.26-1.26h0c.11-.12.19-.24.22-.38.03-.12.03-.26-.01-.4h0c-.04-.12-.11-.24-.21-.33-.09-.09-.21-.16-.34-.21-.14-.04-.28-.05-.42-.01-.13.03-.25.1-.35.19h0Z"/></g></svg>