<?xml version="1.0" encoding="UTF-8"?><svg xmlns="http://www.w3.org/2000/svg" xmlns:xlink="http://www.w3.org/1999/xlink" viewBox="0 0 2016.64 1397.04"><defs><style>.cls-1{fill:url(#linear-gradient);}.cls-2{fill:#f6f6fb;}.cls-3,.cls-4{fill:#e8ecf7;}.cls-5{fill:#fff;}.cls-6{fill:#f2c39d;}.cls-7{fill:#f1f1f6;}.cls-8{fill:#ef4e16;}.cls-9{fill:#fcd1a9;}.cls-10{fill:#ffad02;}.cls-11{fill:#fc780b;}.cls-12{fill:#6b67e9;}.cls-13{fill:#939cca;}.cls-14{fill:#ced3f8;}.cls-15{fill:#a9a9ff;}.cls-16,.cls-17{fill:#dae0f5;}.cls-18{fill:#bbc0e6;}.cls-19{fill:#bbbfe2;}.cls-20{fill:#dd3b10;}.cls-21{fill:#131147;}.cls-22{fill:#1f196f;}.cls-23{fill:#1e1c6b;}.cls-24{fill:#20196f;}.cls-25{fill:#423eaf;}.cls-26{fill:#4141aa;}.cls-27{fill:#121047;}.cls-28,.cls-29{fill:#362e94;}.cls-30{fill:#a3a9d0;}.cls-31{fill:#807dfb;}.cls-32{fill:#5655c4;}.cls-33{fill:#5652cc;}.cls-34{fill:#3d3a91;}.cls-35{fill:none;stroke:#dae0f5;stroke-linecap:round;stroke-linejoin:round;stroke-width:3.12px;}.cls-17,.cls-36,.cls-4,.cls-37,.cls-38,.cls-39,.cls-40,.cls-41,.cls-42,.cls-43,.cls-44,.cls-45,.cls-46,.cls-47,.cls-48,.cls-49,.cls-50,.cls-51,.cls-52,.cls-53,.cls-54,.cls-55,.cls-56,.cls-57,.cls-58,.cls-59,.cls-60,.cls-61,.cls-62{mix-blend-mode:multiply;}.cls-36{fill:#efeff3;}.cls-63{fill:url(#radial-gradient-2);}.cls-63,.cls-64,.cls-65,.cls-66,.cls-29,.cls-67{mix-blend-mode:screen;}.cls-68{fill:url(#radial-gradient-3);}.cls-64{fill:url(#linear-gradient-35);}.cls-65{fill:url(#linear-gradient-42);}.cls-66{fill:url(#linear-gradient-41);}.cls-67{fill:#0f0d3f;}.cls-69{fill:url(#linear-gradient-8);}.cls-70{fill:url(#linear-gradient-9);}.cls-71{fill:url(#linear-gradient-3);}.cls-72{fill:url(#linear-gradient-4);}.cls-73{fill:url(#linear-gradient-2);}.cls-74{fill:url(#linear-gradient-6);}.cls-75{fill:url(#linear-gradient-7);}.cls-76{fill:url(#linear-gradient-5);}.cls-77{fill:url(#radial-gradient);}.cls-78{fill:url(#linear-gradient-59);}.cls-79{fill:url(#linear-gradient-58);}.cls-80{fill:url(#linear-gradient-64);}.cls-81{fill:url(#linear-gradient-60);}.cls-82{fill:url(#linear-gradient-62);}.cls-83{fill:url(#linear-gradient-61);}.cls-84{fill:url(#linear-gradient-40);}.cls-85{fill:url(#linear-gradient-45);}.cls-86{fill:url(#linear-gradient-46);}.cls-87{fill:url(#linear-gradient-49);}.cls-88{fill:url(#linear-gradient-47);}.cls-89{fill:url(#linear-gradient-48);}.cls-90{fill:url(#linear-gradient-14);}.cls-91{fill:url(#linear-gradient-18);}.cls-92{fill:url(#linear-gradient-23);}.cls-93{fill:url(#linear-gradient-15);}.cls-94{fill:url(#linear-gradient-19);}.cls-95{fill:url(#linear-gradient-16);}.cls-96{fill:url(#linear-gradient-17);}.cls-97{fill:url(#linear-gradient-27);}.cls-98{fill:url(#linear-gradient-24);}.cls-99{fill:url(#linear-gradient-37);}.cls-100{fill:url(#linear-gradient-39);}.cls-101{fill:url(#linear-gradient-25);}.cls-102{fill:url(#linear-gradient-28);}.cls-103{fill:url(#linear-gradient-30);}.cls-104{fill:url(#linear-gradient-31);}.cls-105{isolation:isolate;}.cls-38{fill:url(#linear-gradient-43);}.cls-39{fill:url(#linear-gradient-44);}.cls-40{fill:url(#linear-gradient-63);}.cls-41{fill:url(#linear-gradient-51);}.cls-42{fill:url(#linear-gradient-52);}.cls-43{fill:url(#linear-gradient-50);}.cls-44{fill:url(#linear-gradient-55);}.cls-45{fill:url(#linear-gradient-56);}.cls-46{fill:url(#linear-gradient-53);}.cls-47{fill:url(#linear-gradient-54);}.cls-48{fill:url(#linear-gradient-57);}.cls-49{fill:url(#linear-gradient-21);}.cls-50{fill:url(#linear-gradient-22);}.cls-51{fill:url(#linear-gradient-20);}.cls-52{fill:url(#linear-gradient-12);}.cls-53{fill:url(#linear-gradient-13);}.cls-54{fill:url(#linear-gradient-10);}.cls-55{fill:url(#linear-gradient-11);}.cls-56{fill:url(#linear-gradient-34);}.cls-57{fill:url(#linear-gradient-38);}.cls-58{fill:url(#linear-gradient-32);}.cls-59{fill:url(#linear-gradient-36);}.cls-60{fill:url(#linear-gradient-29);}.cls-61{fill:url(#linear-gradient-33);}.cls-62{fill:url(#linear-gradient-26);}</style><linearGradient id="linear-gradient" x1="92.74" y1="635.27" x2="2050.24" y2="997.77" gradientUnits="userSpaceOnUse"><stop offset="0" stop-color="#fff"/><stop offset=".57" stop-color="#f8f8f9"/><stop offset="1" stop-color="#efeff3"/></linearGradient><linearGradient id="linear-gradient-2" x1="1180.94" y1="372.5" x2="1196.77" y2="353.65" gradientUnits="userSpaceOnUse"><stop offset="0" stop-color="#423eaf"/><stop offset=".49" stop-color="#2f2a8d"/><stop offset="1" stop-color="#1f196f"/></linearGradient><linearGradient id="linear-gradient-3" x1="1174.74" y1="367.05" x2="1191.76" y2="349.9" xlink:href="#linear-gradient-2"/><linearGradient id="linear-gradient-4" x1="861.81" y1="249.27" x2="915.13" y2="261.82" gradientTransform="translate(2065.84) rotate(-180) scale(1 -1)" gradientUnits="userSpaceOnUse"><stop offset="0" stop-color="#1f196f"/><stop offset=".36" stop-color="#302b8c"/><stop offset="1" stop-color="#5652cc"/></linearGradient><linearGradient id="linear-gradient-5" x1="1130.09" y1="401.85" x2="1145.93" y2="383" xlink:href="#linear-gradient-2"/><linearGradient id="linear-gradient-6" x1="1123.9" y1="396.41" x2="1140.92" y2="379.26" xlink:href="#linear-gradient-2"/><linearGradient id="linear-gradient-7" x1="888.47" y1="272.63" x2="965.57" y2="290.77" xlink:href="#linear-gradient-4"/><linearGradient id="linear-gradient-8" x1="1156.93" y1="117.18" x2="1244.98" y2="117.18" gradientTransform="translate(36.19 -56.93) rotate(2.99)" gradientUnits="userSpaceOnUse"><stop offset="0" stop-color="#807dfb"/><stop offset="1" stop-color="#6b67e9"/></linearGradient><linearGradient id="linear-gradient-9" x1="1004.19" y1="140.71" x2="918.94" y2="140.71" gradientTransform="translate(2128.76 93.18) rotate(-174.35) scale(1 -1)" gradientUnits="userSpaceOnUse"><stop offset="0" stop-color="#6b67e9"/><stop offset="1" stop-color="#423eaf"/></linearGradient><linearGradient id="linear-gradient-10" x1="491.78" y1="1112.71" x2="919.68" y2="1112.71" gradientUnits="userSpaceOnUse"><stop offset="0" stop-color="#c4c9e4"/><stop offset=".19" stop-color="#d6daec"/><stop offset=".48" stop-color="#eceef6"/><stop offset=".75" stop-color="#fafafc"/><stop offset="1" stop-color="#fff"/></linearGradient><linearGradient id="linear-gradient-11" x1="1122" y1="751.05" x2="1617.13" y2="751.05" xlink:href="#linear-gradient-10"/><linearGradient id="linear-gradient-12" x1="1392.04" y1="595.15" x2="1887.17" y2="595.15" xlink:href="#linear-gradient-10"/><linearGradient id="linear-gradient-13" x1="851.96" y1="906.96" x2="1347.1" y2="906.96" xlink:href="#linear-gradient-10"/><linearGradient id="linear-gradient-14" x1="1232.46" y1="229.54" x2="1505.39" y2="683.77" gradientUnits="userSpaceOnUse"><stop offset=".51" stop-color="#efeff3"/><stop offset=".66" stop-color="#bbc0e6"/></linearGradient><linearGradient id="linear-gradient-15" x1="1101.21" y1="334.94" x2="1341.4" y2="750.96" gradientUnits="userSpaceOnUse"><stop offset=".51" stop-color="#807dfb"/><stop offset=".66" stop-color="#362e94"/></linearGradient><linearGradient id="linear-gradient-16" x1="962.42" y1="385.45" x2="1235.35" y2="839.67" xlink:href="#linear-gradient-14"/><linearGradient id="linear-gradient-17" x1="831.17" y1="490.85" x2="1071.36" y2="906.87" xlink:href="#linear-gradient-15"/><linearGradient id="linear-gradient-18" x1="692.38" y1="541.35" x2="965.31" y2="995.58" xlink:href="#linear-gradient-14"/><linearGradient id="linear-gradient-19" x1="639.48" y1="936.81" x2="723.9" y2="790.58" gradientUnits="userSpaceOnUse"><stop offset="0" stop-color="#ffd03e"/><stop offset="1" stop-color="#fc780b"/></linearGradient><linearGradient id="linear-gradient-20" x1="467.18" y1="899.44" x2="602.5" y2="1133.8" gradientUnits="userSpaceOnUse"><stop offset="0" stop-color="#f6f6fb"/><stop offset="1" stop-color="#f1f1f6"/></linearGradient><linearGradient id="linear-gradient-21" x1="578.43" y1="1026.42" x2="716.92" y2="786.55" gradientUnits="userSpaceOnUse"><stop offset="0" stop-color="#fff"/><stop offset=".62" stop-color="#ffd03e"/><stop offset="1" stop-color="#fc780b"/></linearGradient><linearGradient id="linear-gradient-22" x1="1320.48" y1="352.17" x2="1442" y2="352.17" xlink:href="#linear-gradient-10"/><linearGradient id="linear-gradient-23" x1="1278" y1="343.81" x2="1362.73" y2="343.81" gradientUnits="userSpaceOnUse"><stop offset="0" stop-color="#ced3f8"/><stop offset=".02" stop-color="#cdd2f7"/><stop offset=".63" stop-color="#b4bae1"/><stop offset="1" stop-color="#abb2da"/></linearGradient><radialGradient id="radial-gradient" cx="1318.92" cy="283.71" fx="1318.92" fy="283.71" r="101.28" gradientUnits="userSpaceOnUse"><stop offset="0" stop-color="#fd9009"/><stop offset=".13" stop-color="#eb8818"/><stop offset=".39" stop-color="#be7440"/><stop offset=".75" stop-color="#77557f"/><stop offset="1" stop-color="#423eaf"/></radialGradient><linearGradient id="linear-gradient-24" x1="1246.58" y1="289.91" x2="1394.14" y2="289.91" gradientUnits="userSpaceOnUse"><stop offset="0" stop-color="#dae0f5"/><stop offset="1" stop-color="#abb2da"/></linearGradient><linearGradient id="linear-gradient-25" x1="1194.09" y1="137.08" x2="1278.55" y2="137.08" gradientTransform="translate(-66.97 150.84) rotate(-7.2)" gradientUnits="userSpaceOnUse"><stop offset="0" stop-color="#807dfb"/><stop offset="1" stop-color="#5652cc"/></linearGradient><linearGradient id="linear-gradient-26" x1="273.81" y1="668.53" x2="356.23" y2="668.53" gradientTransform="translate(475.17)" gradientUnits="userSpaceOnUse"><stop offset=".43" stop-color="#d1d7f3"/><stop offset=".49" stop-color="#d7dcf4"/><stop offset=".81" stop-color="#f4f5fc"/><stop offset="1" stop-color="#fff"/></linearGradient><linearGradient id="linear-gradient-27" x1="258.37" y1="674.01" x2="329.6" y2="674.01" gradientTransform="translate(475.17)" gradientUnits="userSpaceOnUse"><stop offset="0" stop-color="#ced3f8"/><stop offset=".42" stop-color="#c4c9ee"/><stop offset="1" stop-color="#bbc0e6"/></linearGradient><linearGradient id="linear-gradient-28" x1="263.45" y1="649.45" x2="324.04" y2="649.45" gradientTransform="translate(475.17)" gradientUnits="userSpaceOnUse"><stop offset="0" stop-color="#6b67e9"/><stop offset=".38" stop-color="#5d59d5"/><stop offset="1" stop-color="#423eaf"/></linearGradient><linearGradient id="linear-gradient-29" x1="784.44" y1="675.02" x2="784.44" y2="633.53" gradientUnits="userSpaceOnUse"><stop offset="0" stop-color="#efeff3"/><stop offset=".5" stop-color="#dde1f3"/><stop offset="1" stop-color="#d1d7f3"/></linearGradient><radialGradient id="radial-gradient-2" cx="769.02" cy="641.16" fx="769.02" fy="641.16" r="47.11" gradientUnits="userSpaceOnUse"><stop offset="0" stop-color="#fd9009"/><stop offset=".36" stop-color="#965505"/><stop offset=".67" stop-color="#452702"/><stop offset=".89" stop-color="#130a00"/><stop offset="1" stop-color="#000"/></radialGradient><linearGradient id="linear-gradient-30" x1="412.97" y1="1030.1" x2="533.1" y2="1030.1" gradientUnits="userSpaceOnUse"><stop offset="0" stop-color="#5555c6"/><stop offset="1" stop-color="#34318f"/></linearGradient><linearGradient id="linear-gradient-31" x1="409.38" y1="1030.25" x2="536.79" y2="1030.25" gradientUnits="userSpaceOnUse"><stop offset="0" stop-color="#5555c6"/><stop offset=".03" stop-color="#7f7ff4"/><stop offset="1" stop-color="#4141aa"/></linearGradient><radialGradient id="radial-gradient-3" cx="420.74" cy="855.72" fx="420.74" fy="855.72" r="202.06" gradientUnits="userSpaceOnUse"><stop offset="0" stop-color="#ffad02"/><stop offset=".2" stop-color="#fda902"/><stop offset=".38" stop-color="#fa9d03"/><stop offset=".56" stop-color="#f48a06"/><stop offset=".74" stop-color="#ec6f09"/><stop offset=".92" stop-color="#e24d0d"/><stop offset="1" stop-color="#dd3b10"/></radialGradient><linearGradient id="linear-gradient-32" x1="470.38" y1="897.6" x2="518.56" y2="981.05" gradientUnits="userSpaceOnUse"><stop offset="0" stop-color="#fff"/><stop offset="1" stop-color="#f1f1f6"/></linearGradient><linearGradient id="linear-gradient-33" x1="408.89" y1="989.37" x2="537.19" y2="989.37" gradientUnits="userSpaceOnUse"><stop offset="0" stop-color="#fff"/><stop offset=".32" stop-color="#eceef9"/><stop offset=".66" stop-color="#e0e4f5"/><stop offset="1" stop-color="#dce1f4"/></linearGradient><linearGradient id="linear-gradient-34" x1="385.43" y1="933.49" x2="579.45" y2="933.49" gradientUnits="userSpaceOnUse"><stop offset="0" stop-color="#f6f6fb"/><stop offset="1" stop-color="#fff"/></linearGradient><linearGradient id="linear-gradient-35" x1="497.09" y1="966.78" x2="455.64" y2="894.98" gradientUnits="userSpaceOnUse"><stop offset="0" stop-color="#000"/><stop offset=".11" stop-color="#361902"/><stop offset=".24" stop-color="#6a3204"/><stop offset=".37" stop-color="#964706"/><stop offset=".49" stop-color="#bb5908"/><stop offset=".62" stop-color="#d76609"/><stop offset=".75" stop-color="#eb700a"/><stop offset=".87" stop-color="#f7760a"/><stop offset="1" stop-color="#fc780b"/></linearGradient><linearGradient id="linear-gradient-36" x1="1032.01" y1="1127.44" x2="1269.99" y2="1127.44" gradientUnits="userSpaceOnUse"><stop offset="0" stop-color="#c4cae8"/><stop offset="1" stop-color="#fff"/></linearGradient><linearGradient id="linear-gradient-37" x1="902.38" y1="1131.78" x2="1234.29" y2="1131.78" gradientUnits="userSpaceOnUse"><stop offset=".31" stop-color="#ced3f8"/><stop offset=".47" stop-color="#bbc0e6"/></linearGradient><linearGradient id="linear-gradient-38" x1="993.99" y1="1087.68" x2="1234.29" y2="1087.68" gradientUnits="userSpaceOnUse"><stop offset="0" stop-color="#d1d6f0"/><stop offset=".73" stop-color="#f1f3fa"/><stop offset="1" stop-color="#fff"/></linearGradient><linearGradient id="linear-gradient-39" x1="991.91" y1="790.21" x2="1166.55" y2="998.33" gradientUnits="userSpaceOnUse"><stop offset=".76" stop-color="#ced3f8"/><stop offset=".84" stop-color="#bbc0e6"/></linearGradient><linearGradient id="linear-gradient-40" x1="927.65" y1="878.22" x2="1263.2" y2="878.22" gradientUnits="userSpaceOnUse"><stop offset="0" stop-color="#34318c"/><stop offset=".13" stop-color="#2f2d85"/><stop offset=".65" stop-color="#222072"/><stop offset="1" stop-color="#1e1c6b"/></linearGradient><linearGradient id="linear-gradient-41" x1="1067.66" y1="872.11" x2="1148.25" y2="903.37" gradientUnits="userSpaceOnUse"><stop offset="0" stop-color="#0f0d3f"/><stop offset=".11" stop-color="#150d3d"/><stop offset=".27" stop-color="#261038"/><stop offset=".45" stop-color="#421430"/><stop offset=".64" stop-color="#691a24"/><stop offset=".84" stop-color="#9b2216"/><stop offset="1" stop-color="#c6290a"/></linearGradient><linearGradient id="linear-gradient-42" x1="1070.86" y1="864.1" x2="1151.45" y2="895.35" gradientUnits="userSpaceOnUse"><stop offset="0" stop-color="#ffad02"/><stop offset=".01" stop-color="#feaa02"/><stop offset=".22" stop-color="#f28207"/><stop offset=".43" stop-color="#e9630b"/><stop offset=".64" stop-color="#e24d0d"/><stop offset=".83" stop-color="#de3f0f"/><stop offset="1" stop-color="#dd3b10"/></linearGradient><linearGradient id="linear-gradient-43" x1="1205.21" y1="1204.44" x2="1331.53" y2="1204.44" gradientUnits="userSpaceOnUse"><stop offset="0" stop-color="#c4c9e4"/><stop offset=".09" stop-color="#cdd1e8"/><stop offset=".41" stop-color="#e8eaf4"/><stop offset=".69" stop-color="#f9f9fc"/><stop offset=".9" stop-color="#fff"/></linearGradient><linearGradient id="linear-gradient-44" x1="1262.17" y1="1170.91" x2="1388.5" y2="1170.91" xlink:href="#linear-gradient-43"/><linearGradient id="linear-gradient-45" x1="1229.58" y1="1166.47" x2="1276.15" y2="1166.47" gradientUnits="userSpaceOnUse"><stop offset="0" stop-color="#696adf"/><stop offset=".28" stop-color="#5757c3"/><stop offset=".76" stop-color="#3d3b9b"/><stop offset="1" stop-color="#34318c"/></linearGradient><linearGradient id="linear-gradient-46" x1="1172.01" y1="1199.98" x2="1218.57" y2="1199.98" xlink:href="#linear-gradient-45"/><linearGradient id="linear-gradient-47" x1="1192.22" y1="1088.72" x2="1272.28" y2="1088.72" gradientUnits="userSpaceOnUse"><stop offset="0" stop-color="#5455c4"/><stop offset="0" stop-color="#5354c3"/><stop offset=".46" stop-color="#363593"/><stop offset=".8" stop-color="#242376"/><stop offset="1" stop-color="#1e1c6b"/></linearGradient><linearGradient id="linear-gradient-48" x1="1189.13" y1="945.05" x2="1272.75" y2="945.05" gradientUnits="userSpaceOnUse"><stop offset="0" stop-color="#ffad02"/><stop offset=".61" stop-color="#f5740d"/><stop offset="1" stop-color="#ef4e16"/></linearGradient><linearGradient id="linear-gradient-49" x1="1140.46" y1="930.72" x2="1214.61" y2="930.72" xlink:href="#linear-gradient-48"/><linearGradient id="linear-gradient-50" x1="697.22" y1="1236.99" x2="795.49" y2="1236.99" xlink:href="#linear-gradient-10"/><linearGradient id="linear-gradient-51" x1="848.66" y1="266.53" x2="946.93" y2="266.53" xlink:href="#linear-gradient-10"/><linearGradient id="linear-gradient-52" x1="415.18" y1="497.47" x2="659.92" y2="497.47" xlink:href="#linear-gradient-10"/><linearGradient id="linear-gradient-53" x1="1488.09" y1="1106.08" x2="1606.81" y2="1106.08" xlink:href="#linear-gradient-10"/><linearGradient id="linear-gradient-54" x1="367.66" y1="428.89" x2="462.69" y2="428.89" gradientUnits="userSpaceOnUse"><stop offset="0" stop-color="#dae0f5"/><stop offset="1" stop-color="#fff"/></linearGradient><linearGradient id="linear-gradient-55" x1="533.77" y1="519.49" x2="632.04" y2="519.49" xlink:href="#linear-gradient-10"/><linearGradient id="linear-gradient-56" x1="2755.61" y1="1194.79" x2="2855.73" y2="1194.79" gradientTransform="translate(3122.85) rotate(-180) scale(1 -1)" gradientUnits="userSpaceOnUse"><stop offset="0" stop-color="#fff"/><stop offset=".25" stop-color="#fafafd"/><stop offset=".53" stop-color="#ebedf7"/><stop offset=".83" stop-color="#d4d8ee"/><stop offset="1" stop-color="#c4cae9"/></linearGradient><linearGradient id="linear-gradient-57" x1="2737.58" y1="1225.05" x2="2845.23" y2="1225.05" gradientTransform="translate(3164.85) rotate(-180) scale(1 -1)" xlink:href="#linear-gradient-56"/><linearGradient id="linear-gradient-58" x1="843.13" y1="1190.97" x2="885.52" y2="1190.97" gradientTransform="translate(1140.57) rotate(-180) scale(1 -1)" gradientUnits="userSpaceOnUse"><stop offset="0" stop-color="#20196f"/><stop offset=".11" stop-color="#241d77"/><stop offset=".7" stop-color="#39359f"/><stop offset="1" stop-color="#423eaf"/></linearGradient><linearGradient id="linear-gradient-59" x1="1555.14" y1="1106.59" x2="1611.02" y2="1106.59" gradientTransform="translate(-1297.09)" gradientUnits="userSpaceOnUse"><stop offset="0" stop-color="#20196f"/><stop offset=".61" stop-color="#2f2788"/><stop offset="1" stop-color="#362e94"/></linearGradient><linearGradient id="linear-gradient-60" x1="791.09" y1="1221.11" x2="833.52" y2="1221.11" xlink:href="#linear-gradient-58"/><linearGradient id="linear-gradient-61" x1="813.55" y1="1122.5" x2="873.45" y2="1122.5" gradientTransform="translate(1140.57) rotate(-180) scale(1 -1)" gradientUnits="userSpaceOnUse"><stop offset="0" stop-color="#423eaf"/><stop offset=".25" stop-color="#3c37a3"/><stop offset=".7" stop-color="#2c2686"/><stop offset="1" stop-color="#20196f"/></linearGradient><linearGradient id="linear-gradient-62" x1="784.63" y1="830.17" x2="876.39" y2="830.17" gradientTransform="translate(1329.81 443.04) rotate(-164.03) scale(1 -1)" gradientUnits="userSpaceOnUse"><stop offset="0" stop-color="#5652cc"/><stop offset=".37" stop-color="#6c68e4"/><stop offset=".73" stop-color="#7a77f5"/><stop offset="1" stop-color="#807dfb"/></linearGradient><linearGradient id="linear-gradient-63" x1="1543.86" y1="666.77" x2="1659.64" y2="566.49" gradientTransform="translate(896.22 -467.51) rotate(30) skewX(-30)" xlink:href="#linear-gradient-10"/><linearGradient id="linear-gradient-64" x1="1556.1" y1="579.5" x2="1624.43" y2="697.85" gradientUnits="userSpaceOnUse"><stop offset=".86" stop-color="#fc780b"/><stop offset=".96" stop-color="#dd3b10"/></linearGradient></defs><g class="cls-105"><g id="Layer_2"><g id="Objects"><g id="Linear_gear"><path class="cls-1" d="m1566.04,1282c483.4-167.5,628.17-716.71,184.02-754.99-708.99-61.1-684.93-325.37-961.66-389.65C499.87,70.33-84.16,511.3,93.9,904.75c243.77,538.65,869.39,586.11,1472.14,377.26Z"/><path class="cls-4" d="m45.13,1063.23l37.61,81.04c2.28,4.9,8.26,6.79,12.94,4.09l102.76-59.33c7.52-4.34,5.39-15.72-3.19-17.04l-140.38-21.72c-7.26-1.13-12.84,6.29-9.75,12.95Z"/><path class="cls-4" d="m1675.77,1226.91c-30.71-17.73-80.51-17.73-111.22,0-30.71,17.73-30.71,46.48,0,64.21,30.71,17.73,80.51,17.73,111.22,0,30.71-17.73,30.71-46.48,0-64.21Zm-84.98,49.06c-16.22-9.37-16.22-24.55,0-33.91,16.22-9.37,42.51-9.37,58.73,0,16.22,9.37,16.22,24.55,0,33.91-16.22,9.37-42.51,9.37-58.73,0Z"/><g class="cls-37"><path class="cls-3" d="m195.91,537.74c5.41,3.12,14.19,3.12,19.6,0,5.41-3.12,5.41-8.19,0-11.32-5.41-3.12-14.19-3.12-19.6,0-5.41,3.12-5.41,8.19,0,11.32Z"/><path class="cls-3" d="m243.87,565.43c5.41,3.12,14.19,3.12,19.6,0,5.41-3.12,5.41-8.19,0-11.32-5.41-3.12-14.19-3.12-19.6,0-5.41,3.12-5.41,8.19,0,11.32Z"/><path class="cls-3" d="m291.84,593.12c5.41,3.12,14.19,3.12,19.6,0,5.41-3.12,5.41-8.19,0-11.32-5.41-3.12-14.19-3.12-19.6,0-5.41,3.12-5.41,8.19,0,11.32Z"/><path class="cls-3" d="m359.4,609.49c-5.41-3.12-14.19-3.12-19.6,0-5.41,3.12-5.41,8.19,0,11.32,5.41,3.12,14.19,3.12,19.6,0,5.41-3.12,5.41-8.19,0-11.32Z"/><path class="cls-3" d="m147.95,565.43c5.41,3.12,14.19,3.12,19.6,0,5.41-3.12,5.41-8.19,0-11.32-5.41-3.12-14.19-3.12-19.6,0-5.41,3.12-5.41,8.19,0,11.32Z"/><path class="cls-3" d="m195.91,593.12c5.41,3.12,14.19,3.12,19.6,0,5.41-3.12,5.41-8.19,0-11.32-5.41-3.12-14.19-3.12-19.6,0-5.41,3.12-5.41,8.19,0,11.32Z"/><path class="cls-3" d="m243.87,620.81c5.41,3.12,14.19,3.12,19.6,0,5.41-3.12,5.41-8.19,0-11.32-5.41-3.12-14.19-3.12-19.6,0-5.41,3.12-5.41,8.19,0,11.32Z"/><path class="cls-3" d="m311.44,637.19c-5.41-3.12-14.19-3.13-19.6,0-5.41,3.12-5.41,8.19,0,11.31,5.41,3.12,14.19,3.12,19.6,0,5.41-3.12,5.41-8.19,0-11.31Z"/><path class="cls-3" d="m99.98,593.12c5.41,3.12,14.19,3.12,19.6,0s5.41-8.19,0-11.32c-5.41-3.12-14.19-3.12-19.6,0-5.41,3.12-5.41,8.19,0,11.32Z"/><path class="cls-3" d="m147.95,620.81c5.41,3.12,14.19,3.12,19.6,0,5.41-3.12,5.41-8.19,0-11.32-5.41-3.12-14.19-3.12-19.6,0-5.41,3.12-5.41,8.19,0,11.32Z"/><path class="cls-3" d="m195.91,648.51c5.41,3.12,14.19,3.12,19.6,0,5.41-3.12,5.41-8.19,0-11.31-5.41-3.13-14.19-3.13-19.6,0-5.41,3.12-5.41,8.19,0,11.31Z"/><path class="cls-3" d="m263.48,664.88c-5.41-3.12-14.19-3.12-19.6,0-5.41,3.12-5.41,8.19,0,11.32,5.41,3.12,14.19,3.12,19.6,0,5.41-3.12,5.41-8.19,0-11.32Z"/><path class="cls-3" d="m52.02,620.81c5.41,3.12,14.19,3.12,19.6,0,5.41-3.12,5.41-8.19,0-11.32-5.41-3.12-14.19-3.12-19.6,0-5.41,3.12-5.41,8.19,0,11.32Z"/><path class="cls-3" d="m99.99,648.51c5.41,3.12,14.19,3.12,19.6,0s5.41-8.19,0-11.32c-5.41-3.12-14.19-3.12-19.6,0-5.41,3.13-5.41,8.2,0,11.32Z"/><path class="cls-3" d="m147.95,676.2c5.41,3.12,14.19,3.12,19.6,0,5.41-3.13,5.41-8.19,0-11.32-5.41-3.12-14.19-3.12-19.6,0-5.41,3.12-5.41,8.19,0,11.32Z"/><path class="cls-3" d="m215.51,692.57c-5.41-3.13-14.19-3.13-19.6,0s-5.41,8.2,0,11.32,14.19,3.12,19.6,0c5.41-3.12,5.41-8.2,0-11.32Z"/><path class="cls-3" d="m23.66,637.19c-5.41-3.12-14.19-3.12-19.6,0-5.41,3.13-5.41,8.2,0,11.32,5.41,3.12,14.19,3.12,19.6,0,5.41-3.12,5.41-8.19,0-11.32Z"/><path class="cls-3" d="m71.63,664.88c-5.41-3.12-14.19-3.12-19.6,0-5.41,3.12-5.41,8.19,0,11.32,5.41,3.12,14.19,3.12,19.6,0,5.41-3.13,5.41-8.19,0-11.32Z"/><path class="cls-3" d="m119.59,692.57c-5.41-3.13-14.19-3.13-19.6,0-5.41,3.12-5.41,8.2,0,11.32,5.41,3.12,14.19,3.12,19.6,0s5.41-8.2,0-11.32Z"/><path class="cls-3" d="m167.55,720.26c-5.41-3.12-14.19-3.12-19.6,0-5.41,3.12-5.41,8.19,0,11.32,5.41,3.12,14.19,3.12,19.6,0,5.41-3.12,5.41-8.19,0-11.32Z"/></g><path class="cls-5" d="m1992.9,653.3c-5.41-3.12-14.19-3.12-19.6,0-5.41,3.13-5.41,8.19,0,11.32,5.41,3.12,14.19,3.12,19.6,0,5.41-3.12,5.41-8.19,0-11.32Z"/><path class="cls-5" d="m1944.94,681c-5.41-3.12-14.19-3.12-19.6,0s-5.41,8.19,0,11.32c5.41,3.12,14.19,3.12,19.6,0,5.41-3.13,5.41-8.19,0-11.32Z"/><path class="cls-5" d="m1896.97,708.69c-5.41-3.12-14.19-3.12-19.6,0-5.41,3.12-5.41,8.19,0,11.32,5.41,3.12,14.19,3.12,19.6,0,5.41-3.12,5.41-8.19,0-11.32Z"/><path class="cls-5" d="m1849.01,736.37c-5.41-3.12-14.19-3.12-19.6,0-5.41,3.13-5.41,8.19,0,11.32,5.41,3.12,14.19,3.12,19.6,0,5.41-3.12,5.41-8.19,0-11.32Z"/><path class="cls-5" d="m1801.05,764.07c-5.41-3.12-14.19-3.12-19.6,0-5.41,3.12-5.41,8.19,0,11.32,5.42,3.12,14.19,3.12,19.6,0,5.41-3.13,5.41-8.19,0-11.32Z"/><path class="cls-4" d="m1032.69,223.77l43.1,24.88c6.57,3.79,5.75,10.42-1.84,14.8l-39.41,22.76c-7.59,4.38-19.06,4.85-25.63,1.06l-43.1-24.88c-6.57-3.79-5.75-10.42,1.84-14.8l39.41-22.76c7.59-4.38,19.07-4.86,25.63-1.06Z"/><path class="cls-73" d="m1173.96,347.79c-5.89.96-7.59,10.45-4.64,16.41,1.83,2.04,6.44,3.96,6.44,3.96,0,0,18.59,7.63,22.78,7.96,4.18.34,13.48-1.23,14.23-8.37-.72-4.37-4.38-5.57-8.89-8.24-5.86-3.48-10.89-8.54-15.62-10.85-3.89-1.91-14.3-.87-14.3-.87Z"/><path class="cls-27" d="m1198.4,374.21c-4.3-.34-23.44-8.18-23.44-8.18,0,0-4.46-1.88-6.43-3.91.21.72.47,1.42.78,2.07,1.83,2.04,6.44,3.96,6.44,3.96,0,0,18.59,7.63,22.78,7.96,4.18.34,13.48-1.23,14.23-8.37-.03-.15-.09-.28-.11-.44-1.97,5.89-10.31,7.22-14.25,6.89Z"/><path class="cls-5" d="m1186.62,341.49c-2.87.46-12.57,4.69-12.57,4.69,0,0,.16,1.41-.47,2.75-.08.13-.15.26-.23.4-1.76,1.71-3.62,4.73,1.78,6.43,10.47,3.29,19.39-3.74,15.27-6.1-2.77-1.58-3.42-5.94-3.78-8.17Z"/><path class="cls-71" d="m1192.18,351.07c-.78-1.03-2.6-3.8-5.79-1.52-3.34,2.38-4.09,5.25-3.7,7.63.39,2.38,7.28.62,7.54.25.26-.35,1.96-6.37,1.96-6.37Z"/><path class="cls-72" d="m1191.12,165.85c.47,39.56,4.87,68.87,2.93,103.97-1.98,35.84-2.32,53.32-2.66,80.25-5.17,6.4-18.29,4.8-21.06-.15-3.42-24.45-10.29-48.29-7.24-76.67-7.8-38.58-26.78-81.29-23.47-108.89,7.79,2.47,43.71-.98,51.5,1.49Z"/><path class="cls-76" d="m1123.11,377.15c-5.89.96-7.59,10.45-4.64,16.41,1.82,2.04,6.44,3.96,6.44,3.96,0,0,18.59,7.64,22.78,7.97,4.19.34,13.47-1.23,14.23-8.37-.72-4.37-4.38-5.57-8.89-8.24-5.86-3.48-10.89-8.54-15.62-10.86-3.88-1.91-14.3-.87-14.3-.87Z"/><path class="cls-27" d="m1147.56,403.57c-4.31-.33-23.44-8.18-23.44-8.18,0,0-4.46-1.88-6.42-3.91.21.71.46,1.42.78,2.07,1.82,2.04,6.44,3.96,6.44,3.96,0,0,18.59,7.64,22.78,7.97,4.19.34,13.47-1.23,14.23-8.37-.03-.15-.08-.28-.11-.44-1.97,5.89-10.32,7.22-14.25,6.89Z"/><path class="cls-5" d="m1135.78,370.84c-2.87.47-12.57,4.69-12.57,4.69,0,0,.16,1.41-.48,2.75-.07.13-.15.26-.22.4-1.76,1.7-3.62,4.73,1.77,6.43,10.47,3.29,19.39-3.74,15.27-6.1-2.77-1.58-3.42-5.94-3.78-8.17Z"/><path class="cls-74" d="m1141.34,380.43c-.78-1.03-2.59-3.8-5.79-1.52-3.34,2.39-4.09,5.25-3.7,7.63.4,2.38,7.28.62,7.54.26.26-.36,1.95-6.37,1.95-6.37Z"/><path class="cls-75" d="m1167.23,188.25c.47,39.56-10.03,76.02-15.55,107.55-6.19,35.36-10.79,56.69-11.13,83.63-5.17,6.4-18.29,4.79-21.06-.15-3.41-24.45-3.55-63.26,1.23-80.05-4.21-44.01-8.3-84.88-4.98-112.47,7.79,2.47,43.71-.98,51.49,1.49Z"/><path class="cls-69" d="m1191.86,70.38c20.24,15.52,25.28,54.13,33.2,71.88,8.54,4.85,38.5,16.53,46.27,20.72-2.53,3.21-7.99,9.07-11.67,11.57-8.92-2.67-44.12-13.43-48.27-16.27-7.96-5.43-21.01-33.01-23.91-53.63-2.89-20.62,4.38-34.27,4.38-34.27Z"/><path class="cls-70" d="m1133.66,78.49c7.63-7.82,25.48-18.03,36.48-17.75,18.71.47,31.91,17.28,34.43,30.48,2.38,12.43-14.17,93.02-11.8,109.83-2.82,8.46-15.83,13.73-25.37,14.46-26.89,2.06-56.58.71-57-16.11-.78-31.45,12.5-112.07,23.27-120.9Z"/><path class="cls-9" d="m1170.25,35.85c-.09-6.09,19.5,8.23,17.88,16.09-1.32,6.4-3.77,11.9,2.37,16.6,2.08,2.03,8.55,15.36-3.33,14.32-16.99-1.47-21.06-6.58-32.28-18.3,7.72-3.41,15.63-8.98,15.35-28.71Z"/><path class="cls-9" d="m1165.7,31.8l9.62-11.06,36.79,3.64-2.19,22.14c-1.21,12.23-10.42,21.33-20.57,20.32-9.86-.97-18.21-10.04-17.53-21.81l-4.31-1.98-1.8-11.25Z"/><path class="cls-6" d="m1187.9,72.68c-8.79-.87-18.27-16.06-16.09-27.64-.64,11.05,7.73,19.89,16.79,21.71.71.73,1.15,1.21,1.9,1.78.16.16.35.39.55.68-.18,1.79-1.55,3.63-3.15,3.47Z"/><path class="cls-24" d="m1210.94,14.17c3.43-.25,4.01-3.02-9.16-9.09-7.54-4.67-18.65-6.97-26.36-3.19-10.45,5.13-14.31,13.79-13.65,25.21.64,11.43,6.79,22.84,6.79,22.84.98,1.21,1.66-3.96,1.15-7.89-.38-.43-.71-1.5-.96-3.42-1.48-11.68,5.35-9.29,6.21-8.23,2.07,1.1-3.04,10.15,3.38,9.83,3.1-.15,3.53-8.73,3.81-11.73.44.15.87.28,1.34.5,4.93,3.41,22.46,7.28,13.22.14,6.86.68,15.89,4.77,19.48.73,4.26-4.81-1.19-11.05-5.25-15.69Z"/><polygon class="cls-12" points="1188.57 489.5 1181.17 483.84 1186.34 439.08 1193.74 444.74 1188.57 489.5"/><polygon class="cls-12" points="1194.89 434.82 1187.49 429.16 1190.93 399.35 1198.34 405.01 1194.89 434.82"/><polygon class="cls-31" points="1119.95 476.36 1112.54 470.7 1187.49 429.16 1194.89 434.82 1119.95 476.36"/><polygon class="cls-12" points="1199.48 395.09 1192.08 389.43 1195.52 359.62 1202.93 365.28 1199.48 395.09"/><polygon class="cls-31" points="1124.54 436.63 1117.14 430.97 1192.08 389.43 1199.48 395.09 1124.54 436.63"/><polygon class="cls-12" points="1204.07 355.36 1196.67 349.7 1200.12 319.89 1207.52 325.56 1204.07 355.36"/><polygon class="cls-31" points="1129.13 396.9 1121.73 391.24 1196.67 349.7 1204.07 355.36 1129.13 396.9"/><polygon class="cls-12" points="1208.67 315.63 1201.26 309.97 1204.71 280.17 1212.11 285.83 1208.67 315.63"/><polygon class="cls-31" points="1133.72 357.17 1126.32 351.51 1201.26 309.97 1208.67 315.63 1133.72 357.17"/><polygon class="cls-12" points="1213.26 275.9 1205.85 270.24 1209.3 240.44 1216.7 246.1 1213.26 275.9"/><polygon class="cls-31" points="1138.32 317.44 1130.91 311.78 1205.85 270.24 1213.26 275.9 1138.32 317.44"/><polygon class="cls-12" points="1217.85 236.17 1210.45 230.51 1213.89 200.71 1221.29 206.37 1217.85 236.17"/><polygon class="cls-31" points="1225.18 172.73 1217.78 167.07 1227.33 161.77 1234.73 167.44 1225.18 172.73"/><polygon class="cls-12" points="1222.44 196.45 1215.04 190.78 1217.78 167.07 1225.18 172.73 1222.44 196.45"/><polygon class="cls-31" points="1142.91 277.72 1135.5 272.05 1210.45 230.51 1217.85 236.17 1142.91 277.72"/><polygon class="cls-31" points="1147.5 237.99 1140.09 232.33 1215.04 190.78 1222.44 196.45 1147.5 237.99"/><polygon class="cls-31" points="1140.67 219.57 1133.27 213.91 1142.84 208.61 1150.24 214.27 1140.67 219.57"/><polygon class="cls-12" points="1104.06 536.34 1096.66 530.68 1133.27 213.91 1140.67 219.57 1104.06 536.34"/><path class="cls-34" d="m1225.18,172.73l9.55-5.29-36.61,316.77-9.55,5.29,5.17-44.75-74.94,41.54-5.17,44.75-9.57,5.3,36.61-316.77,9.57-5.3-2.74,23.72,74.94-41.54,2.74-23.72Zm-30.29,262.09l3.44-29.81-74.94,41.54-3.44,29.81,74.94-41.54h0Zm18.37-158.92l3.44-29.81-74.94,41.54-3.44,29.81,74.94-41.54h0Zm-13.77,119.19l3.44-29.81-74.94,41.54-3.44,29.81,74.94-41.54h0Zm4.59-39.73l3.44-29.81-74.94,41.54-3.44,29.81,74.94-41.54h0Zm4.59-39.73l3.44-29.81-74.94,41.54-3.44,29.81,74.94-41.54h0Zm9.18-79.46l3.44-29.81-74.94,41.54-3.44,29.81,74.94-41.54h0Z"/><path class="cls-54" d="m809.86,1007.97v27.21s-297.44,171.72-297.44,171.72l-9.29-5.36-11.36,6.56,12.35,7.13h.02c1.94,1.36,6.64,2.23,13.56,2.23,13,0,28.84-3.05,35.32-6.8l280.41-161.86-23.58-40.82Z"/><polygon class="cls-55" points="1267.34 598.53 1122 682.44 1122 734.86 1122 903.58 1438.56 903.58 1617.13 800.48 1267.34 598.53"/><polygon class="cls-52" points="1537.38 442.62 1392.04 526.53 1392.04 578.96 1392.04 747.67 1708.6 747.67 1887.17 644.58 1537.38 442.62"/><polygon class="cls-53" points="997.3 754.43 851.96 838.34 851.96 890.77 851.96 1059.49 1168.52 1059.49 1347.1 956.39 997.3 754.43"/><path class="cls-90" d="m1538.11,376.41l-256.57-148.13c-14.7-8.49-31.39-6.56-43.55,1.98h0l-172.25,99.45c11.26-5.23,24.94-5.42,37.23,1.67l256.57,148.13c20.11,11.61,32.5,33.07,32.5,56.3v211.86l178.58-103.1v-211.86c0-23.23-12.39-44.69-32.51-56.3Z"/><path class="cls-14" d="m1042.25,366.44v179.28l349.79,201.95v-211.86c0-23.23-12.39-44.69-32.51-56.3l-256.57-148.13c-26.99-15.58-60.72,3.9-60.72,35.06Z"/><polygon class="cls-17" points="1362.67 515.77 1392.04 556.09 1392.04 747.67 1369.57 734.7 1362.67 515.77"/><path class="cls-14" d="m975.85,415.85v195.83l303.4,175.17v-194.59c0-16.63-8.87-32-23.28-40.32l-257.91-148.91c-9.87-5.7-22.21,1.42-22.21,12.82Z"/><path class="cls-93" d="m1346.29,499.79l-257.91-148.91c-5.04-2.91-10.72-2.46-15.08.18l-89.92,51.9c4.3-2.43,9.79-2.76,14.68.06l257.91,148.91c14.4,8.32,23.28,23.69,23.28,40.32v194.59l90.32-52.15v-194.59c0-16.63-8.87-32-23.28-40.32Z"/><path class="cls-95" d="m1268.07,532.32l-256.57-148.13c-14.7-8.49-31.39-6.56-43.55,1.98h0s-172.25,99.45-172.25,99.45c11.26-5.23,24.94-5.42,37.23,1.67l256.57,148.13c20.11,11.61,32.51,33.07,32.51,56.3v211.86l178.58-103.1v-211.86c0-23.23-12.39-44.69-32.51-56.3Z"/><path class="cls-14" d="m772.21,522.35v179.28l349.79,201.95v-211.86c0-23.23-12.39-44.69-32.51-56.3l-256.57-148.13c-26.99-15.58-60.72,3.9-60.72,35.06Z"/><polygon class="cls-17" points="1092.63 671.68 1122 712 1122 903.58 1099.53 890.61 1092.63 671.68"/><path class="cls-14" d="m705.81,571.76v195.83l303.4,175.17v-194.59c0-16.63-8.87-32-23.28-40.32l-257.91-148.9c-9.87-5.7-22.21,1.42-22.21,12.82Z"/><path class="cls-96" d="m1076.25,655.7l-257.91-148.9c-5.04-2.91-10.72-2.46-15.08.18l-89.92,51.9c4.3-2.43,9.79-2.76,14.68.06l257.91,148.9c14.4,8.32,23.28,23.69,23.28,40.32v194.59l90.32-52.15v-194.59c0-16.63-8.87-32-23.28-40.32Z"/><path class="cls-91" d="m998.03,688.23l-256.57-148.13c-14.7-8.49-31.39-6.56-43.55,1.98h0s-172.25,99.45-172.25,99.45c11.26-5.23,24.94-5.42,37.23,1.67l256.57,148.13c20.11,11.61,32.51,33.07,32.51,56.3v211.86l178.58-103.1v-211.86c0-23.23-12.39-44.69-32.51-56.3Z"/><path class="cls-14" d="m502.17,678.26v179.28l349.79,201.95v-211.86c0-23.23-12.39-44.69-32.51-56.3l-256.57-148.13c-26.99-15.58-60.72,3.9-60.72,35.06Z"/><path class="cls-94" d="m786.3,826.6l-218.21-125.98c-13.01-7.51-23.56-1.42-23.56,13.6v167.77l265.33,153.19v-167.77c0-15.02-10.54-33.3-23.56-40.81Z"/><path class="cls-2" d="m809.86,867.41c0-15.02-10.54-33.3-23.56-40.81l-96.47-55.7-449.23,259.36c-6.5,3.75-11.78,12.89-11.78,20.41,0,4.25,1.7,7.08,4.36,8.04l263.61,152.19,9.14-27.44,303.94-175.49v-140.56Z"/><path class="cls-18" d="m505.92,1183.46c-6.51,3.74-11.78,12.88-11.78,20.39s5.28,10.56,11.78,6.8l303.94-175.48v-27.21l-303.94,175.49Z"/><path class="cls-30" d="m499.67,1200.66c0-3.98,2.8-8.83,6.25-10.82,3.45-1.99,6.25-.38,6.25,3.61s-2.8,8.82-6.25,10.81c-3.45,2-6.25.38-6.25-3.6Z"/><path class="cls-30" d="m529.35,1183.53c0-3.98,2.8-8.82,6.25-10.82,3.45-1.99,6.25-.38,6.25,3.61s-2.8,8.83-6.24,10.82c-3.45,1.99-6.25.38-6.25-3.61Z"/><path class="cls-30" d="m560.51,1165.54c0-3.98,2.8-8.82,6.25-10.82,3.45-1.99,6.25-.38,6.25,3.61s-2.8,8.82-6.25,10.81c-3.45,2-6.25.39-6.25-3.6Z"/><path class="cls-30" d="m591.68,1147.55c0-3.98,2.79-8.83,6.25-10.82,3.45-1.99,6.24-.38,6.24,3.61,0,3.98-2.8,8.83-6.24,10.82-3.45,2-6.25.38-6.25-3.6Z"/><path class="cls-30" d="m622.85,1129.55c0-3.99,2.8-8.83,6.25-10.82,3.45-1.99,6.25-.38,6.25,3.61s-2.8,8.82-6.25,10.81c-3.45,1.99-6.25.38-6.25-3.6Z"/><path class="cls-30" d="m654.01,1111.56c0-3.99,2.8-8.83,6.25-10.82,3.45-2,6.25-.38,6.25,3.6s-2.8,8.83-6.25,10.83c-3.45,1.98-6.25.38-6.25-3.61Z"/><path class="cls-30" d="m685.18,1093.56c0-3.98,2.79-8.82,6.25-10.82,3.44-1.99,6.25-.38,6.25,3.61,0,3.98-2.8,8.82-6.25,10.82-3.45,1.99-6.25.38-6.25-3.61Z"/><path class="cls-30" d="m716.35,1075.57c0-3.98,2.8-8.83,6.25-10.82,3.45-1.99,6.25-.39,6.25,3.61s-2.8,8.82-6.25,10.81c-3.45,2-6.25.38-6.25-3.6Z"/><path class="cls-30" d="m747.52,1057.57c0-3.98,2.8-8.82,6.25-10.82,3.45-2,6.24-.38,6.24,3.6s-2.8,8.82-6.24,10.82c-3.45,1.99-6.25.38-6.25-3.61Z"/><path class="cls-30" d="m778.68,1039.58c0-3.99,2.8-8.83,6.25-10.82,3.45-2,6.25-.38,6.25,3.6s-2.8,8.83-6.25,10.82c-3.45,2-6.25.39-6.25-3.6Z"/><path class="cls-51" d="m230.77,1042.05l265.33,153.18c1.04-2.43,2.48-4.72,4.14-6.74l-265.33-153.19c-1.66,2.03-3.1,4.32-4.14,6.75Zm364.79-216.72l214.29,123.72v-8.16l-207.22-119.64-7.07,4.08Zm-221.47,127.87l265.33,153.19,7.07-4.09-265.33-153.19-7.06,4.08Zm73.82-42.62l265.33,153.19,7.07-4.08-265.33-153.19-7.07,4.08Zm73.82-42.62l265.33,153.19,7.07-4.08-265.33-153.18-7.07,4.08Zm-221.47,127.86l265.33,153.19,7.06-4.08-265.32-153.19-7.07,4.08Z"/><polygon class="cls-22" points="983.28 790.88 987.59 788.39 987.59 757.04 983.28 759.53 983.28 790.88"/><polygon class="cls-22" points="971.1 797.91 975.42 795.41 975.42 764.07 971.1 766.56 971.1 797.91"/><polygon class="cls-22" points="958.93 804.94 963.25 802.44 963.25 771.1 958.93 773.59 958.93 804.94"/><polygon class="cls-22" points="946.76 811.97 951.08 809.48 951.08 778.13 946.76 780.62 946.76 811.97"/><polygon class="cls-22" points="934.58 819 938.9 816.5 938.9 785.15 934.58 787.65 934.58 819"/><path class="cls-49" d="m678.17,1084.01l131.68-76.04v-140.56c0-15.02-10.54-33.3-23.56-40.81l-96.47-55.7-276.98,159.92,265.33,153.19Z"/><rect class="cls-50" x="1320.48" y="325.9" width="121.52" height="52.53"/><path class="cls-92" d="m1290.5,371.24c-8.35-4.82-12.53-11.15-12.5-17.47l.03-44.59c-.02,6.32,4.15,12.65,12.5,17.47,16.6,9.58,43.41,9.58,59.89,0,8.19-4.77,12.29-10.99,12.31-17.23l-.04,44.59c-.02,6.23-4.12,12.46-12.31,17.22-8.24,4.79-19.06,7.19-29.9,7.19-10.84,0-21.69-2.4-29.98-7.19Z"/><path class="cls-2" d="m1290.32,291.97c8.3-4.79,19.17-7.18,30.04-7.18s21.75,2.39,30.04,7.18c8.3,4.79,12.44,11.07,12.44,17.35,0,6.28-4.15,12.56-12.44,17.35-8.3,4.79-19.17,7.18-30.04,7.18s-21.75-2.39-30.04-7.18c-8.3-4.79-12.44-11.07-12.44-17.35s4.15-12.56,12.44-17.35Z"/><path class="cls-2" d="m1264.5,196.73c15.43-8.91,35.64-13.36,55.86-13.36,20.22,0,40.43,4.45,55.86,13.36,15.43,8.91,23.14,20.58,23.14,32.25,0,11.67-7.71,23.35-23.14,32.25-15.43,8.91-35.64,13.36-55.86,13.36s-40.43-4.45-55.86-13.36c-15.43-8.91-23.14-20.58-23.14-32.25,0-11.67,7.71-23.34,23.14-32.25Z"/><path class="cls-77" d="m1269.1,199.39c14.15-8.17,32.71-12.26,51.26-12.26,18.55,0,37.1,4.09,51.26,12.26,14.15,8.17,21.23,18.88,21.23,29.59,0,10.71-7.08,21.42-21.23,29.59-14.15,8.17-32.71,12.26-51.26,12.26s-37.1-4.09-51.26-12.26c-14.15-8.17-21.23-18.88-21.23-29.59s7.08-21.42,21.23-29.59Z"/><path class="cls-98" d="m1376.22,261.24c-15.43,8.91-35.64,13.36-55.86,13.36s-40.43-4.45-55.86-13.36c-8.11-4.69-14.07-10.14-17.92-15.95h0s32.72,70.77,32.72,70.77c0,0,.62,1.15.98,1.76,2.02,3.49,5.42,6.77,10.22,9.55,8.29,4.79,19.15,7.19,29.98,7.19,10.84,0,21.66-2.4,29.9-7.19,5.12-2.98,8.6-6.53,10.52-10.3.18-.35.52-1.01.52-1.01l32.72-70.77h0c-3.85,5.81-9.8,11.27-17.92,15.95Z"/><polygon class="cls-8" points="1270.43 230.16 1313.08 205.54 1313.08 156.3 1270.43 180.91 1270.43 230.16"/><polygon class="cls-11" points="1270.43 230.16 1227.78 205.54 1227.78 156.3 1270.43 180.91 1270.43 230.16"/><polygon class="cls-10" points="1270.43 180.91 1227.78 156.3 1270.43 131.68 1313.08 156.3 1270.43 180.91"/><path class="cls-28" d="m1224.12,169.6c1.05.81,6.49,11.51-1.55,15.95-4.62-1.73-7.51-12.94,1.55-15.95Z"/><path class="cls-9" d="m1218.84,170.18l5.64,1.26c3.15.51,10.61-1.96,14.35-6.78,3.73-4.82,5.69,3.55,1,6.6-4.7,3.05-4.49,5.16,3.77,5.59,3.86.21,8.03,1.79,9.55,2.97,3.26,2.53,7.28,8.53,3.08,12.23-3.41,2.99-15.12-.58-18.65-1.53-9.72-2.59-8.1-4.66-13.6-6.47-5.5-1.82-6.65-1.56-6.65-1.56l1.51-12.31Z"/><path class="cls-101" d="m1141.58,76.74c-5.98.37-14.32,6.72-11.16,24.59,2.98,16.85,18.91,46.98,24.43,54.97,12.82,18.54,38.19,24.65,67.72,29.25-4.16-3.7-2.9-13.2,1.55-15.95-20.36-6-39.98-15.92-47.23-21.54-3.47-7.31-14.93-41.22-18-52.58-3.09-11.45-8.18-19.31-17.32-18.75Z"/><path class="cls-62" d="m820.88,653.94c-7.44-4.29-17.34-6.27-27.06-5.98h-26.46v2.49c-2.89.92-5.62,2.07-8.06,3.49-13.86,8.06-13.77,21.11.17,29.17,2.4,1.39,5.07,2.52,7.89,3.42v2.61h29.49c8.79-.15,17.5-2.14,24.19-6.02,13.85-8.06,13.79-21.11-.17-29.17Z"/><path class="cls-97" d="m744.05,683.13c-7.02-4.05-10.52-9.36-10.51-14.68l.03-9.61c-.01,5.32,3.49,10.63,10.51,14.69,13.95,8.05,36.49,8.05,50.35,0,6.88-4.01,10.33-9.24,10.34-14.48l-.03,9.61c-.02,5.24-3.46,10.48-10.34,14.48-13.86,8.05-36.4,8.05-50.35,0Z"/><path class="cls-5" d="m744.08,673.53c-13.95-8.05-14.02-21.11-.17-29.16,13.86-8.05,36.41-8.05,50.35,0,13.95,8.05,14.02,21.11.17,29.17-13.86,8.05-36.4,8.05-50.35,0Z"/><path class="cls-36" d="m790.74,675.37c1.28-.56,2.52-1.16,3.68-1.83,13.85-8.06,13.79-21.11-.17-29.17-2.97-1.72-6.34-3.04-9.93-4.03h-16.93v2.12c-2.46.78-4.78,1.77-6.86,2.97-11.79,6.85-11.71,17.96.14,24.81,2.04,1.18,4.31,2.14,6.71,2.91v2.22h23.35Z"/><path class="cls-102" d="m747.56,670.23c-5.97-3.45-8.95-7.97-8.94-12.49l.02-34.21c-.01,4.52,2.97,9.05,8.94,12.5,11.87,6.85,31.04,6.85,42.83,0,5.85-3.41,8.79-7.86,8.8-12.32l-.02,34.2c-.02,4.46-2.94,8.91-8.8,12.32-11.79,6.85-30.96,6.85-42.83,0Z"/><path class="cls-29" d="m749.47,636.92c-.62-.31-1.3-.55-1.89-.89-2.61-1.51-4.61-3.23-6.08-5.05v34.24c1.47,1.81,3.46,3.52,6.05,5.02.59.34,1.28.59,1.91.9v-34.21Z"/><path class="cls-60" d="m774.92,675.02c5.67-.65,11.08-2.24,15.46-4.79,1.35-.79,2.53-1.63,3.57-2.52v-34.18c-1.03.88-2.2,1.72-3.54,2.5-4.39,2.55-9.81,4.14-15.49,4.79v34.2Z"/><path class="cls-15" d="m790.41,636.03c-11.79,6.84-30.96,6.84-42.83,0-5.6-3.23-8.54-7.42-8.87-11.65-.38,4.78,2.55,9.63,8.87,13.28,11.87,6.85,31.04,6.85,42.83,0,6.22-3.62,9.11-8.43,8.73-13.17-.33,4.2-3.22,8.33-8.73,11.54Z"/><path class="cls-31" d="m747.58,636.02c-11.86-6.85-11.93-17.96-.15-24.81,11.79-6.85,30.97-6.85,42.83,0,11.87,6.85,11.92,17.96.14,24.81-11.79,6.84-30.96,6.84-42.83,0Z"/><path class="cls-63" d="m721.91,641.16c0-26.02,21.09-47.11,47.12-47.11s47.11,21.09,47.11,47.11-21.09,47.11-47.11,47.11-47.12-21.09-47.12-47.11Z"/><path class="cls-26" d="m419.75,1050.73c14.56,14.56,45.91,27.52,53.29,29.36,7.38-1.84,38.73-14.81,53.28-29.36-33.37-1.99-73.2-1.99-106.57,0Z"/><path class="cls-103" d="m412.97,990.81v43.9c0,8.87,5.86,17.75,17.59,24.52,23.46,13.54,61.49,13.54,84.94,0,11.73-6.77,17.59-15.65,17.59-24.52v-43.9h-120.12Z"/><path class="cls-104" d="m536.7,1013.16c0-1.16-.81-2.36-1.9-3.01,1.31-3.05,1.99-6.21,1.99-9.46-.09-1.69-1.79-3.49-3.59-3.49s-.01,3.49-.01,3.49h-.83c0,8.66-6,16.9-16.9,23.19-23.37,13.49-61.39,13.49-84.76,0-10.9-6.29-16.9-14.53-16.9-23.19h-.92s1.79-3.49-.01-3.49-3.5,1.8-3.5,3.49c0,3.23.68,6.38,1.97,9.41-1.13.63-1.97,1.86-1.97,3.05,0,3.23.68,6.38,1.97,9.41-1.12.63-1.97,1.87-1.97,3.05,0,10.31,6.79,19.9,19.12,27.02,24.59,14.19,64.59,14.19,89.18,0,12.33-7.12,19.12-16.72,19.12-27.02-.09-1.16-.9-2.36-1.99-3.01,1.31-3.05,1.99-6.22,1.9-9.46Zm-21.24,35.65c-23.37,13.49-61.39,13.49-84.76,0-10.23-5.91-16.15-13.53-16.83-21.61,3.24,4.84,8.16,9.25,14.62,12.98,24.59,14.19,64.59,14.19,89.18,0,6.46-3.73,11.38-8.15,14.62-12.98-.68,8.07-6.6,15.7-16.83,21.61Zm0-12.46c-23.37,13.49-61.39,13.49-84.76,0-10.23-5.91-16.15-13.54-16.83-21.62,3.24,4.84,8.16,9.25,14.62,12.99,24.59,14.19,64.59,14.19,89.18,0,6.46-3.73,11.38-8.15,14.62-12.99-.68,8.08-6.6,15.7-16.83,21.62Z"/><path class="cls-68" d="m579.45,886.26c0-58.77-47.64-106.41-106.41-106.41s-106.41,47.64-106.41,106.41c0,29.88,12.34,56.87,32.17,76.2,8.08,8.11,10.09,22.78,10.09,26.9,0,9.48,6.26,18.96,18.79,26.19,25.05,14.47,65.67,14.46,90.72,0,12.53-7.23,18.79-16.71,18.79-26.19,0-4.11,2-18.78,10.16-26.94,19.76-19.29,32.1-46.28,32.1-76.16Z"/><path class="cls-58" d="m398.8,962.47c2.31,2.32,4.11,5.18,5.52,8.17l8.99,5.19c1.28-1.88,2.82-3.71,4.66-5.48l-25.65-14.81c2.06,2.4,4.21,4.71,6.48,6.92Zm130.01-98.6l-7.07,4.08,56.7,32.73c.35-2.54.61-5.11.77-7.71l-50.4-29.1Zm-80.89,46.7l96.36,55.63c.91-1.35,1.92-2.63,3.07-3.77.56-.54,1.09-1.12,1.64-1.68l-93.99-54.27-7.07,4.08Z"/><path class="cls-61" d="m427.68,963.18c25.05-14.47,65.67-14.47,90.72,0,25.05,14.46,25.05,37.91,0,52.38-25.05,14.46-65.67,14.47-90.72,0-25.05-14.47-25.05-37.92,0-52.38Z"/><path class="cls-5" d="m388.11,893.76c-4.14,0-7.5-3.36-7.5-7.5,0-50.96,41.46-92.43,92.42-92.43,4.14,0,7.5,3.36,7.5,7.5s-3.36,7.5-7.5,7.5c-42.69,0-77.42,34.73-77.42,77.43,0,4.14-3.36,7.5-7.5,7.5Z"/><path class="cls-56" d="m537.19,989.36c0-4.11,2-18.78,10.16-26.94,19.76-19.29,32.1-46.28,32.1-76.16,0-16.36-3.7-31.85-10.29-45.69l-183.72,106.07c3.94,5.7,8.42,11,13.37,15.83,8.08,8.11,10.09,22.78,10.09,26.9,0,9.48,6.26,18.96,18.79,26.19,25.05,14.47,65.67,14.46,90.72,0,12.53-7.23,18.79-16.71,18.79-26.19Z"/><path class="cls-64" d="m496.82,873.64c-1.36-.79-2.88-.78-4.28.03-2.94,1.7-5.12,7.24-6.53,14.28-.95-2.82-2.2-4.95-3.8-5.88-1.36-.79-2.88-.77-4.28.03-2.94,1.7-5.12,7.23-6.53,14.28-.95-2.82-2.2-4.94-3.8-5.87-1.36-.79-2.88-.78-4.28.03-2.94,1.69-5.12,7.23-6.53,14.28-.95-2.82-2.2-4.94-3.8-5.87-1.36-.79-2.88-.78-4.28.03-5.52,3.19-8.41,19.93-8.41,34.81s3.61,19.64,7.1,23.97c3.69,4.58,7.51,9.31,7.51,29.54,0,1.22.99,2.22,2.21,2.22s2.21-.99,2.21-2.22c0-21.79-4.51-27.38-8.49-32.31-3.28-4.08-6.12-7.6-6.12-21.19,0-16.87,3.56-29.31,6.15-30.94,1.43.95,4.04,8.41,4.03,22.51,0,1.22.99,2.21,2.21,2.21s2.21-.99,2.21-2.21c0-16.87,3.57-29.32,6.15-30.94,1.43.95,4.04,8.41,4.04,22.51,0,1.22.99,2.21,2.21,2.21s2.22-.99,2.22-2.21c0-16.87,3.56-29.32,6.14-30.94,1.43.95,4.04,8.41,4.04,22.5,0,1.22.99,2.21,2.21,2.21s2.21-.99,2.21-2.21c0-16.87,3.56-29.31,6.15-30.94,1.43.95,4.04,8.41,4.04,22.5s-3.15,21.63-6.49,29.7c-3.81,9.21-8.12,19.64-8.12,40.67,0,1.22.99,2.21,2.21,2.21s2.21-.99,2.21-2.21c0-20.15,3.96-29.73,7.78-38.98,3.51-8.49,6.83-16.51,6.83-31.39,0-11-1.67-23.71-6.35-26.41Z"/><path class="cls-10" d="m471.73,762.85c-2.07,0-3.75-1.68-3.75-3.75v-54.29c0-2.07,1.68-3.75,3.75-3.75s3.75,1.68,3.75,3.75v54.29c0,2.07-1.68,3.75-3.75,3.75Z"/><path class="cls-10" d="m410.81,778.39c-1.33,0-2.61-.71-3.29-1.95l-18.22-33.37c-.99-1.82-.32-4.1,1.49-5.09,1.82-1,4.1-.32,5.09,1.49l18.22,33.37c.99,1.82.32,4.1-1.49,5.09-.57.31-1.19.46-1.79.46Z"/><path class="cls-10" d="m366.02,819.37c-.77,0-1.55-.24-2.22-.73l-17.72-13c-1.67-1.23-2.03-3.57-.81-5.24,1.23-1.67,3.57-2.03,5.24-.81l17.72,13c1.67,1.23,2.03,3.57.81,5.24-.73,1-1.87,1.53-3.03,1.53Z"/><path class="cls-59" d="m1261.79,1072.4l-31.7-18.3c2.83,2.65,4.23,5.66,4.19,8.68h0v21.23h0c-.06,4.12-2.78,8.22-8.19,11.34l-174.41,100.69c-5.41,3.13-12.54,4.7-19.68,4.73h0s36.33,0,36.33,0v-.02c6.93-.12,13.8-1.68,19.06-4.71l174.4-100.69c10.93-6.31,10.93-16.64,0-22.95Z"/><path class="cls-99" d="m1226.09,1074.11l-174.41,100.69c-10.93,6.31-28.81,6.31-39.75,0l-101.36-58.52c-5.42-3.13-8.14-7.24-8.19-11.37h0v21.23h0c.03,4.13,2.76,8.26,8.19,11.39l101.36,58.52c10.93,6.31,28.82,6.31,39.75,0l174.41-100.69c5.41-3.12,8.13-7.23,8.19-11.34h0v-21.23h0c-.07,4.11-2.79,8.21-8.19,11.32Z"/><path class="cls-5" d="m1226.09,1051.16c10.93,6.31,10.93,16.64,0,22.95l-174.41,100.69c-10.93,6.31-28.81,6.31-39.75,0l-101.36-58.52c-10.93-6.31-10.93-16.64,0-22.95l174.4-100.69c10.93-6.31,28.82-6.31,39.75,0l101.36,58.52Z"/><path class="cls-57" d="m1226.09,1051.16l-36.94-21.33h-32.14l18.4,10.62-181.42,105.09h108.38l123.72-71.43c10.93-6.32,10.93-16.64,0-22.95Z"/><polygon class="cls-19" points="975.6 971.31 993.99 981.93 993.99 1145.54 975.6 1134.91 975.6 971.31"/><polygon class="cls-13" points="993.99 943.12 1175.41 838.04 1175.41 1040.45 993.99 1145.54 993.99 943.12"/><path class="cls-2" d="m1153.54,731.15c-4.54-6.06-13.62-7.92-20.18-4.14l-211.79,122.28c-6.56,3.79-8.21,11.85-3.67,17.9l118.56,158.31c4.54,6.06,13.62,7.92,20.18,4.14l211.79-122.28c6.56-3.78,8.21-11.85,3.67-17.91l-118.56-158.31Z"/><path class="cls-100" d="m1056.64,1029.65c-6.56,3.78-15.64,1.92-20.18-4.14l-118.56-158.31c-3.64-4.86-3.29-10.99.37-15.19l-15,17.73h0c-3.85,4.2-4.27,10.47-.57,15.42l118.56,158.31c4.54,6.06,13.62,7.93,20.18,4.14l211.79-122.28c1.6-.93,2.91-2.11,3.9-3.45h0l14.28-16.87c-.85.9-1.84,1.71-3,2.37l-211.79,122.28Z"/><path class="cls-84" d="m1047.79,1021.82c-40.04-53.47-80.09-106.95-120.14-160.42,71.46-42.25,142.92-84.51,214.38-126.76,40.39,53.94,80.78,107.87,121.17,161.8-71.8,41.79-143.6,83.59-215.41,125.38Z"/><path class="cls-66" d="m1080.11,860.43c-11.49,6.59-13.01,22.35-3.4,35.18,9.62,12.85,26.73,17.91,38.22,11.33,11.48-6.58,13-22.33,3.38-35.18-9.61-12.83-26.72-17.91-38.2-11.33h0Z"/><path class="cls-65" d="m1083.3,852.41c-11.49,6.59-13.01,22.35-3.4,35.18,9.62,12.85,26.73,17.91,38.22,11.33,11.48-6.58,13-22.33,3.38-35.17-9.61-12.83-26.72-17.91-38.2-11.33h0Z"/><polygon class="cls-5" points="1088.79 867.15 1104.27 887.83 1110.55 869.45 1088.79 867.15 1088.79 867.15"/><polygon class="cls-67" points="1151.81 770.03 962.9 879.99 949.16 861.64 1138.07 751.68 1151.81 770.03"/><polygon class="cls-67" points="1070.81 915.06 1013.95 948.15 970.78 890.51 1027.64 857.42 1070.81 915.06"/><polygon class="cls-67" points="1239.56 884.87 1182.7 917.96 1101.5 809.53 1158.36 776.44 1239.56 884.87"/><polygon class="cls-67" points="1085.85 935.14 1028.99 968.23 1021.22 957.85 1078.07 924.76 1085.85 935.14"/><polygon class="cls-67" points="1098.12 951.53 1041.26 984.63 1033.49 974.25 1090.35 941.15 1098.12 951.53"/><polygon class="cls-67" points="1170.03 931.24 1052.51 999.65 1044.74 989.27 1162.26 920.86 1170.03 931.24"/><rect class="cls-38" x="1205.21" y="1192.83" width="126.32" height="23.21"/><rect class="cls-39" x="1262.17" y="1159.3" width="126.33" height="23.22"/><path class="cls-85" d="m1276.15,1175.37c0-18.24-11.56-18.76-11.56-18.76,0,0-6.26,0-16.43-4.22-10.04-4.17-24.17-2.55-16.27,12.02.07.18.16.35.27.54.49.77,1.31,1.52,2.56,2.25l25.26,14.82c3.85,2.2,16.08-2.88,16.17-6.63Z"/><path class="cls-23" d="m1276.08,1173.74c-.22,3.75-12.28,8.73-16.1,6.55l-25.26-14.81c-.83-.49-2.27-1.45-3.56-2.6.24.51.44.98.73,1.53.07.18.16.35.27.54.49.77,1.31,1.52,2.56,2.25l25.26,14.82c3.61,2.06,14.56-2.27,16.01-5.91.06-.28.11-.54.11-.74.05-.57,0-1.08-.02-1.62Z"/><path class="cls-5" d="m1271.44,1154.21c-2.97,0-13.45,2.66-13.45,2.66,0,0-.07,1.45-.93,2.71-.11.11-.2.24-.29.35-2.07,1.44-4.17,3.71.73,6.79,4.01,2.53,7.28.92,8.83-.63.63-1.18,1.56-2.49,2.85-3.23,1.33-.77,2.15-1.12,2.73-1.15,0-.08.02-.25.02-.25,0,0,.76-7.26-.49-7.26Z"/><path class="cls-23" d="m1271.63,975.86c-11.42.2-39.97.71-51.38.92,4.25,34.33,12.8,65.51,18.52,98.76,6.13,32.31,13.03,55.01,19.07,81.91,2.2,5.01,12.3,3.11,14.35-1.71,1.6-24.76,3.43-54.93-3.91-83.5,1.23-30.8,4.07-65.28,3.35-96.37Z"/><path class="cls-86" d="m1218.57,1208.88c0-18.24-11.56-18.76-11.56-18.76,0,0-6.26,0-16.43-4.22-10.03-4.17-24.17-2.56-16.27,12.02.07.17.16.35.27.54.48.78,1.31,1.52,2.57,2.25l25.26,14.82c3.85,2.2,16.07-2.88,16.17-6.64Z"/><path class="cls-23" d="m1218.5,1207.25c-.22,3.75-12.28,8.73-16.1,6.55l-25.26-14.81c-.84-.48-2.28-1.45-3.57-2.6.24.5.44.98.73,1.53.07.17.16.35.27.54.48.78,1.31,1.52,2.57,2.25l25.26,14.82c3.6,2.06,14.56-2.27,16.01-5.91.06-.28.11-.53.11-.74.05-.56,0-1.07-.02-1.62Z"/><path class="cls-5" d="m1213.87,1187.72c-2.97,0-13.45,2.66-13.45,2.66,0,0-.07,1.45-.93,2.72-.11.11-.2.23-.3.35-2.07,1.44-4.17,3.71.74,6.79,4.01,2.52,7.28.92,8.83-.63.63-1.17,1.55-2.49,2.85-3.23,1.33-.76,2.15-1.11,2.73-1.15,0-.08.03-.25.03-.25,0,0,.76-7.26-.49-7.26Z"/><path class="cls-88" d="m1235.39,1057.49c3.13-14.75,39.14-16.59,36.77-74.61-11.3-1.66-68.3,25.07-79.6,23.41-1.41,34.56,1.93,66.72,2.14,100.45.76,32.88,3.88,56.4,5.43,83.92,1.36,5.3,11.63,5.08,14.44.66,5.62-24.17,12.36-53.64,9.78-83.02,3.36-16.28,7.37-33.53,11.02-50.81Z"/><path class="cls-20" d="m1246.11,870.2c40.21,26.87,45.01,80.22,23.27,114.09,0,0,4.67-75.03-23.27-114.09Z"/><path class="cls-89" d="m1247.95,1015.77c-24.48,13.73-50.08,13.76-58.82-3.13,3.27-31.44,6.32-57.03.02-87.16,1.86-16.64,3.17-19.14,1.04-28.85.76-3.25,10.76-10.2,18.06-16.86,7.88-7.19,13.2-14.03,17.26-14.86,33.47-6.83,49.73,52.81,46.93,116.39-2.58,16.9-12.45,27.7-24.49,34.46Z"/><path class="cls-9" d="m1244.08,868.71c-7.26-5.24-6.18-8.68-5.1-15.82,1.39-3.74,2.19-7.9,2.19-12.32,0-15.9-10.12-29.64-22.54-28.79-25.01,1.72-20.56,14.87-20.56,30.78,0,14.73,6.68,24.86,17.86,26.58,0,2.42-.64,3.81-3.69,6.85,8.17,4.89,20.09,2.59,24.81.46,5.01-2.27,10.43-4.21,7.03-7.74Z"/><path class="cls-9" d="m1152.92,906.86l.05.14c0-6.28-1.31-9.93-3.73-11-.52-1.5-1.07-3.06-1.6-4.56-3.13-8.75-12.93-16.26-15.02-14.17-1.25,1.25,3.73,5.1,6.37,9.27,1.73,2.75,1.74,4.28,2.19,6.57,0,0-11.73,1.1-11.73,10.84,0,7.92,4.27,4.8,4.27,3.23,3.03,8.02,6.62,3.28,8.01,9.83l12.7-5.62s-.59-1.81-1.5-4.53Z"/><path class="cls-33" d="m1229.62,807.76c-3.22-1.66-6.13-.8-7.93-1.95-4.27-2.62-8.32-4.28-10.58-3.04-1.1.6-3.18,2.53-3.18,2.53-2.23,2.23-6.79-2.51-7.88,3.23-.32,1.69-.39,3.09-.38,4.46-10.68,1.37-5.42,11.1,3.16,29.83.01-3.04,6.47-10.07,6.47,3.44,0,1.45-1.08,1.74-.13,3.66.96,1.92,7.1,6.77,11.14,10.82,5.65,5.65,8.97.58,18.31,1.6,0-4,1.03-6.01,2.46-8.51.89-1.58,6.03-6.61,6.03-15.39-7.25.9,5.64-18.76-17.49-30.68Z"/><path class="cls-87" d="m1190.19,896.64c-3.15,12.46-5.76,32.34-6.76,43.72-10.24-10.65-19.64-15.3-28.5-29.46l-14.47,6.04c2.72,9.9,29.55,50.58,48.68,53.57,18.69-7,22.24-41.34,25.01-56.06,4.05-21.55-19.32-30.22-23.95-17.81Z"/><polygon class="cls-43" points="757.34 1214.96 697.22 1214.96 735.38 1236.99 697.22 1259.02 757.34 1259.02 795.49 1236.99 757.34 1214.96"/><polygon class="cls-18" points="697.22 1259.02 735.38 1236.99 735.38 1192.93 697.22 1214.96 697.22 1259.02"/><polygon class="cls-14" points="697.22 1259.02 659.06 1236.99 659.06 1192.93 697.22 1214.96 697.22 1259.02"/><polygon class="cls-7" points="697.22 1214.96 659.06 1192.93 697.22 1170.91 735.38 1192.93 697.22 1214.96"/><polygon class="cls-41" points="908.77 244.5 848.66 244.5 886.82 266.54 848.66 288.56 908.77 288.56 946.93 266.54 908.77 244.5"/><polygon class="cls-18" points="848.66 288.56 886.82 266.54 886.82 222.48 848.66 244.5 848.66 288.56"/><polygon class="cls-14" points="848.66 288.56 810.5 266.54 810.5 222.48 848.66 244.5 848.66 288.56"/><polygon class="cls-7" points="848.66 244.5 810.5 222.48 848.66 200.45 886.82 222.48 848.66 244.5"/><polygon class="cls-42" points="564.89 442.6 415.18 442.6 510.21 497.48 415.18 552.34 564.89 552.34 659.92 497.48 564.89 442.6"/><polygon class="cls-18" points="415.18 552.34 510.21 497.48 510.21 387.75 415.18 442.6 415.18 552.34"/><polygon class="cls-14" points="415.18 552.34 320.14 497.48 320.14 387.75 415.18 442.6 415.18 552.34"/><polygon class="cls-7" points="415.18 442.6 320.14 387.75 415.18 332.9 510.21 387.75 415.18 442.6"/><polygon class="cls-46" points="1560.71 1079.47 1488.09 1079.47 1534.19 1106.09 1488.09 1132.69 1560.71 1132.69 1606.81 1106.09 1560.71 1079.47"/><polygon class="cls-18" points="1488.09 1132.69 1534.19 1106.09 1534.19 1052.86 1488.09 1079.47 1488.09 1132.69"/><polygon class="cls-14" points="1488.09 1132.69 1442 1106.09 1442 1052.86 1488.09 1079.47 1488.09 1132.69"/><polygon class="cls-5" points="1488.09 1079.47 1442 1052.86 1488.09 1026.25 1534.19 1052.86 1488.09 1079.47"/><polygon class="cls-18" points="367.66 470.04 415.18 442.61 415.18 387.75 367.66 415.17 367.66 470.04"/><polygon class="cls-14" points="462.69 470.04 415.18 442.61 415.18 387.75 462.69 415.17 462.69 470.04"/><polygon class="cls-7" points="415.18 497.47 367.66 470.04 415.18 442.62 462.69 470.04 415.18 497.47"/><polygon class="cls-47" points="367.66 470.04 462.69 470.04 415.18 387.75 415.18 442.62 367.66 470.04"/><polygon class="cls-44" points="593.88 497.46 533.77 497.46 571.93 519.5 533.77 541.53 593.88 541.53 632.04 519.5 593.88 497.46"/><polygon class="cls-18" points="533.77 541.53 571.93 519.5 571.93 475.44 533.77 497.46 533.77 541.53"/><polygon class="cls-14" points="533.77 541.53 495.61 519.5 495.61 475.44 533.77 497.46 533.77 541.53"/><polygon class="cls-5" points="533.77 497.46 495.61 475.44 533.77 453.42 571.93 475.44 533.77 497.46"/><rect class="cls-45" x="267.12" y="1184.31" width="100.11" height="20.97"/><rect class="cls-48" x="319.62" y="1214.57" width="107.65" height="20.96"/><path class="cls-9" d="m368.79,944.75c-1.8-1.84-7.73-1.71-13.03.59.36-1.52.79-3.87,0-4.1-1.15-.34-5.42,6.1-6.4,9.4h0c-.95,1.68-1.57,3.41-3.51,5.16l4.19,9.83s7.29-3.25,9.43-6.68c2.14-3.42,7.44-4.8,10.81-4.96,1.95-.09.48-7.2-1.51-9.23Z"/><path class="cls-25" d="m351.66,965.07s3.45-6.59-6.15-9.63c-20.98,8.95-42.5,4.31-58.3-15.29-6.53-8.39-16.33-2.97-9.51,9.61,11.37,20.99,40.22,36.05,73.96,15.31Z"/><path class="cls-79" d="m255.06,1198.81c0-16.47,10.44-16.94,10.44-16.94,0,0,5.8.59,15.11-2.91,11.72-4.4,21.56-3.22,14.42,9.95-.07.16-.15.32-.25.49-.44.69-1.18,1.38-2.31,2.02l-22.81,13.38c-3.47,1.99-14.52-2.6-14.6-5.99Z"/><path class="cls-21" d="m255.12,1197.33c.19,3.38,11.09,7.89,14.54,5.92l22.81-13.38c.75-.43,2.05-1.31,3.22-2.34-.22.46-.39.88-.66,1.38-.07.16-.15.32-.25.49-.44.69-1.18,1.38-2.31,2.02l-22.81,13.38c-3.25,1.86-13.15-2.05-14.45-5.34-.05-.24-.09-.47-.09-.66-.05-.51,0-.97.01-1.47Z"/><path class="cls-9" d="m259.3,1179.7c1.35,0,4.42.61,7.13,1.21,2.24-.58,9.64-.85,14.49-2.27,1.44-.42,2.8-1.33,4.32-.17,1.92,2.35-3.07,8.1-13.34,12.54-3.63,2.29-6.57.83-7.98-.56-.57-1.06-1.41-2.25-2.57-2.93-1.2-.69-1.94-1-2.46-1.04,0-.07-.03-.22-.03-.22,0,0-.67-6.56.45-6.56Z"/><path class="cls-78" d="m264.46,1071.45c-4.59-14.04-3.68-27.25-.28-43.56,10.31.19,39.37,4,49.74,2.34-6.35,33.56-20.88,47.49-26.04,77.5-5.54,29.17-12.11,50.6-17.56,74.88-1.99,4.52-11.7,2.48-11.7-.23-1.44-22.36-.48-48.3,6.15-74.09-.46-11.67,1.53-25.23-.31-36.85Z"/><path class="cls-81" d="m307.05,1229.07c0-16.47,10.44-16.94,10.44-16.94,0,0,6.11.27,15.42-3.23,11.72-4.4,21.25-2.9,14.11,10.27-.07.16-.16.32-.25.49-.43.69-1.18,1.38-2.31,2.02l-22.81,13.38c-3.47,1.99-14.52-2.6-14.6-5.99Z"/><path class="cls-21" d="m307.1,1227.59c.2,3.38,11.09,7.89,14.54,5.92l22.81-13.38c.75-.43,2.05-1.31,3.22-2.34-.21.45-.39.89-.65,1.38-.07.16-.16.32-.25.49-.43.69-1.18,1.38-2.31,2.02l-22.81,13.38c-3.24,1.86-13.14-2.05-14.45-5.34-.06-.24-.1-.47-.1-.67-.04-.51,0-.97.01-1.46Z"/><path class="cls-9" d="m311.29,1209.96c1.35,0,4.42.61,7.13,1.21,2.24-.58,9.64-.85,14.48-2.27,1.44-.42,2.8-1.33,4.32-.17,1.91,2.35-3.07,8.1-13.34,12.54-3.63,2.29-6.57.83-7.98-.56-.57-1.06-1.41-2.25-2.57-2.93-1.2-.7-1.94-1-2.46-1.04,0-.07-.03-.22-.03-.22,0,0-.68-6.56.44-6.56Z"/><path class="cls-83" d="m291.86,1092.36c-8.78-35.29-19.71-28.48-24.73-62.69,10.2,1.59,44.91,16.76,55.12,15.26,5.98,37.98,4.74,61.44,4.55,91.9-.69,29.69-2.63,50-4.04,74.84-1.23,4.79-12.1,4.42-12.1,1.54-5.07-21.82-9.12-48.44-6.79-74.97-3.04-14.7-8.7-30.28-12-45.88Z"/><path class="cls-82" d="m270.65,1079.3c16.63,10.16,56.38,17.38,59.8,4.16,1.74-9.82-8.67-68.48-8.01-88.24.15-4.31,6.84-5.02,7.51-9.44,1.45-9.64-1.91-35.92-3.49-38.83-3.36-6.2-11.82-9.93-18.83-10.57-9.59-.88-23-1.73-30.9,4.77-8.48,17.48-9.7,42.62-21.65,114.61,1.63,7.41,5.57,17.42,15.56,23.53Z"/><path class="cls-9" d="m285.58,936.44c6.22-5.17,5.43-10.99,4.03-17.36-1.48-3.28-2.46-6.99-2.72-10.97-.96-14.33,7.33-27.32,18.56-27.3,22.64.04,19.43,12.16,20.39,26.49.89,13.27-4.52,22.81-14.48,25.02.14,2.18,1.02,4.15,3.93,5.88-7.06,4.9-20.11,5.08-25.01,3.64-4.77-1.41-7.55-2.02-4.7-5.4Z"/><path class="cls-9" d="m386.68,989.92c1.99.03,3.07-4.84,6.27-5.48,3.21-.64,9.97-2.22,9.98-.23,0,1.67-5.86,1.82-5,2.62,2.47,2.29,7.78-.57,8.95-2.78,1.18-2.22,3.07-2.53,3.05-.37-.03,2.16-.55,11.85-8.13,14.6-7.58,2.74-16.69,2.14-16.69,2.14l1.58-10.5Z"/><path class="cls-31" d="m389.29,1000.98s5.16-6.49-3.31-11.94c-15.13-.35-31.9-2.44-37.35-7.83-6.28-6.21-14.68-21.69-22.71-35.14-7.59-9.86-19.21,1.69-11.99,15.02,5.95,10.98,14.58,23.11,24.7,32.2,6.87,6.17,31.53,12.01,50.66,7.68Z"/><path class="cls-24" d="m327.87,897.96c-.93-8.29-9.45-21.47-24.12-18.88-12.6,2.22-15.5,10.05-18.2,21.6-6.66,28.5-20.41,37.77-40.73,59.58-31.69,34.03,28.28,70.03,50.86,38.2,7.49-10.56-11.26-28.81,18.39-57.23l-.03-.04c9.46-10.11,15.9-24.67,13.82-43.22Z"/><polygon class="cls-40" points="1756.55 731.56 1555.59 733.25 1708.52 647.26 1756.55 645.57 1756.55 731.56"/><polygon class="cls-11" points="1590.9 560.49 1586.13 565.38 1589.97 534.53 1594.74 529.64 1590.9 560.49"/><path class="cls-10" d="m1626.47,540.51c6.86-3.85,16.9-.64,22.31,7.15l56.65,81.63c5.4,7.78,4.21,17.32-2.66,21.18l-135.77,76.26c-6.86,3.85-16.89.64-22.3-7.16l-56.65-81.63c-2.73-3.94-3.78-8.31-3.26-12.18.51-3.79,2.51-7.09,5.91-8.99l100.2-56.28,3.84-30.85,14.33,20.65,17.4-9.77Zm37.78,67.6l-3.74-5.39-122.61,68.87,3.74,5.39,122.61-68.87h0Zm-10.52-15.16l-3.74-5.39-122.61,68.87,3.74,5.39,122.61-68.87h0Zm-118.29,37.88l3.75,5.4,85.43-47.99-3.75-5.4-85.43,47.99h0Zm66.86,43.62c1.68-.94,1.96-3.26.63-5.17-1.33-1.91-3.75-2.69-5.43-1.74-1.68.94-1.98,3.25-.66,5.16,1.33,1.91,3.77,2.69,5.45,1.75h0Zm16.4-9.21c1.68-.94,1.96-3.26.63-5.17-1.33-1.91-3.75-2.69-5.43-1.74-1.68.94-1.98,3.25-.66,5.16,1.32,1.91,3.77,2.69,5.45,1.75h0Zm16.39-9.2c1.68-.94,1.97-3.27.65-5.17-1.32-1.91-3.76-2.68-5.44-1.74-1.67.94-1.97,3.24-.64,5.15,1.33,1.91,3.77,2.69,5.44,1.76h0Z"/><path class="cls-80" d="m1702.79,650.47l-135.77,76.26c-6.86,3.85-16.89.64-22.3-7.16l-56.65-81.63c-2.73-3.94-3.78-8.31-3.26-12.18.36-2.69,1.47-5.13,3.3-7l-4.77,4.89c-1.83,1.87-2.94,4.31-3.3,7-.51,3.86.53,8.24,3.26,12.18l56.65,81.63c5.41,7.79,15.44,11.01,22.3,7.16l135.77-76.26c.99-.55,1.86-1.23,2.61-2l4.77-4.89c-.75.77-1.62,1.44-2.61,2Z"/><path class="cls-32" d="m1630.29,649.13c1.68-.94,4.12-.17,5.44,1.74,1.33,1.91,1.04,4.23-.65,5.17-1.67.94-4.11.15-5.44-1.76-1.33-1.91-1.03-4.22.64-5.15Z"/><path class="cls-32" d="m1613.9,658.34c1.68-.94,4.1-.17,5.43,1.74,1.33,1.91,1.05,4.22-.63,5.17-1.68.94-4.13.16-5.45-1.75-1.33-1.91-1.03-4.22.66-5.16Z"/><path class="cls-32" d="m1597.5,667.55c1.68-.94,4.1-.17,5.43,1.74,1.32,1.91,1.05,4.22-.63,5.17-1.68.94-4.13.16-5.45-1.75-1.33-1.91-1.03-4.22.66-5.16Z"/><polygon class="cls-32" points="1649.99 587.57 1653.73 592.95 1531.12 661.82 1527.38 656.43 1649.99 587.57"/><polygon class="cls-32" points="1660.51 602.73 1664.25 608.11 1541.64 676.98 1537.9 671.59 1660.51 602.73"/><polygon class="cls-32" points="1620.87 582.85 1624.62 588.25 1539.19 636.23 1535.44 630.83 1620.87 582.85"/><path class="cls-16" d="m673.67,191.71c-.27,0-.54-.07-.78-.21l-19.35-11.24c-.75-.43-1-1.39-.57-2.14.43-.75,1.39-1,2.14-.57l19.35,11.24c.75.43,1,1.39.57,2.14-.29.5-.81.78-1.35.78Z"/><path class="cls-16" d="m738.07,80.17c-.27,0-.54-.07-.78-.21l-19.52-11.35c-.75-.43-1-1.39-.57-2.14.43-.75,1.39-1,2.14-.57l19.52,11.35c.75.43,1,1.39.57,2.14-.29.5-.81.78-1.35.78Z"/><path class="cls-16" d="m657.13,129.5c-.47,0-.92-.21-1.23-.6-.53-.68-.41-1.66.27-2.19,9.02-7.05,16.3-19.44,18.11-30.83.14-.85.94-1.43,1.79-1.3.85.14,1.43.94,1.3,1.79-1.95,12.3-9.52,25.18-19.27,32.8-.29.22-.62.33-.96.33Z"/><path class="cls-16" d="m594.91,131.42c-.54,0-1.06-.28-1.35-.78-.43-.75-.18-1.7.57-2.13,4.1-2.37,15.03-10.04,16.42-17.06.64-2.6,1.41-5.2,2.3-7.8,3.17-8.06-6.27-13.66-6.36-13.71-.75-.43-1-1.39-.57-2.14.43-.75,1.39-1,2.14-.57,4.11,2.39,11.02,9.12,7.73,17.5-.84,2.45-1.58,4.96-2.18,7.4-1.93,9.76-17.25,18.71-17.91,19.09-.25.14-.52.21-.78.21Z"/><path class="cls-16" d="m625.17,76.21c-2.84,0-6.01-.79-9.41-2.36-.78-.36-1.12-1.29-.76-2.08.36-.78,1.29-1.12,2.08-.76,3.64,1.68,8.81,3.21,12.82.89.94-.54,1.79-1.29,2.53-2.21,1.83-2.1,3.7-4.07,5.59-5.9,5.47-4.79,6.62-18.04,6.6-22.75,0-.86.69-1.56,1.56-1.57h0c.86,0,1.56.7,1.56,1.56,0,.75-.04,18.42-7.61,25.06-1.77,1.72-3.58,3.62-5.31,5.6-.93,1.18-2.08,2.18-3.37,2.92-1.84,1.06-3.96,1.59-6.29,1.59Z"/><path class="cls-35" d="m641.55,163.98c3.1,4.24-3.9,18.4-7.05,23.86l9.32,5.34c2.62-4.54,9.07-14.31,14.19-17.27,1.07-.62,2.09-.94,3-.85,1.76-.01,3.59-.19,5.48-.56,5.88-1.64,7.16,10.49,7.18,15.64l13.17-7.6c-.02-5.16,1.19-17.38,7.07-23.87,1.88-1.81,3.71-3.74,5.47-5.76.91-1.14,1.92-1.99,2.99-2.61,5.12-2.96,11.6-.65,14.22.87l9.27-16.09c-3.17-1.81-10.22-7.85-7.16-15.65.87-2.53,1.61-5.06,2.24-7.59,1.51-7.64,12.68-15.52,17.17-18.11l-.04-15.13c-4.49,2.59-15.67,7.62-17.22,1.74-.65-1.79-1.4-3.46-2.28-4.98-3.1-4.24,3.44-18.13,7.05-23.86l-9.33-5.32c-2.61,4.52-9.05,14.29-14.17,17.25-1.07.62-2.09.94-3,.85-1.76.01-3.59.2-5.48.56-5.88,1.64-7.16-10.48-7.18-15.64l-13.17,7.6c.02,5.16-1.19,18.72-7.08,23.88-1.88,1.82-3.69,3.74-5.45,5.76-.9,1.14-1.91,1.98-2.97,2.59-5.06,2.92-11.37.51-14.26-.83l-9.28,16.07c3.19,1.8,10.25,7.84,7.18,15.64-.87,2.53-1.63,5.07-2.25,7.59-1.51,7.64-12.68,15.52-17.16,18.11l.04,15.13c4.49-2.59,15.67-7.62,17.22-1.74.63,1.82,1.4,3.46,2.28,4.98Zm15.18-30.84c-.04-14.8,10.36-32.84,23.24-40.28,12.9-7.44,23.36-1.46,23.41,13.34.04,14.82-10.36,32.84-23.25,40.28-12.88,7.44-23.36,1.47-23.4-13.35Z"/><path class="cls-16" d="m634.5,189.4c-.27,0-.54-.07-.78-.21l-27.11-15.76c-.74-.43-1-1.39-.57-2.13,2.25-3.9,5.4-10.29,6.84-15.44.23-.83,1.1-1.31,1.93-1.08.83.23,1.32,1.1,1.08,1.93-1.36,4.86-4.13,10.72-6.38,14.81l25.78,14.98c.75.43,1,1.39.57,2.14-.29.5-.81.78-1.35.78Z"/><path class="cls-16" d="m716.28,47.75c-.27,0-.54-.07-.78-.21l-25.77-14.98c-2.5,4.11-6.31,9.58-9.95,13.22-.61.61-1.6.61-2.21,0-.61-.61-.61-1.6,0-2.21,4.11-4.1,8.38-10.68,10.26-13.92.21-.36.55-.62.95-.73.4-.11.83-.05,1.19.16l27.11,15.75c.75.43,1,1.39.57,2.14-.29.5-.81.78-1.35.78Z"/><path class="cls-16" d="m622.06,162.3c-.27,0-.54-.07-.78-.21l-27.11-15.76c-.48-.28-.78-.79-.78-1.35l-.04-15.13c0-.56.3-1.08.78-1.36.48-.28,1.08-.28,1.57,0l27.12,15.76c.75.43,1,1.39.57,2.14-.44.75-1.39,1-2.14.57l-24.76-14.39.03,11.51,26.34,15.31c.75.43,1,1.39.57,2.14-.29.5-.81.78-1.35.78Z"/><path class="cls-16" d="m634.25,105.82c-.27,0-.54-.07-.78-.21l-26.99-15.69c-.74-.43-1-1.38-.57-2.12l9.16-16.14c.2-.36.55-.63.95-.74.4-.11.83-.05,1.19.16l27.11,15.75c.75.43,1,1.39.57,2.14-.43.75-1.39,1-2.14.57l-25.75-14.96-7.61,13.42,25.65,14.91c.75.43,1,1.39.57,2.14-.29.5-.81.78-1.35.78Z"/><path class="cls-16" d="m673.29,58.36c-.27,0-.54-.07-.78-.21l-27.11-15.75c-.48-.28-.78-.8-.78-1.35,0-.56.3-1.07.78-1.35l13.17-7.6c.48-.28,1.08-.28,1.57,0l27.11,15.76c.75.43,1,1.39.57,2.14-.43.75-1.39,1-2.14.57l-26.33-15.3-10.05,5.8,24.78,14.4c.75.43,1,1.39.57,2.14-.29.5-.81.78-1.35.78Z"/></g></g></g></g></svg>