<?xml version="1.0" encoding="UTF-8"?><svg id="Layer_2" xmlns="http://www.w3.org/2000/svg" viewBox="0 0 3.17 2.99"><defs><style>.cls-1{fill:#0168a1;stroke-width:0px;}</style></defs><g id="computers_and_related_electronics"><path class="cls-1" d="M.3,1.83v-.54c0-.35.14-.68.38-.91h0s0,0,0,0c.23-.23.55-.38.91-.38s.68.14.91.38h0c.23.23.38.55.38.91v.54s.07,0,.11.02h0s.07.04.1.07c.03.03.05.06.07.1h0s.02.08.02.12v.54s0,.08-.02.12h0s-.04.07-.07.1c-.03.03-.06.05-.1.07h0s-.07.02-.11.02h-.26s-.08,0-.12-.02h0s-.07-.04-.1-.07c-.06-.06-.09-.13-.09-.22v-.54s0-.08.02-.12h0s0,0,0,0c.02-.04.04-.07.07-.1.05-.05.13-.09.21-.09v-.48c-.05-.16-.14-.3-.26-.42h0c-.19-.19-.46-.31-.75-.31s-.56.12-.75.31c-.12.12-.21.26-.26.42v.48s.07,0,.11.02h0s.07.04.1.07c.03.03.05.06.07.1h0s.02.08.02.12v.54s0,.08-.02.12h0s0,0,0,0c-.02.04-.04.07-.07.1-.03.03-.06.05-.1.07h0s-.07.02-.11.02h-.26s-.08,0-.12-.02H.19s-.07-.04-.1-.07c-.05-.06-.09-.13-.09-.22v-.54s0-.08.02-.12h0s0,0,0,0c.02-.04.04-.07.07-.1.05-.05.13-.09.21-.09H.3ZM.44,2.11h-.13s-.02,0-.02,0c0,0,0,0,0,.01h0s0,0,0,.01v.54s0,.02,0,.02c0,0,0,0,.01,0H.3s0,0,.01,0h.26s0,0,0,0h0s0,0,0,0c0,0,0,0,0-.01h0s0,0,0-.01v-.54s0,0,0,0h0s0,0,0-.01c0,0,0,0,0,0h0s0,0-.01,0h-.13ZM2.74,2.11h-.13s-.02,0-.02,0c0,0,0,0,0,.01h0s0,0,0,.01v.54s0,.02,0,.02c0,0,0,0,.01,0h0s0,0,.01,0h.26s0,0,0,0h0s0,0,0,0c0,0,0,0,0-.01h0s0,0,0-.01v-.54s0,0,0,0h0s0,0,0-.01c0,0,0,0,0,0h0s0,0-.01,0h-.13ZM2.51.87c-.05-.11-.12-.22-.21-.3h0c-.18-.18-.44-.3-.71-.3s-.53.11-.71.3c-.09.09-.16.19-.21.3.02-.02.04-.04.05-.06.22-.22.53-.36.87-.36s.65.14.87.36h0s.04.04.05.06h0Z"/></g></svg>