<?xml version="1.0" encoding="UTF-8"?><svg xmlns="http://www.w3.org/2000/svg" xmlns:xlink="http://www.w3.org/1999/xlink" viewBox="0 0 2058.93 1369.01"><defs><style>.cls-1{fill:url(#linear-gradient);}.cls-2{fill:#f6f6fb;}.cls-3{fill:#f4f4f9;}.cls-4,.cls-5{fill:#e8ecf7;}.cls-6{fill:#fff;}.cls-7,.cls-8{fill:#f1f1f6;}.cls-9{fill:#ef4e16;}.cls-10{fill:#ffad02;}.cls-11{fill:#ffd03e;}.cls-12{fill:#fd9009;}.cls-13{fill:#fc780b;}.cls-14{fill:#6b67e9;}.cls-15{fill:#b9bee4;}.cls-16{fill:#ced3f8;}.cls-17,.cls-18{fill:#dae0f5;}.cls-19{fill:#bbc0e6;}.cls-20{fill:#ccd1f6;}.cls-21,.cls-22{fill:#d1d7f3;}.cls-23{fill:#c4cae8;}.cls-24{fill:#dfe4f4;}.cls-25{fill:#423eaf;}.cls-26{fill:#362e93;}.cls-27{fill:#807cfb;}.cls-28{fill:#5652cc;}.cls-29{fill:url(#linear-gradient-6);}.cls-29,.cls-30,.cls-31,.cls-32,.cls-18,.cls-22,.cls-8,.cls-5,.cls-33,.cls-34,.cls-35,.cls-36,.cls-37,.cls-38,.cls-39,.cls-40,.cls-41,.cls-42,.cls-43,.cls-44,.cls-45,.cls-46,.cls-47,.cls-48{mix-blend-mode:multiply;}.cls-30{fill:url(#linear-gradient-8);}.cls-31{fill:url(#linear-gradient-4);}.cls-32{fill:url(#linear-gradient-2);}.cls-49{fill:url(#linear-gradient-9);}.cls-50{fill:url(#linear-gradient-3);}.cls-51{fill:url(#linear-gradient-7);}.cls-52{fill:url(#linear-gradient-5);}.cls-53{fill:url(#linear-gradient-53);}.cls-54{fill:url(#linear-gradient-51);}.cls-55{fill:url(#linear-gradient-52);}.cls-56{fill:url(#linear-gradient-50);}.cls-57{fill:url(#linear-gradient-41);}.cls-58{fill:url(#linear-gradient-40);}.cls-59{fill:url(#linear-gradient-42);}.cls-60{fill:url(#linear-gradient-44);}.cls-61{fill:url(#linear-gradient-49);}.cls-62{fill:url(#linear-gradient-47);}.cls-63{fill:url(#linear-gradient-48);}.cls-64{fill:url(#linear-gradient-22);}.cls-65{fill:url(#linear-gradient-20);}.cls-66{fill:url(#linear-gradient-21);}.cls-67{fill:url(#linear-gradient-15);}.cls-68{fill:url(#linear-gradient-19);}.cls-69{fill:url(#linear-gradient-16);}.cls-70{fill:url(#linear-gradient-17);}.cls-71{fill:url(#linear-gradient-13);}.cls-72{fill:url(#linear-gradient-11);}.cls-73{fill:url(#linear-gradient-27);}.cls-74{fill:url(#linear-gradient-24);}.cls-75{fill:url(#linear-gradient-38);}.cls-76{fill:url(#linear-gradient-34);}.cls-77{fill:url(#linear-gradient-39);}.cls-78{fill:url(#linear-gradient-25);}.cls-79{fill:url(#linear-gradient-28);}.cls-80{fill:url(#linear-gradient-33);}.cls-81{fill:url(#linear-gradient-30);}.cls-82{fill:url(#linear-gradient-32);}.cls-83{fill:url(#linear-gradient-31);}.cls-84{isolation:isolate;}.cls-34{fill:url(#linear-gradient-43);}.cls-35{fill:url(#linear-gradient-45);}.cls-36{fill:url(#linear-gradient-46);}.cls-37{fill:url(#linear-gradient-55);}.cls-38{fill:url(#linear-gradient-54);}.cls-39{fill:url(#linear-gradient-23);}.cls-40{fill:url(#linear-gradient-14);}.cls-41{fill:url(#linear-gradient-18);}.cls-42{fill:url(#linear-gradient-12);}.cls-43{fill:url(#linear-gradient-10);}.cls-44{fill:url(#linear-gradient-37);}.cls-45{fill:url(#linear-gradient-35);}.cls-46{fill:url(#linear-gradient-36);}.cls-47{fill:url(#linear-gradient-29);}.cls-48{fill:url(#linear-gradient-26);}</style><linearGradient id="linear-gradient" x1="610.29" y1="1356.39" x2="1428.33" y2="218.25" gradientUnits="userSpaceOnUse"><stop offset="0" stop-color="#fff"/><stop offset=".53" stop-color="#f9f9fa"/><stop offset="1" stop-color="#efeff3"/></linearGradient><linearGradient id="linear-gradient-2" x1="545.01" y1="838.52" x2="1794.67" y2="838.52" gradientUnits="userSpaceOnUse"><stop offset="0" stop-color="#c4c9e4"/><stop offset=".24" stop-color="#c9cee6"/><stop offset=".54" stop-color="#d9dced"/><stop offset=".88" stop-color="#f3f4f9"/><stop offset="1" stop-color="#fff"/></linearGradient><linearGradient id="linear-gradient-3" x1="563.94" y1="529.42" x2="920.62" y2="529.42" gradientUnits="userSpaceOnUse"><stop offset="0" stop-color="#c4cae8"/><stop offset=".04" stop-color="#c8cde9"/><stop offset=".34" stop-color="#e6e8f5"/><stop offset=".6" stop-color="#f8f9fc"/><stop offset=".79" stop-color="#fff"/></linearGradient><linearGradient id="linear-gradient-4" x1="79.19" y1="651.97" x2="152.21" y2="651.97" gradientTransform="translate(475.17)" gradientUnits="userSpaceOnUse"><stop offset=".43" stop-color="#d1d7f3"/><stop offset=".49" stop-color="#d7dcf4"/><stop offset=".81" stop-color="#f4f5fc"/><stop offset="1" stop-color="#fff"/></linearGradient><linearGradient id="linear-gradient-5" x1="65.51" y1="650.84" x2="128.62" y2="650.84" gradientTransform="translate(475.17)" gradientUnits="userSpaceOnUse"><stop offset="0" stop-color="#6b67e9"/><stop offset=".33" stop-color="#5a56d1"/><stop offset=".75" stop-color="#4844b8"/><stop offset="1" stop-color="#423eaf"/></linearGradient><linearGradient id="linear-gradient-6" x1="546.67" y1="626.22" x2="603.77" y2="626.22" gradientUnits="userSpaceOnUse"><stop offset=".43" stop-color="#d1d7f3"/><stop offset=".59" stop-color="#d9def5"/><stop offset=".85" stop-color="#eff1fa"/><stop offset="1" stop-color="#fff"/></linearGradient><linearGradient id="linear-gradient-7" x1="57.82" y1="619.78" x2="120.94" y2="619.78" gradientTransform="translate(475.17)" gradientUnits="userSpaceOnUse"><stop offset="0" stop-color="#fc780b"/><stop offset=".14" stop-color="#f9700d"/><stop offset=".68" stop-color="#f15713"/><stop offset="1" stop-color="#ef4e16"/></linearGradient><linearGradient id="linear-gradient-8" x1="187.72" y1="640.37" x2="260.75" y2="640.37" xlink:href="#linear-gradient-4"/><linearGradient id="linear-gradient-9" x1="174.04" y1="639.24" x2="237.16" y2="639.24" gradientTransform="translate(475.17)" gradientUnits="userSpaceOnUse"><stop offset="0" stop-color="#ced3f8"/><stop offset=".42" stop-color="#c4c9ee"/><stop offset="1" stop-color="#bbc0e6"/></linearGradient><linearGradient id="linear-gradient-10" x1="991.3" y1="1021.27" x2="1064.33" y2="1021.27" xlink:href="#linear-gradient-4"/><linearGradient id="linear-gradient-11" x1="977.63" y1="1020.13" x2="1040.74" y2="1020.13" xlink:href="#linear-gradient-9"/><linearGradient id="linear-gradient-12" x1="-96.2" y1="1084.47" x2="-23.17" y2="1084.47" xlink:href="#linear-gradient-4"/><linearGradient id="linear-gradient-13" x1="-109.87" y1="1083.34" x2="-46.76" y2="1083.34" xlink:href="#linear-gradient-9"/><linearGradient id="linear-gradient-14" x1="1369.65" y1="1215.48" x2="1619.41" y2="1215.48" gradientUnits="userSpaceOnUse"><stop offset=".45" stop-color="#c4c9e4"/><stop offset="1" stop-color="#fff"/></linearGradient><linearGradient id="linear-gradient-15" x1="1308.13" y1="1247.43" x2="1573.68" y2="1247.43" gradientUnits="userSpaceOnUse"><stop offset="0" stop-color="#fc780b"/><stop offset="1" stop-color="#ef4e16"/></linearGradient><linearGradient id="linear-gradient-16" x1="1262.83" y1="568.98" x2="1109.24" y2="154.8" gradientTransform="translate(1960.45) rotate(-180) scale(1 -1)" gradientUnits="userSpaceOnUse"><stop offset="0" stop-color="#ced2f4"/><stop offset=".11" stop-color="#d5d9f5"/><stop offset=".74" stop-color="#fff"/></linearGradient><linearGradient id="linear-gradient-17" x1="1386.03" y1="514.9" x2="1195.94" y2="304.66" gradientTransform="translate(1960.45) rotate(-180) scale(1 -1)" gradientUnits="userSpaceOnUse"><stop offset="0" stop-color="#c2c7e2"/><stop offset="1" stop-color="#ced2f4"/></linearGradient><linearGradient id="linear-gradient-18" x1="1228.64" y1="453.12" x2="1387.47" y2="453.12" gradientTransform="translate(1960.45) rotate(-180) scale(1 -1)" gradientUnits="userSpaceOnUse"><stop offset="0" stop-color="#fff"/><stop offset="1" stop-color="#dadff2"/></linearGradient><linearGradient id="linear-gradient-19" x1="1122.55" y1="101.86" x2="1198.58" y2="233.56" gradientTransform="translate(1960.45) rotate(-180) scale(1 -1)" gradientUnits="userSpaceOnUse"><stop offset=".26" stop-color="#5455c4"/><stop offset=".94" stop-color="#7a7aed"/><stop offset="1" stop-color="#7e7ef1"/></linearGradient><linearGradient id="linear-gradient-20" x1="1270.03" y1="192.31" x2="1342.32" y2="317.52" xlink:href="#linear-gradient-19"/><linearGradient id="linear-gradient-21" x1="1352.35" y1="562.45" x2="1352.35" y2="286.75" gradientTransform="translate(1960.45) rotate(-180) scale(1 -1)" gradientUnits="userSpaceOnUse"><stop offset="0" stop-color="#1e1c6b"/><stop offset=".69" stop-color="#343494"/><stop offset="1" stop-color="#4041a8"/></linearGradient><linearGradient id="linear-gradient-22" x1="1345.69" y1="-11.74" x2="1673.06" y2="555.28" gradientUnits="userSpaceOnUse"><stop offset=".55" stop-color="#5652cc"/><stop offset=".6" stop-color="#393198"/><stop offset=".6" stop-color="#362e93"/></linearGradient><linearGradient id="linear-gradient-23" x1="336.57" y1="761.17" x2="704.43" y2="761.17" gradientUnits="userSpaceOnUse"><stop offset="0" stop-color="#c4cae8"/><stop offset=".6" stop-color="#fff"/></linearGradient><linearGradient id="linear-gradient-24" x1="1091.41" y1="-14.94" x2="1589" y2="846.92" gradientUnits="userSpaceOnUse"><stop offset=".58" stop-color="#807cfb"/><stop offset=".61" stop-color="#1f196f"/></linearGradient><linearGradient id="linear-gradient-25" x1="517.96" y1="947.01" x2="1529.4" y2="947.01" gradientUnits="userSpaceOnUse"><stop offset=".56" stop-color="#5652cc"/><stop offset=".61" stop-color="#1f196f"/></linearGradient><linearGradient id="linear-gradient-26" x1="739.05" y1="621.13" x2="1008.66" y2="621.13" gradientUnits="userSpaceOnUse"><stop offset="0" stop-color="#dfe4f4"/><stop offset="1" stop-color="#fff"/></linearGradient><linearGradient id="linear-gradient-27" x1="593.76" y1="1016.87" x2="634.9" y2="1016.87" gradientUnits="userSpaceOnUse"><stop offset="0" stop-color="#c4cae8"/><stop offset=".25" stop-color="#ccd1eb"/><stop offset=".65" stop-color="#e4e7f4"/><stop offset="1" stop-color="#fff"/></linearGradient><linearGradient id="linear-gradient-28" x1="591.92" y1="1067.87" x2="632.95" y2="1067.87" xlink:href="#linear-gradient-27"/><linearGradient id="linear-gradient-29" x1="693.56" y1="1102.86" x2="737.67" y2="1102.86" gradientUnits="userSpaceOnUse"><stop offset="0" stop-color="#c4cae8"/><stop offset="1" stop-color="#dae0f5"/></linearGradient><linearGradient id="linear-gradient-30" x1="718.44" y1="1114.36" x2="808.22" y2="1114.36" xlink:href="#linear-gradient-27"/><linearGradient id="linear-gradient-31" x1="552.73" y1="1045.24" x2="576.57" y2="1045.24" xlink:href="#linear-gradient-27"/><linearGradient id="linear-gradient-32" x1="641.58" y1="1050.17" x2="690.21" y2="1050.17" xlink:href="#linear-gradient-27"/><linearGradient id="linear-gradient-33" x1="686.96" y1="1088.2" x2="749.94" y2="1088.2" gradientUnits="userSpaceOnUse"><stop offset="0" stop-color="#ef4e16"/><stop offset="1" stop-color="#fc780b"/></linearGradient><linearGradient id="linear-gradient-34" x1="667.18" y1="1117.66" x2="769.74" y2="1117.66" xlink:href="#linear-gradient-15"/><linearGradient id="linear-gradient-35" x1="450.33" y1="905.57" x2="501.13" y2="905.57" xlink:href="#linear-gradient-29"/><linearGradient id="linear-gradient-36" x1="328" y1="969.74" x2="483.08" y2="969.74" xlink:href="#linear-gradient-27"/><linearGradient id="linear-gradient-37" x1="483.37" y1="905.57" x2="571.61" y2="905.57" xlink:href="#linear-gradient-27"/><linearGradient id="linear-gradient-38" x1="348.04" y1="1002.59" x2="348.04" y2="1002.59" gradientUnits="userSpaceOnUse"><stop offset="0" stop-color="#c4cae8"/><stop offset="1" stop-color="#fff"/></linearGradient><linearGradient id="linear-gradient-39" x1="450.35" y1="879.81" x2="513.32" y2="879.81" gradientUnits="userSpaceOnUse"><stop offset="0" stop-color="#423eaf"/><stop offset="1" stop-color="#5652cc"/></linearGradient><linearGradient id="linear-gradient-40" x1="453.22" y1="909.26" x2="533.12" y2="909.26" gradientUnits="userSpaceOnUse"><stop offset="0" stop-color="#5652cc"/><stop offset="1" stop-color="#423eaf"/></linearGradient><linearGradient id="linear-gradient-41" x1="1724.65" y1="1027.34" x2="1985.67" y2="1027.34" gradientUnits="userSpaceOnUse"><stop offset="0" stop-color="#d1d7f3"/><stop offset=".28" stop-color="#d8ddf4"/><stop offset=".69" stop-color="#ebeef9"/><stop offset="1" stop-color="#fff"/></linearGradient><linearGradient id="linear-gradient-42" x1="249.34" y1="851.91" x2="366.27" y2="649.39" gradientTransform="translate(1403.63)" gradientUnits="userSpaceOnUse"><stop offset=".41" stop-color="#ced3f8"/><stop offset=".62" stop-color="#f6f6fb"/></linearGradient><linearGradient id="linear-gradient-43" x1="941.26" y1="1207.14" x2="1203.99" y2="1207.14" gradientUnits="userSpaceOnUse"><stop offset="0" stop-color="#d1d7f3"/><stop offset=".06" stop-color="#d5daf4"/><stop offset=".5" stop-color="#f3f5fc"/><stop offset=".75" stop-color="#fff"/></linearGradient><linearGradient id="linear-gradient-44" x1="1005.55" y1="1130.25" x2="1043.44" y2="1195.86" gradientUnits="userSpaceOnUse"><stop offset=".69" stop-color="#bbc0e6"/><stop offset=".85" stop-color="#acb1d8"/><stop offset="1" stop-color="#a3a9d0"/></linearGradient><linearGradient id="linear-gradient-45" x1="1013.43" y1="1103.5" x2="1051.87" y2="1103.5" gradientUnits="userSpaceOnUse"><stop offset="0" stop-color="#c4cae8"/><stop offset=".24" stop-color="#d5d9ee"/><stop offset=".73" stop-color="#f3f4fa"/><stop offset="1" stop-color="#fff"/></linearGradient><linearGradient id="linear-gradient-46" x1="934.65" y1="1058.02" x2="982.61" y2="1058.02" xlink:href="#linear-gradient-45"/><linearGradient id="linear-gradient-47" x1="958.34" y1="979.87" x2="1028.03" y2="1100.57" gradientUnits="userSpaceOnUse"><stop offset=".09" stop-color="#807cfb"/><stop offset=".28" stop-color="#726de7"/><stop offset=".65" stop-color="#4e48b5"/><stop offset=".89" stop-color="#362e93"/></linearGradient><linearGradient id="linear-gradient-48" x1="952.07" y1="1176.86" x2="958.36" y2="1176.86" gradientUnits="userSpaceOnUse"><stop offset="0" stop-color="#423eaf"/><stop offset=".37" stop-color="#312c91"/><stop offset=".76" stop-color="#241e78"/><stop offset="1" stop-color="#1f196f"/></linearGradient><linearGradient id="linear-gradient-49" x1="952.07" y1="1182.71" x2="958.36" y2="1182.71" gradientUnits="userSpaceOnUse"><stop offset="0" stop-color="#5652cc"/><stop offset=".15" stop-color="#4b46b9"/><stop offset=".52" stop-color="#332d91"/><stop offset=".82" stop-color="#241e78"/><stop offset="1" stop-color="#1f196f"/></linearGradient><linearGradient id="linear-gradient-50" x1="945.5" y1="1134.8" x2="964.37" y2="1134.8" gradientUnits="userSpaceOnUse"><stop offset="0" stop-color="#6b67e9"/><stop offset=".31" stop-color="#4d48b9"/><stop offset=".61" stop-color="#342e91"/><stop offset=".85" stop-color="#241e78"/><stop offset="1" stop-color="#1f196f"/></linearGradient><linearGradient id="linear-gradient-51" x1="958.36" y1="1147.41" x2="964.39" y2="1147.41" xlink:href="#linear-gradient-49"/><linearGradient id="linear-gradient-52" y1="1153.2" x2="964.93" y2="1153.2" xlink:href="#linear-gradient-48"/><linearGradient id="linear-gradient-53" x1="949.21" y1="1169.53" y2="1169.53" xlink:href="#linear-gradient-48"/><linearGradient id="linear-gradient-54" x1="1113.19" y1="1341.77" x2="1234.69" y2="1341.77" gradientUnits="userSpaceOnUse"><stop offset="0" stop-color="#cfd5f1"/><stop offset=".28" stop-color="#e0e4f6"/><stop offset=".72" stop-color="#f6f7fc"/><stop offset="1" stop-color="#fff"/></linearGradient><linearGradient id="linear-gradient-55" x1="260.64" y1="670.75" x2="344.17" y2="670.75" xlink:href="#linear-gradient-54"/></defs><g class="cls-84"><g id="Layer_2"><g id="Objects"><g id="Little_blocks"><path class="cls-1" d="m1521.64,1237.14c457.72-168.99,624.64-676.87,225.23-746.46-655.94-114.29-727.36-345.84-995.19-386.84-221.02-33.84-214.76,157.48-320,265-119.95,122.56-334.34,177.71-308.48,395.58,60.98,513.72,670.75,741.38,1398.44,472.72Z"/><path class="cls-5" d="m437.07,177.03l37.61,81.05c2.28,4.9,8.26,6.79,12.94,4.09l102.76-59.33c7.52-4.34,5.39-15.72-3.19-17.04l-140.38-21.72c-7.26-1.13-12.84,6.29-9.75,12.96Z"/><path class="cls-5" d="m2035.89,748.08c-30.71-17.73-80.51-17.73-111.22,0-30.71,17.73-30.71,46.48,0,64.21,30.71,17.73,80.51,17.73,111.22,0,30.71-17.73,30.71-46.48,0-64.21Zm-84.98,49.06c-16.22-9.37-16.22-24.55,0-33.91,16.22-9.37,42.51-9.37,58.73,0,16.22,9.37,16.22,24.55,0,33.91-16.22,9.37-42.51,9.37-58.73,0Z"/><path class="cls-4" d="m195.91,796.78c5.41,3.12,14.19,3.12,19.6,0,5.41-3.12,5.41-8.19,0-11.32-5.41-3.12-14.19-3.12-19.6,0-5.41,3.12-5.41,8.19,0,11.32Z"/><path class="cls-4" d="m243.87,824.47c5.41,3.12,14.19,3.12,19.6,0,5.41-3.12,5.41-8.19,0-11.32-5.41-3.12-14.19-3.12-19.6,0-5.41,3.12-5.41,8.19,0,11.32Z"/><path class="cls-4" d="m291.84,852.16c5.41,3.12,14.19,3.12,19.6,0,5.41-3.12,5.41-8.19,0-11.32-5.41-3.12-14.19-3.12-19.6,0-5.41,3.12-5.41,8.19,0,11.32Z"/><path class="cls-4" d="m359.4,868.53c-5.41-3.12-14.19-3.12-19.6,0-5.41,3.12-5.41,8.19,0,11.32,5.41,3.12,14.19,3.12,19.6,0,5.41-3.12,5.41-8.19,0-11.32Z"/><path class="cls-4" d="m147.95,824.47c5.41,3.12,14.19,3.12,19.6,0,5.41-3.12,5.41-8.19,0-11.32-5.41-3.12-14.19-3.12-19.6,0-5.41,3.12-5.41,8.19,0,11.32Z"/><path class="cls-4" d="m195.91,852.16c5.41,3.12,14.19,3.12,19.6,0s5.41-8.19,0-11.32-14.19-3.12-19.6,0c-5.41,3.12-5.41,8.19,0,11.32Z"/><path class="cls-4" d="m243.87,879.85c5.41,3.12,14.19,3.12,19.6,0,5.41-3.12,5.41-8.19,0-11.32-5.41-3.12-14.19-3.12-19.6,0-5.41,3.12-5.41,8.19,0,11.32Z"/><path class="cls-4" d="m311.44,896.23c-5.41-3.12-14.19-3.13-19.6,0-5.41,3.12-5.41,8.19,0,11.31s14.19,3.12,19.6,0c5.41-3.12,5.41-8.19,0-11.31Z"/><path class="cls-4" d="m99.98,852.16c5.41,3.12,14.19,3.12,19.6,0,5.41-3.12,5.41-8.19,0-11.32-5.41-3.12-14.19-3.12-19.6,0-5.41,3.12-5.41,8.19,0,11.32Z"/><path class="cls-4" d="m147.95,879.85c5.41,3.12,14.19,3.12,19.6,0,5.41-3.12,5.41-8.19,0-11.32-5.41-3.12-14.19-3.12-19.6,0-5.41,3.12-5.41,8.19,0,11.32Z"/><path class="cls-4" d="m195.91,907.54c5.41,3.12,14.19,3.12,19.6,0s5.41-8.19,0-11.31c-5.41-3.13-14.19-3.13-19.6,0-5.41,3.12-5.41,8.19,0,11.31Z"/><path class="cls-4" d="m263.48,923.92c-5.42-3.12-14.19-3.12-19.6,0-5.41,3.12-5.41,8.19,0,11.32,5.41,3.12,14.19,3.12,19.6,0,5.41-3.12,5.41-8.19,0-11.32Z"/><path class="cls-4" d="m52.02,879.85c5.41,3.12,14.19,3.12,19.6,0,5.41-3.12,5.41-8.19,0-11.32-5.41-3.12-14.19-3.12-19.6,0-5.41,3.12-5.41,8.19,0,11.32Z"/><path class="cls-4" d="m99.99,907.54c5.41,3.12,14.19,3.12,19.6,0,5.41-3.12,5.41-8.19,0-11.32-5.41-3.12-14.19-3.12-19.6,0-5.41,3.13-5.41,8.19,0,11.32Z"/><path class="cls-4" d="m147.95,935.24c5.41,3.12,14.19,3.12,19.6,0,5.41-3.13,5.41-8.19,0-11.32-5.41-3.12-14.19-3.12-19.6,0-5.41,3.12-5.41,8.19,0,11.32Z"/><path class="cls-4" d="m215.51,951.61c-5.41-3.12-14.19-3.12-19.6,0-5.41,3.12-5.41,8.19,0,11.32,5.41,3.12,14.19,3.12,19.6,0s5.41-8.19,0-11.32Z"/><path class="cls-4" d="m23.66,896.22c-5.41-3.12-14.19-3.12-19.6,0-5.41,3.13-5.41,8.19,0,11.32,5.41,3.12,14.19,3.12,19.6,0,5.41-3.12,5.41-8.19,0-11.32Z"/><path class="cls-4" d="m71.63,923.92c-5.41-3.12-14.19-3.12-19.6,0-5.41,3.12-5.41,8.19,0,11.32,5.41,3.12,14.19,3.12,19.6,0,5.42-3.13,5.42-8.19,0-11.32Z"/><path class="cls-4" d="m119.59,951.61c-5.41-3.12-14.19-3.12-19.6,0-5.41,3.12-5.41,8.19,0,11.32,5.41,3.12,14.19,3.12,19.6,0,5.41-3.12,5.41-8.19,0-11.32Z"/><path class="cls-4" d="m167.55,979.3c-5.41-3.12-14.19-3.12-19.6,0-5.41,3.12-5.41,8.19,0,11.32,5.42,3.12,14.19,3.12,19.6,0,5.41-3.12,5.41-8.19,0-11.32Z"/><path class="cls-6" d="m1842.64,511.08c-5.42-3.12-14.19-3.12-19.6,0-5.41,3.13-5.41,8.19,0,11.32,5.42,3.12,14.19,3.12,19.6,0,5.41-3.12,5.41-8.19,0-11.32Z"/><path class="cls-6" d="m1794.67,538.77c-5.41-3.12-14.19-3.12-19.6,0-5.41,3.12-5.41,8.19,0,11.32,5.41,3.12,14.19,3.12,19.6,0,5.41-3.13,5.41-8.19,0-11.32Z"/><path class="cls-6" d="m1746.71,566.46c-5.41-3.12-14.19-3.12-19.6,0-5.41,3.12-5.41,8.19,0,11.32,5.41,3.12,14.19,3.12,19.6,0,5.41-3.12,5.41-8.19,0-11.32Z"/><path class="cls-6" d="m1698.75,594.15c-5.41-3.12-14.19-3.12-19.6,0-5.41,3.13-5.41,8.19,0,11.32,5.42,3.12,14.19,3.12,19.6,0,5.41-3.12,5.41-8.19,0-11.32Z"/><path class="cls-6" d="m1650.79,621.85c-5.41-3.12-14.19-3.12-19.6,0-5.41,3.12-5.41,8.19,0,11.32,5.42,3.12,14.19,3.12,19.6,0,5.41-3.13,5.41-8.19,0-11.32Z"/><path class="cls-5" d="m1728.16,1188.8l43.1,24.88c6.57,3.79,5.75,10.42-1.84,14.8l-39.41,22.76c-7.59,4.38-19.06,4.85-25.63,1.06l-43.1-24.88c-6.57-3.79-5.75-10.42,1.84-14.8l39.41-22.76c7.59-4.38,19.06-4.86,25.63-1.06Z"/><path class="cls-32" d="m1794.67,566.39l-31.45-18.16c-9.38-5.41-32.39-9.84-51.16-9.84h-748.36c-18.76,0-411.66,245.81-411.66,245.81-9.38,5.42-9.38,14.27,0,19.69l572.83,330.72c4.72,2.72,10.94,4.07,17.16,4.06h14.9l403.27-232.83,16.65-9.61h217.82v-329.83Z"/><polygon class="cls-2" points="659.59 1316.43 409.48 1172.03 745.06 978.28 995.17 1122.69 659.59 1316.43"/><path class="cls-24" d="m502.28,1179.36l3.18-1.84c3.2-1.85,4.96-4.3,4.96-6.91s-1.76-5.07-4.96-6.91c-6.6-3.81-17.34-3.81-23.95,0l-3.18,1.84-2.46-1.42-10.47,6.04c-7.97,4.6-7.97,12.07,0,16.67,7.97,4.6,20.9,4.6,28.87,0l10.47-6.05-2.46-1.42Zm-19.62-11.32l3.18-1.84c4.21-2.44,11.07-2.44,15.29,0,2.04,1.18,3.17,2.75,3.16,4.42,0,1.66-1.12,3.23-3.17,4.41l-3.18,1.84-15.29-8.82Z"/><polygon class="cls-7" points="765.99 1057.03 924.45 1148.52 920.12 1151.02 761.66 1059.53 765.99 1057.03"/><polygon class="cls-7" points="685.16 1027.86 909.29 1157.27 904.96 1159.77 680.83 1030.36 685.16 1027.86"/><polygon class="cls-7" points="670 1036.61 894.14 1166.02 889.81 1168.52 665.67 1039.11 670 1036.61"/><polygon class="cls-7" points="654.85 1045.36 878.98 1174.77 874.65 1177.27 650.52 1047.86 654.85 1045.36"/><polygon class="cls-7" points="639.69 1054.11 863.83 1183.52 859.5 1186.02 635.36 1056.61 639.69 1054.11"/><polygon class="cls-7" points="624.54 1062.86 848.67 1192.27 844.34 1194.77 620.21 1065.36 624.54 1062.86"/><polygon class="cls-7" points="609.38 1071.61 833.52 1201.02 829.19 1203.52 605.05 1074.11 609.38 1071.61"/><polygon class="cls-7" points="594.23 1080.36 818.36 1209.77 814.03 1212.27 589.9 1082.86 594.23 1080.36"/><polygon class="cls-7" points="579.07 1089.11 803.21 1218.52 798.87 1221.02 574.74 1091.61 579.07 1089.11"/><polygon class="cls-7" points="563.92 1097.86 788.05 1227.27 783.72 1229.77 559.59 1100.36 563.92 1097.86"/><polygon class="cls-7" points="548.76 1106.61 772.9 1236.02 768.56 1238.52 544.43 1109.11 548.76 1106.61"/><polygon class="cls-7" points="533.61 1115.36 702.89 1213.1 698.56 1215.6 529.27 1117.86 533.61 1115.36"/><polygon class="cls-7" points="848.98 1052.03 746.14 992.65 714.21 1011.09 817.05 1070.47 848.98 1052.03"/><path class="cls-27" d="m671.97,1290.37c-.07-.49-.82-.84-1.66-.81-.2,0-3.85.12-7.11-2-3.98-2.59-7.69-8.74-2.77-23.32.5-1.49,1.05-2.87,1.62-4.14,7.86-1.66,14.69-4.36,19.16-6.93,2.71-1.56,3.43-3.77,1.83-5.64-1.41-1.65-4.34-2.56-7.46-2.32-3.22.25-10.66,2.15-16.08,13.55-8.4,1.58-17.86,1.81-26.58-.93-3-.95-4.54-1.97-4.71-3.12-.45-3.05,8.58-7.17,15.83-10.48,4.32-1.97,8.4-3.84,10.73-5.49.46-.33.46-.8-.01-1.13-.47-.32-1.27-.41-1.91-.2-7.06,2.26-21.75,6.97-36.04,5.6-3.63-.35-8.15-1.22-9.03-3.34-1.1-2.65,3.67-6.54,12.77-10.4.63-.27.81-.77.41-1.16-.4-.39-1.25-.54-1.96-.35-13.5,3.61-31.35,3.03-38.53,1.26-.78-.2-1.68.01-2.01.46-.33.45.03.97.81,1.16,6.47,1.6,20.2,2.32,32.92.38-5.86,3.29-8.47,6.43-7.38,9.06.7,1.69,3.27,3.88,11.5,4.67,9.98.96,19.93-.79,27.7-2.77-.62.28-1.23.57-1.86.85-8.64,3.94-17.57,8.02-16.99,12.02.26,1.77,2.38,3.29,6.3,4.53,8.93,2.81,18.52,2.77,27.17,1.36-.41,1-.81,2.04-1.19,3.16-4.16,12.33-2.96,20.7,3.57,24.88,4.33,2.77,9.38,2.54,9.59,2.53.84-.04,1.46-.47,1.39-.96Zm4.01-43.39c2.17-.17,3.65.59,4.3,1.35.8.93.89,2.37-1.25,3.6-3.81,2.2-9.46,4.5-15.96,6.07,3.96-7.58,9.02-10.72,12.92-11.03Z"/><polygon class="cls-19" points="995.17 1125.78 659.59 1319.53 659.59 1316.43 995.17 1122.69 995.17 1125.78"/><polygon class="cls-16" points="659.59 1319.53 409.48 1175.13 409.48 1172.03 659.59 1316.43 659.59 1319.53"/><polygon class="cls-50" points="920.62 529.43 886.86 509.93 869.24 509.93 878.05 504.85 844.28 485.35 826.66 485.35 835.47 480.27 801.71 460.77 563.94 460.77 597.7 480.27 563.94 499.76 631.47 499.76 640.28 504.85 606.52 524.35 674.05 524.35 682.86 529.43 674.06 534.51 606.53 534.51 640.3 554 631.52 559.07 563.96 559.07 597.74 578.57 563.96 598.07 749.03 598.07 782.79 578.57 774.01 573.5 820.81 573.5 820.81 573.5 820.81 573.5 820.81 573.5 854.57 554 845.79 548.93 886.86 548.93 920.62 529.43"/><rect class="cls-23" x="521.4" y="552.42" width="33.76" height="21.07"/><rect class="cls-23" x="478.84" y="527.85" width="33.76" height="21.07"/><polygon class="cls-16" points="563.96 499.78 530.19 480.28 530.19 343.01 563.96 362.5 563.96 499.78"/><polygon class="cls-19" points="563.96 499.78 597.73 480.28 597.73 343.01 563.96 362.5 563.96 499.78"/><polygon class="cls-2" points="563.96 362.5 530.19 343.01 563.96 323.51 597.73 343.01 563.96 362.5"/><polygon class="cls-16" points="606.52 524.35 572.75 504.85 572.75 367.58 606.52 387.07 606.52 524.35"/><polygon class="cls-19" points="606.52 524.35 640.29 504.85 640.29 367.58 606.52 387.07 606.52 524.35"/><polygon class="cls-2" points="606.52 387.07 572.75 367.58 606.52 348.08 640.29 367.58 606.52 387.07"/><polygon class="cls-16" points="649.07 548.92 615.3 529.42 615.3 392.15 649.07 411.64 649.07 548.92"/><polygon class="cls-19" points="649.07 548.92 682.84 529.42 682.84 392.15 649.07 411.64 649.07 548.92"/><polygon class="cls-2" points="649.07 411.64 615.3 392.15 649.07 372.65 682.84 392.15 649.07 411.64"/><polygon class="cls-16" points="521.4 524.35 487.63 504.86 487.63 367.58 521.4 387.08 521.4 524.35"/><polygon class="cls-19" points="521.4 524.35 555.16 504.86 555.16 367.58 521.4 387.08 521.4 524.35"/><polygon class="cls-2" points="521.4 387.08 487.63 367.58 521.4 348.08 555.16 367.58 521.4 387.08"/><polygon class="cls-13" points="563.96 548.92 530.19 529.42 530.19 422.91 563.96 442.41 563.96 548.92"/><polygon class="cls-9" points="563.96 548.92 597.73 529.42 597.73 422.91 563.96 442.41 563.96 548.92"/><polygon class="cls-10" points="563.96 442.41 530.19 422.91 563.96 403.42 597.73 422.91 563.96 442.41"/><polygon class="cls-8" points="539.19 417.71 588.72 417.71 563.96 403.42 539.19 417.71"/><polygon class="cls-16" points="606.52 573.49 572.75 553.99 572.75 430.28 606.52 449.78 606.52 573.49"/><polygon class="cls-19" points="606.52 573.49 640.29 553.99 640.29 430.28 606.52 449.78 606.52 573.49"/><polygon class="cls-2" points="606.52 449.78 572.75 430.28 606.52 410.79 640.29 430.28 606.52 449.78"/><polygon class="cls-16" points="478.84 548.92 445.07 529.43 445.07 422.58 478.84 442.08 478.84 548.92"/><polygon class="cls-19" points="478.84 548.92 512.6 529.43 512.6 422.58 478.84 442.08 478.84 548.92"/><polygon class="cls-2" points="478.84 442.08 445.07 422.58 478.84 403.08 512.6 422.58 478.84 442.08"/><polygon class="cls-16" points="521.4 573.49 487.63 554 487.63 478.57 521.4 498.07 521.4 573.49"/><polygon class="cls-19" points="521.4 573.49 555.17 554 555.17 478.57 521.4 498.07 521.4 573.49"/><polygon class="cls-2" points="521.4 498.07 487.63 478.57 521.4 459.08 555.17 478.57 521.4 498.07"/><polygon class="cls-8" points="496.64 473.38 546.16 473.38 521.4 459.08 496.64 473.38"/><polygon class="cls-16" points="563.96 598.07 530.19 578.57 530.19 471.73 563.96 491.22 563.96 598.07"/><polygon class="cls-19" points="563.96 598.07 597.73 578.57 597.73 471.73 563.96 491.22 563.96 598.07"/><polygon class="cls-2" points="563.96 491.22 530.19 471.73 563.96 452.23 597.73 471.73 563.96 491.22"/><path class="cls-31" d="m618.07,639.04c-6.6-3.8-15.36-5.56-23.97-5.3h-23.44v2.21c-2.56.81-4.98,1.84-7.14,3.09-12.27,7.14-12.2,18.71.15,25.84,2.13,1.23,4.49,2.24,6.99,3.04v2.31h26.14c7.79-.13,15.5-1.9,21.43-5.34,12.27-7.14,12.21-18.71-.15-25.85Z"/><path class="cls-52" d="m549.99,664.87c-6.22-3.59-9.33-8.3-9.31-13.01l.03-20.42c-.01,4.71,3.09,9.42,9.31,13.02,12.36,7.14,32.34,7.14,44.61,0,6.1-3.55,9.15-8.18,9.17-12.83l-.03,20.42c0,4.64-3.06,9.28-9.16,12.83-12.28,7.14-32.25,7.14-44.61,0Z"/><path class="cls-27" d="m550.01,644.46c-12.36-7.13-12.42-18.7-.15-25.84,12.28-7.14,32.26-7.14,44.61,0,12.36,7.14,12.42,18.71.15,25.84-12.28,7.13-32.25,7.13-44.61,0Z"/><path class="cls-29" d="m589.1,639.17c4.5-.07,8.98-.72,13.1-1.89,3.58-6.35,1.02-13.61-7.73-18.65-12.35-7.14-32.33-7.14-44.61,0-1.19.69-2.23,1.44-3.19,2.21,0,4.7,3.09,9.41,9.3,13,2.13,1.23,4.49,2.24,6.99,3.03v2.31h26.13Z"/><path class="cls-51" d="m542.3,633.81c-6.22-3.59-9.33-8.3-9.31-13.01l.03-20.41c0,4.7,3.09,9.42,9.31,13.01,12.36,7.13,32.33,7.13,44.61,0,6.1-3.55,9.15-8.19,9.17-12.83l-.03,20.41c-.01,4.65-3.07,9.28-9.16,12.83-12.28,7.13-32.25,7.13-44.61,0Z"/><path class="cls-10" d="m542.33,613.4c-12.36-7.14-12.42-18.7-.15-25.84,12.29-7.13,32.26-7.13,44.62,0,12.36,7.14,12.42,18.7.15,25.84-12.28,7.13-32.25,7.13-44.61,0Z"/><path class="cls-11" d="m570.89,605.93c-3.07,1.77-6.06,2.76-8.96,2.97-2.9.2-5.58-.4-8.03-1.82-2.42-1.4-3.47-2.93-3.16-4.59.32-1.66,1.95-3.36,4.9-5.1l4.09-2.36c3.1-1.79,6.1-2.78,9-2.96,2.89-.19,5.55.42,7.97,1.82,2.42,1.4,3.47,2.92,3.16,4.58-.31,1.66-1.94,3.35-4.89,5.1l-4.09,2.36Zm.09-5.14c1.84-1.06,2.93-1.98,3.27-2.76.33-.78-.03-1.47-1.1-2.09-1.04-.6-2.2-.81-3.49-.63-1.3.18-2.8.75-4.54,1.71l-5.41,3.12c-1.81,1.04-2.91,1.97-3.3,2.76-.39.79-.04,1.5,1.05,2.13,1.08.62,2.28.83,3.6.62,1.33-.21,2.87-.82,4.63-1.81l5.29-3.05Z"/><path class="cls-30" d="m726.6,627.45c-6.59-3.81-15.36-5.56-23.97-5.3h-23.44v2.21c-2.56.81-4.98,1.84-7.14,3.09-12.27,7.14-12.2,18.71.15,25.85,2.13,1.23,4.49,2.23,6.99,3.03v2.31h26.14c7.79-.13,15.5-1.89,21.43-5.33,12.28-7.14,12.21-18.71-.15-25.85Z"/><path class="cls-49" d="m658.52,653.27c-6.22-3.59-9.33-8.3-9.31-13.01l.03-20.42c-.01,4.71,3.09,9.42,9.31,13.02,12.36,7.13,32.33,7.13,44.61,0,6.1-3.55,9.15-8.19,9.17-12.83l-.03,20.41c-.01,4.65-3.07,9.29-9.17,12.84-12.28,7.13-32.25,7.13-44.61,0Z"/><path class="cls-7" d="m658.54,632.86c-12.36-7.14-12.42-18.7-.15-25.84,12.28-7.14,32.26-7.14,44.61,0,12.36,7.14,12.42,18.7.15,25.84-12.28,7.13-32.25,7.13-44.61,0Z"/><path class="cls-21" d="m672.81,627.31l-4.41-2.55,17.02-9.83-6.89-2.1,3.55-2.05,12.5,3.41.47.28-22.24,12.84Z"/><path class="cls-43" d="m1530.19,1008.34c-6.59-3.81-15.36-5.56-23.97-5.3h-23.44v2.21c-2.56.81-4.98,1.84-7.14,3.1-12.27,7.14-12.2,18.71.15,25.84,2.13,1.23,4.49,2.24,7,3.03v2.31h26.14c7.79-.13,15.5-1.89,21.43-5.34,12.28-7.14,12.21-18.71-.15-25.84Z"/><path class="cls-72" d="m1462.1,1034.17c-6.22-3.59-9.32-8.3-9.31-13.01l.03-20.42c0,4.71,3.09,9.42,9.31,13.01,12.36,7.14,32.33,7.14,44.61,0,6.1-3.55,9.15-8.18,9.17-12.83l-.03,20.41c-.01,4.65-3.07,9.28-9.17,12.84-12.28,7.13-32.25,7.13-44.61,0Z"/><path class="cls-7" d="m1462.13,1013.76c-12.36-7.13-12.42-18.7-.15-25.84,12.28-7.13,32.26-7.13,44.62,0,12.36,7.14,12.42,18.71.15,25.84-12.28,7.13-32.25,7.13-44.61,0Z"/><path class="cls-21" d="m1490.59,1006.19c-3.07,1.77-6.06,2.76-8.96,2.97-2.9.2-5.57-.4-8.03-1.82-2.42-1.4-3.47-2.93-3.16-4.59.32-1.66,1.95-3.36,4.9-5.1l4.09-2.36c3.1-1.79,6.1-2.78,8.99-2.96,2.9-.19,5.55.42,7.97,1.82,2.42,1.4,3.48,2.92,3.17,4.58-.31,1.66-1.94,3.36-4.89,5.1l-4.09,2.36Zm.09-5.14c1.84-1.07,2.93-1.99,3.27-2.76.33-.78-.03-1.47-1.1-2.09-1.04-.6-2.2-.81-3.5-.63-1.29.18-2.8.75-4.54,1.71l-5.4,3.12c-1.81,1.04-2.91,1.96-3.3,2.76-.39.79-.04,1.5,1.05,2.13,1.07.62,2.28.83,3.6.62,1.33-.21,2.87-.82,4.63-1.81l5.28-3.05Z"/><path class="cls-42" d="m442.69,1071.54c-6.59-3.81-15.36-5.56-23.97-5.3h-23.44v2.21c-2.56.81-4.98,1.84-7.14,3.1-12.27,7.14-12.2,18.71.15,25.84,2.13,1.23,4.49,2.24,7,3.03v2.31h26.14c7.79-.13,15.5-1.89,21.43-5.34,12.28-7.14,12.21-18.71-.15-25.84Z"/><path class="cls-71" d="m374.6,1097.37c-6.22-3.59-9.32-8.3-9.31-13.01l.03-20.42c0,4.71,3.09,9.42,9.31,13.01,12.36,7.14,32.33,7.14,44.61,0,6.1-3.55,9.15-8.18,9.16-12.83l-.03,20.41c-.01,4.65-3.07,9.28-9.17,12.84-12.28,7.13-32.25,7.13-44.61,0Z"/><path class="cls-7" d="m374.63,1076.96c-12.36-7.13-12.42-18.7-.15-25.84,12.28-7.13,32.26-7.13,44.62,0,12.36,7.14,12.42,18.71.15,25.84-12.28,7.13-32.25,7.13-44.61,0Z"/><path class="cls-21" d="m403.09,1069.39c-3.07,1.77-6.06,2.76-8.95,2.97-2.9.21-5.57-.4-8.03-1.82-2.42-1.4-3.47-2.93-3.16-4.59.32-1.66,1.95-3.36,4.9-5.1l4.09-2.36c3.1-1.79,6.1-2.78,8.99-2.96,2.9-.19,5.55.42,7.97,1.82,2.42,1.4,3.48,2.92,3.17,4.58-.31,1.66-1.94,3.36-4.89,5.1l-4.09,2.36Zm.09-5.14c1.84-1.07,2.93-1.99,3.27-2.76.33-.78-.03-1.47-1.1-2.09-1.04-.6-2.2-.81-3.5-.63-1.29.18-2.8.75-4.54,1.71l-5.4,3.12c-1.81,1.04-2.91,1.96-3.3,2.76-.39.79-.04,1.5,1.05,2.13,1.07.62,2.28.83,3.6.61,1.33-.21,2.87-.82,4.63-1.81l5.28-3.05Z"/><path class="cls-40" d="m1575.89,1155.07c-30.82-17.79-71.78-25.99-112.01-24.79h-18.03v10.34c-11.97,3.78-23.27,8.59-33.38,14.45-57.36,33.36-57.03,87.41.7,120.76,9.94,5.73,20.99,10.42,32.68,14.17v10.8h30.61c36.38-.61,72.45-8.86,100.13-24.95,57.37-33.36,57.09-87.42-.69-120.78Z"/><path class="cls-11" d="m1534.79,1140.04c-51.85-29.94-135.92-29.94-187.77,0-25.85,14.93-38.81,34.47-38.89,54.03-.08,19.68,12.89,39.37,38.89,54.38,51.85,29.94,135.92,29.94,187.77,0,25.93-14.97,38.89-34.59,38.89-54.2s-12.96-39.24-38.89-54.21Zm-178.94,103.31c-46.97-27.12-46.97-71.09,0-98.21,46.97-27.12,123.13-27.12,170.11,0,46.97,27.12,46.97,71.09,0,98.21-46.97,27.12-123.13,27.12-170.1,0Z"/><path class="cls-10" d="m1355.86,1145.14c46.97-27.12,123.13-27.12,170.11,0,46.97,27.12,46.97,71.09,0,98.21-46.97,27.12-123.13,27.12-170.1,0-46.97-27.12-46.97-71.09,0-98.21Z"/><path class="cls-11" d="m1365.67,1237.68c-19.22-11.09-30.27-25.84-31.12-41.52-.03-.66.87-1.22,2.02-1.24s2.11.5,2.15,1.17c.81,15.06,11.43,29.23,29.9,39.9,18.47,10.66,43.01,16.79,69.1,17.26,1.15.02,2.05.57,2.02,1.24-.03.66-1,1.19-2.15,1.16-27.16-.48-52.7-6.87-71.92-17.96Z"/><path class="cls-11" d="m1543.71,1193.22c-.36-.21-.59-.5-.61-.82-.81-15.07-11.42-29.24-29.89-39.9-18.47-10.66-43.01-16.8-69.1-17.26-1.15-.02-2.05-.58-2.02-1.24.03-.66.99-1.19,2.14-1.17,27.16.49,52.7,6.87,71.92,17.96,19.22,11.1,30.27,25.85,31.11,41.53.03.66-.87,1.22-2.02,1.24-.6,0-1.14-.13-1.54-.35Z"/><path class="cls-11" d="m1520.06,1241.64l-36.99-21.36c-.82-.47-.82-1.24,0-1.7.81-.47,2.13-.47,2.94,0l36.99,21.36c.81.47.81,1.23,0,1.7-.81.47-2.13.47-2.94,0Z"/><path class="cls-11" d="m1490.81,1214.11c-.38-.21-.61-.52-.61-.85,0-.66.93-1.2,2.08-1.2h18.72l24.02,13.87c.82.47.82,1.23,0,1.7-.81.47-2.13.47-2.94,0l-22.8-13.16h-16.99c-.58,0-1.1-.13-1.47-.35Z"/><path class="cls-11" d="m1502.78,1204.86c-.38-.22-.61-.52-.61-.85,0-.66.93-1.21,2.08-1.21h29.94l12.82,7.4c.81.47.81,1.23,0,1.7-.82.47-2.13.47-2.95,0l-11.6-6.7h-28.22c-.57,0-1.09-.14-1.47-.35Z"/><path class="cls-11" d="m1495.78,1248.58l-24.02-13.86v-10.81c0-.66.93-1.2,2.08-1.2s2.08.54,2.08,1.2v9.81l22.8,13.16c.81.47.81,1.23,0,1.7-.82.47-2.13.47-2.95,0Z"/><path class="cls-11" d="m1468.57,1255.5l-12.82-7.4v-17.29c0-.66.93-1.2,2.08-1.2s2.08.54,2.08,1.2v16.29l11.6,6.69c.81.47.81,1.23,0,1.7-.81.47-2.13.47-2.94,0Z"/><path class="cls-11" d="m1395.81,1169.9l-37-21.36c-.81-.47-.81-1.23,0-1.7.82-.47,2.13-.47,2.94,0l37,21.36c.81.47.81,1.23,0,1.7-.82.47-2.13.47-2.94,0Z"/><path class="cls-11" d="m1406.5,1165.43c-.38-.22-.61-.52-.61-.85v-9.81l-22.8-13.16c-.82-.47-.82-1.23,0-1.7.81-.47,2.13-.47,2.94,0l24.02,13.86v10.81c0,.67-.93,1.21-2.08,1.21-.57,0-1.09-.14-1.47-.35Z"/><path class="cls-11" d="m1422.51,1158.52c-.38-.22-.61-.52-.61-.85v-16.29l-11.6-6.69c-.81-.47-.81-1.23,0-1.7.82-.47,2.13-.47,2.95,0l12.82,7.4v17.29c0,.66-.93,1.2-2.08,1.2-.57,0-1.1-.13-1.47-.35Z"/><path class="cls-11" d="m1370.81,1176.43l-24.02-13.87c-.81-.47-.81-1.23,0-1.7.81-.47,2.13-.47,2.94,0l22.8,13.16h16.99c1.15,0,2.08.54,2.08,1.2s-.93,1.2-2.08,1.2h-18.72Z"/><path class="cls-11" d="m1347.62,1185.67l-12.82-7.4c-.82-.47-.82-1.23,0-1.7.81-.47,2.13-.47,2.94,0l11.6,6.7h28.22c1.15,0,2.08.54,2.08,1.2s-.93,1.2-2.08,1.2h-29.94Z"/><path class="cls-11" d="m1354.85,1244.47l-.47-.27c-3.83-2.21-7.43-4.59-10.71-7.06l3.31-1.46c3.17,2.39,6.65,4.68,10.35,6.82l.47.27-2.95,1.7Zm12.83,6.38l2.5-1.92c4.33,1.88,8.95,3.6,13.73,5.12l-2.01,2.1c-4.95-1.57-9.73-3.35-14.22-5.3Zm-33.34-21.87c-2.77-2.83-5.23-5.8-7.3-8.83l3.88-.88c1.99,2.93,4.37,5.8,7.04,8.53l-3.62,1.18Zm62.93,31.28l1.48-2.25c5.08,1.12,10.35,2.04,15.64,2.74l-.93,2.34c-5.49-.72-10.93-1.68-16.19-2.83Zm-75.32-49.43c-1.32-3.17-2.26-6.41-2.81-9.64l4.15-.23c.53,3.12,1.45,6.26,2.72,9.31l-4.05.57Zm108.23,53.78l.36-2.4c5.43.28,10.93.33,16.35.18l.21,2.4c-5.61.17-11.31.11-16.93-.18Zm-111.54-73.2c.22-3.25.84-6.52,1.83-9.71l4.09.42c-.96,3.08-1.55,6.24-1.77,9.38l-4.16-.1Zm145.27,72.21l-.78-2.36c5.35-.59,10.67-1.4,15.82-2.41l1.33,2.28c-5.33,1.04-10.84,1.88-16.38,2.49Zm-139.31-91.4c1.75-3.08,3.89-6.13,6.37-9.05l3.74,1.05c-2.39,2.82-4.46,5.77-6.15,8.75l-3.96-.75Zm171.33,85.14l-1.87-2.15c4.86-1.42,9.58-3.03,14.05-4.82l2.38,1.97c-4.63,1.85-9.52,3.53-14.56,5Zm-156.47-102.65c3.13-2.68,6.64-5.26,10.43-7.7l3.1,1.61c-3.66,2.35-7.05,4.85-10.07,7.44l-3.45-1.35Zm184.24,91.56l-2.82-1.77c1.23-.65,2.44-1.32,3.63-2.01,2.68-1.54,5.24-3.17,7.63-4.84l3.22,1.53c-2.48,1.73-5.14,3.42-7.9,5.01-1.23.71-2.48,1.4-3.75,2.08Zm-166.36-100.3l-2.94-1.7c4.01-2.31,8.3-4.47,12.76-6.42l2.51,1.92c-4.31,1.88-8.45,3.97-12.33,6.2Zm184.32,84c2.85-2.67,5.4-5.48,7.58-8.36l3.82.96c-2.26,2.99-4.9,5.9-7.85,8.66l-3.54-1.26Zm-158.3-95.37l-2.03-2.1c4.92-1.58,10.08-2.98,15.34-4.16l1.5,2.24c-5.07,1.13-10.06,2.49-14.81,4.02Zm171.38,78.12c1.47-3.02,2.58-6.13,3.32-9.24l4.12.32c-.76,3.22-1.91,6.44-3.43,9.57l-4.01-.65Zm-140.94-84.93l-.95-2.34c5.49-.74,11.11-1.27,16.71-1.57l.39,2.4c-5.41.29-10.84.8-16.15,1.52Zm145.34,66.26c-.01-3.14-.41-6.32-1.16-9.42l4.12-.33c.79,3.21,1.19,6.49,1.21,9.75h-4.16Zm-112.84-68l.19-2.4c5.63.15,11.29.52,16.82,1.11l-.76,2.36c-5.34-.57-10.81-.93-16.25-1.07Zm108.28,49.35c-1.49-3.01-3.37-6-5.58-8.88l3.81-.98c2.29,2.98,4.23,6.07,5.78,9.19l-4.01.66Zm-76.21-45.92l1.32-2.28c5.33,1.02,10.59,2.28,15.65,3.72l-1.85,2.16c-4.89-1.4-9.98-2.61-15.12-3.6Zm62.96,28.69c-2.86-2.65-6.09-5.22-9.59-7.65l3.2-1.54c3.63,2.5,6.97,5.17,9.93,7.92l-3.54,1.27Zm-33.73-20.32l2.35-1.98c4.63,1.83,9.1,3.87,13.28,6.06l-2.8,1.78c-4.04-2.12-8.35-4.09-12.82-5.86Z"/><path class="cls-67" d="m1534.8,1248.45c-51.85,29.94-135.92,29.94-187.77,0-26-15.01-38.96-34.7-38.89-54.38v29.9c-.08,19.67,12.89,39.37,38.89,54.37,51.85,29.94,135.92,29.94,187.77,0,25.93-14.97,38.89-34.58,38.89-54.2,0-.06,0-.12,0-.17h0v-29.72c0,19.61-12.96,39.23-38.89,54.2Z"/><polygon class="cls-12" points="1440.91 1175.41 1392.93 1221.94 1467.64 1209.67 1440.91 1175.41"/><polygon class="cls-13" points="1440.91 1175.41 1488.89 1166.54 1467.64 1209.67 1440.91 1175.41"/><polygon class="cls-11" points="1488.89 1166.54 1414.18 1178.81 1440.91 1175.41 1488.89 1166.54"/><polygon class="cls-11" points="1414.18 1178.81 1440.91 1175.41 1392.93 1221.94 1414.18 1178.81"/><path class="cls-69" d="m806.71,217.85c26.83-26.41,44.55-64.79,62.92-97.66,0,47.45,0,94.9,0,142.36.2,111.59-62.92,242.78-147.89,314.46,27.03-115.35,22.17-236.29,21.96-353.93,22.07,12.75,39.72,17.68,63-5.23Z"/><path class="cls-70" d="m658.39,303.48c39.7-12.94,63.01-47.85,85.31-80.4h0c.2,117.64,5.07,238.58-21.96,353.93h0c-79.61,20.65-148.76-93.91-148.76-143.2v-142.36c22.08,12.74,48.24,24.14,85.41,12.03Z"/><path class="cls-41" d="m572.98,326.77c48.84,30.72,108.3,194.75,158.83,197.93-2.74,17.54-6.01,34.99-10.07,52.3h0c-79.61,20.65-148.76-93.91-148.76-143.2v-107.03Z"/><path class="cls-68" d="m743.71,223.08l-14.57-8.41c22.07,12.75,39.72,17.68,63-5.23,26.84-26.41,50.98-61.08,69.35-93.95l8.13,4.7c-18.37,32.87-36.08,71.25-62.92,97.66-23.28,22.91-40.93,17.98-63,5.23Z"/><path class="cls-65" d="m643.82,295.06c39.7-12.94,63.01-47.85,85.31-80.4l14.57,8.41c-22.3,32.55-45.62,67.46-85.31,80.4-37.16,12.11-63.32.72-85.41-12.03l-8.14-4.7c22.08,12.74,41.82,20.42,78.97,8.31Z"/><path class="cls-66" d="m572.98,291.45v142.36c0,33.74,32.4,98.03,78.37,128.64-51.23-24.77-86.51-96.37-86.51-133.34v-142.36h0s8.14,4.7,8.14,4.7Z"/><path class="cls-2" d="m1626.52,575.99c0,8.25-5.84,11.63-12.99,7.5l-358.25-206.84c-7.15-4.13-12.99-14.25-12.99-22.5V54.15c0-8.25,5.84-11.62,12.99-7.5l358.25,206.84c7.15,4.12,12.99,14.25,12.99,22.5v300Z"/><path class="cls-64" d="m1624.35,247.24l-358.25-206.84c-3.54-2.04-6.76-2.24-9.11-.92h0s-.03.01-.03.01c-.03.01-.05.03-.08.04l-10.72,6.19h0c2.35-1.32,5.57-1.12,9.11.92l358.25,206.84c7.15,4.12,12.99,14.25,12.99,22.5v300c0,3.95-1.35,6.76-3.53,8.19l10.04-5.8h0c2.65-1.24,4.32-4.23,4.32-8.64v-300c0-8.25-5.84-18.38-12.99-22.5Z"/><path class="cls-27" d="m1613.52,253.49l-358.25-206.84c-7.15-4.12-12.99-.75-12.99,7.5v14.38l384.23,221.84v-14.37c0-8.25-5.84-18.38-12.99-22.5Z"/><polygon class="cls-6" points="1255.68 55.67 1265.9 61.57 1265.9 73.38 1255.68 67.48 1255.68 55.67"/><polygon class="cls-6" points="1275.7 67.23 1285.93 73.14 1285.93 84.95 1275.7 79.04 1275.7 67.23"/><polygon class="cls-6" points="1295.73 78.8 1305.96 84.7 1305.96 96.51 1295.73 90.6 1295.73 78.8"/><polygon class="cls-27" points="1603.11 347.32 1402.07 231.25 1402.07 224.09 1603.11 340.16 1603.11 347.32"/><polygon class="cls-27" points="1603.11 364.19 1402.07 248.13 1402.07 240.96 1603.11 357.03 1603.11 364.19"/><polygon class="cls-27" points="1603.11 381.07 1402.07 265 1402.07 257.84 1603.11 373.91 1603.11 381.07"/><polygon class="cls-27" points="1603.11 397.94 1363.43 259.56 1363.43 252.4 1603.11 390.78 1603.11 397.94"/><polygon class="cls-27" points="1603.11 414.82 1363.43 276.44 1363.43 269.27 1603.11 407.66 1603.11 414.82"/><polygon class="cls-27" points="1603.11 431.69 1363.43 293.31 1363.43 286.15 1603.11 424.53 1603.11 431.69"/><polygon class="cls-27" points="1603.11 448.57 1363.43 310.19 1363.43 303.02 1603.11 441.41 1603.11 448.57"/><polygon class="cls-27" points="1603.11 465.44 1363.43 327.06 1363.43 319.9 1603.11 458.28 1603.11 465.44"/><polygon class="cls-27" points="1603.11 482.32 1363.43 343.94 1363.43 336.77 1603.11 475.15 1603.11 482.32"/><polygon class="cls-27" points="1432.61 400.75 1363.43 360.81 1363.43 353.65 1432.61 393.59 1432.61 400.75"/><path class="cls-27" d="m1342.25,151.85l-3.87-4.47-43.02,81.88,3.87,4.47,43.02-81.88Zm-2.6,26.36l23.65,38.79-23.65,11.48,4.36,7.98,28.79-13.97-28.79-47.22-4.36,2.95Zm-79.15-20.56l28.79,47.22,4.36-2.95-23.65-38.78,23.65-11.48-4.36-7.98-28.79,13.98Z"/><path class="cls-18" d="m1562.12,397.77l-319.83-184.65v141.04c0,8.25,5.84,18.37,12.99,22.5l323.9,187v-136.35c0-10.83-7.68-24.12-17.06-29.54Z"/><path class="cls-39" d="m702.96,763.09h.04s-17.04-10.06-17.04-10.06h-.01c-.75-.59-2.13-1.14-4.23-1.64l-169.48-39.71c-10.56-2.47-26.21-.45-34.79,4.5l-137.57,79.42c-3.03,1.75-3.87,3.12-2.89,4.08l-.42.09,18.47,10.67h0c2.19,1.55,10.01,1.75,21.88.22l307.04-39.71c16.42-2.12,23.88-5.4,19-7.85Z"/><path class="cls-10" d="m349.92,795.06l68.78-177.27c3.56-9.19,9.01-13.51,13.21-11.2v-.02s-14.7-8.49-14.7-8.49v.02c-4.21-2.31-9.65,2.02-13.22,11.2l-68.78,177.27c-2.52,6.51-2.33,10.89,0,12.4h0s.22.13.22.13c.08.05.16.1.25.15l14.24,8.22h0c-2.33-1.51-2.53-5.9,0-12.41Z"/><path class="cls-9" d="m418.7,617.8c4.28-11.04,11.3-15.1,15.58-9l68.78,97.85c4.28,6.1.78,15.13-7.79,20.08l-137.56,79.42c-8.57,4.95-12.08-.04-7.8-11.09l68.78-177.27Z"/><polygon class="cls-6" points="431.51 727.23 421.47 733.03 421.47 744.62 431.51 738.82 431.51 727.23"/><polygon class="cls-6" points="433.46 652.03 419.53 660.08 421.47 721.28 431.51 715.48 433.46 652.03"/><path class="cls-25" d="m1537.42,868.57c0,10.83-7.68,15.26-17.06,9.84l-572.83-330.72c-9.38-5.41-17.05-18.71-17.05-29.53V86.09c0-10.83,7.67-15.26,17.05-9.84l572.83,330.72c9.38,5.41,17.06,18.71,17.06,29.54v432.06Z"/><path class="cls-74" d="m1533.24,399.54L960.41,68.82c-4.75-2.74-9.05-2.95-12.16-1.09h0s-12.25,7.09-12.25,7.09h.04c3.04-1.47,7.07-1.13,11.5,1.43l572.83,330.72c9.38,5.41,17.06,18.71,17.06,29.54v432.06c0,5.37-1.9,9.17-4.95,10.98h0l12.25-7.11h-.04c3.43-1.63,5.61-5.55,5.61-11.3v-432.06c0-10.83-7.68-24.12-17.05-29.54Z"/><polygon class="cls-2" points="1520.37 851.94 947.54 521.22 947.54 95.94 1520.37 426.66 1520.37 851.94"/><path class="cls-7" d="m1131.93,1110.17c-9.37,5.41-24.72,5.41-34.1,0l-572.83-330.72c-9.38-5.41-9.38-14.27,0-19.69l390.45-225.43c9.37-5.41,24.72-5.41,34.1,0l572.83,330.73c9.38,5.41,9.38,14.27,0,19.69l-390.45,225.42Z"/><polygon class="cls-17" points="950.14 581.23 922.13 565.06 936.14 556.97 964.15 573.14 950.14 581.23"/><polygon class="cls-17" points="997.33 608.47 969.31 592.3 983.31 584.21 1011.33 600.38 997.33 608.47"/><polygon class="cls-17" points="1044.51 635.71 1016.49 619.54 1030.5 611.45 1058.52 627.63 1044.51 635.71"/><polygon class="cls-17" points="1091.68 662.96 1063.67 646.78 1077.69 638.69 1105.7 654.87 1091.68 662.96"/><polygon class="cls-17" points="1138.87 690.19 1110.86 674.02 1124.87 665.94 1152.88 682.11 1138.87 690.19"/><polygon class="cls-17" points="1186.05 717.44 1158.04 701.26 1172.04 693.18 1200.07 709.34 1186.05 717.44"/><polygon class="cls-17" points="1233.24 744.68 1205.23 728.5 1219.23 720.41 1247.24 736.59 1233.24 744.68"/><polygon class="cls-17" points="1280.42 771.92 1252.41 755.75 1266.42 747.66 1294.43 763.83 1280.42 771.92"/><polygon class="cls-17" points="1327.6 799.16 1299.59 782.98 1313.6 774.89 1341.61 791.07 1327.6 799.16"/><polygon class="cls-17" points="1374.78 826.4 1346.77 810.22 1360.78 802.14 1388.8 818.31 1374.78 826.4"/><polygon class="cls-17" points="1421.97 853.64 1393.96 837.46 1407.97 829.38 1435.98 845.55 1421.97 853.64"/><polygon class="cls-17" points="1469.16 880.88 1441.13 864.7 1455.14 856.61 1483.16 872.79 1469.16 880.88"/><polygon class="cls-17" points="925.31 621.37 874.95 592.3 902.96 576.12 953.32 605.2 925.31 621.37"/><polygon class="cls-17" points="899.25 658.55 829.72 618.4 857.74 602.23 927.27 642.38 899.25 658.55"/><polygon class="cls-17" points="871.24 696.86 782.54 645.65 810.55 629.48 899.25 680.69 871.24 696.86"/><polygon class="cls-17" points="775.81 707.69 725.44 678.62 763.37 656.72 813.73 685.79 775.81 707.69"/><polygon class="cls-17" points="845.34 747.84 794.98 718.76 832.9 696.86 883.27 725.94 845.34 747.84"/><polygon class="cls-17" points="914.88 787.98 864.51 758.91 902.44 737.01 952.8 766.09 914.88 787.98"/><polygon class="cls-17" points="1154.62 926.4 1104.26 897.32 1142.19 875.43 1192.56 904.5 1154.62 926.4"/><polygon class="cls-17" points="1272.47 994.44 1173.68 937.4 1211.61 915.5 1310.4 972.54 1272.47 994.44"/><polygon class="cls-17" points="1085.21 886.32 934.05 799.05 971.97 777.15 1123.14 864.43 1085.21 886.32"/><polygon class="cls-17" points="985.7 656.24 944.48 632.44 972.49 616.27 1013.71 640.07 985.7 656.24"/><polygon class="cls-17" points="959.64 693.42 918.42 669.62 946.44 653.44 987.66 677.23 959.64 693.42"/><polygon class="cls-17" points="932.92 730.98 891.7 707.19 919.72 691.01 960.94 714.81 932.92 730.98"/><polygon class="cls-17" points="993.31 765.84 952.09 742.04 980.1 725.87 1021.32 749.67 993.31 765.84"/><polygon class="cls-17" points="1053.69 800.7 1012.47 776.91 1040.49 760.74 1081.7 784.53 1053.69 800.7"/><polygon class="cls-17" points="1114.08 835.57 1072.86 811.78 1100.87 795.6 1142.09 819.4 1114.08 835.57"/><polygon class="cls-17" points="1174.46 870.44 1133.25 846.64 1161.26 830.46 1202.48 854.26 1174.46 870.44"/><polygon class="cls-17" points="1234.85 905.29 1193.63 881.5 1221.64 865.32 1262.86 889.12 1234.85 905.29"/><polygon class="cls-17" points="1330.86 960.73 1254.02 916.36 1282.03 900.19 1358.87 944.55 1330.86 960.73"/><polygon class="cls-17" points="1020.03 728.28 978.81 704.48 1006.83 688.31 1048.04 712.11 1020.03 728.28"/><polygon class="cls-17" points="1080.42 763.15 1039.2 739.34 1067.21 723.17 1108.43 746.97 1080.42 763.15"/><polygon class="cls-17" points="1140.8 798.01 1099.58 774.21 1127.6 758.04 1168.82 781.83 1140.8 798.01"/><polygon class="cls-17" points="1201.19 832.87 1159.97 809.07 1187.99 792.9 1229.2 816.7 1201.19 832.87"/><polygon class="cls-17" points="1261.58 867.74 1220.35 843.94 1248.38 827.76 1289.59 851.56 1261.58 867.74"/><polygon class="cls-17" points="1376.75 934.23 1280.74 878.8 1308.76 862.62 1404.77 918.05 1376.75 934.23"/><polygon class="cls-17" points="1046.08 691.11 1004.87 667.31 1032.88 651.14 1074.09 674.93 1046.08 691.11"/><polygon class="cls-17" points="1106.47 725.97 1065.25 702.17 1093.26 686 1134.48 709.79 1106.47 725.97"/><polygon class="cls-17" points="1166.85 760.83 1125.64 737.03 1153.65 720.87 1194.87 744.66 1166.85 760.83"/><polygon class="cls-17" points="1227.24 795.69 1186.02 771.9 1214.03 755.72 1255.25 779.52 1227.24 795.69"/><polygon class="cls-17" points="1287.63 830.56 1246.41 806.76 1274.42 790.59 1315.64 814.38 1287.63 830.56"/><polygon class="cls-17" points="1348.01 865.42 1306.8 841.62 1334.81 825.46 1376.03 849.25 1348.01 865.42"/><polygon class="cls-17" points="1421.97 908.12 1367.18 876.49 1395.2 860.31 1449.98 891.95 1421.97 908.12"/><polygon class="cls-14" points="1448.7 838.21 996.03 576.86 1009.63 569.02 1462.29 830.36 1448.7 838.21"/><polygon class="cls-17" points="1085.2 920.09 854.21 786.72 710.68 869.6 941.66 1002.96 1085.2 920.09"/><path class="cls-78" d="m1522.37,884.74l-390.45,225.42c-7.45,4.3-18.65,5.18-27.65,2.64-.07-.01-5.6-2.14-6.45-2.64l-572.83-330.72c-.65-.38-1.25-.78-1.81-1.19-.03-.02-.06-.04-.09-.06h0c-.15-.11-.28-.23-.42-.34-.33-.26-.65-.52-.95-.8-.15-.13-.29-.27-.43-.41-.36-.35-.68-.71-.98-1.07-.04-.04-.08-.09-.12-.13-.02-.03-.05-.06-.07-.09-.34-.43-.62-.87-.89-1.32-.77-1.32-1.19-2.7-1.25-4.09h-.03v8.25h.06c-.05,3.6,2.24,7.21,6.97,9.95l572.83,330.72c13.67,6.78,33.2,5.45,39.01,4.18,5.81-1.27,11.03-2.73,17.13-4.06l368.41-212.7c4.75-2.74,7.08-6.36,7.02-9.97v-21.31c-.04,3.53-2.38,7.05-7.02,9.74Z"/><path class="cls-48" d="m973.49,548.15c-44.22,7.13-86.53,15.55-125.25,24.98l-109.19,63.04c37.52,33.07,175.28,57.94,242.65,57.94h26.97v-125.65l-35.18-20.31Z"/><polygon class="cls-16" points="990.08 143.53 979.85 137.62 979.85 125.81 990.08 131.72 990.08 143.53"/><polygon class="cls-16" points="1013.78 157.21 1003.55 151.3 1003.55 139.49 1013.78 145.4 1013.78 157.21"/><polygon class="cls-16" points="1037.48 170.89 1027.25 164.98 1027.25 153.17 1037.48 159.08 1037.48 170.89"/><polygon class="cls-16" points="1061.17 184.57 1050.94 178.66 1050.94 166.85 1061.17 172.76 1061.17 184.57"/><polygon class="cls-16" points="1084.87 198.25 1074.64 192.34 1074.64 180.53 1084.87 186.44 1084.87 198.25"/><polygon class="cls-16" points="1203.37 266.65 1193.14 260.75 1193.14 248.93 1203.37 254.84 1203.37 266.65"/><polygon class="cls-16" points="1227.06 280.33 1216.84 274.43 1216.84 262.61 1227.06 268.52 1227.06 280.33"/><polygon class="cls-16" points="1250.76 294.01 1240.53 288.11 1240.53 276.3 1250.76 282.2 1250.76 294.01"/><polygon class="cls-16" points="1274.46 307.69 1264.23 301.79 1264.23 289.98 1274.46 295.88 1274.46 307.69"/><polygon class="cls-16" points="1321.86 335.06 1311.63 329.15 1311.63 317.34 1321.86 323.24 1321.86 335.06"/><polygon class="cls-16" points="1369.26 362.42 1359.03 356.51 1359.03 344.7 1369.26 350.61 1369.26 362.42"/><polygon class="cls-16" points="1392.96 376.1 1382.73 370.19 1382.73 358.38 1392.96 364.28 1392.96 376.1"/><polygon class="cls-16" points="1416.65 389.78 1406.43 383.87 1406.43 372.06 1416.65 377.97 1416.65 389.78"/><polygon class="cls-16" points="1487.75 430.82 1477.52 424.91 1477.52 413.1 1487.75 419.01 1487.75 430.82"/><polygon class="cls-16" points="1511.45 444.5 1501.22 438.59 1501.22 426.78 1511.45 432.69 1511.45 444.5"/><polygon class="cls-16" points="966.38 157.64 956.15 151.73 956.15 139.92 966.38 145.83 966.38 157.64"/><polygon class="cls-16" points="990.08 171.32 979.85 165.41 979.85 153.6 990.08 159.51 990.08 171.32"/><polygon class="cls-16" points="1013.78 185 1003.55 179.09 1003.55 167.28 1013.78 173.19 1013.78 185"/><polygon class="cls-16" points="1061.17 212.36 1050.94 206.45 1050.94 194.64 1061.17 200.55 1061.17 212.36"/><polygon class="cls-16" points="1108.57 239.72 1098.34 233.81 1098.34 222 1108.57 227.91 1108.57 239.72"/><polygon class="cls-16" points="1132.27 253.4 1122.04 247.49 1122.04 235.68 1132.27 241.59 1132.27 253.4"/><polygon class="cls-16" points="1155.97 267.08 1145.74 261.17 1145.74 249.36 1155.97 255.27 1155.97 267.08"/><polygon class="cls-16" points="1250.76 321.8 1240.53 315.89 1240.53 304.08 1250.76 309.99 1250.76 321.8"/><polygon class="cls-16" points="1274.46 335.48 1264.23 329.58 1264.23 317.76 1274.46 323.67 1274.46 335.48"/><polygon class="cls-16" points="1345.56 376.52 1335.33 370.62 1335.33 358.81 1345.56 364.71 1345.56 376.52"/><polygon class="cls-16" points="1369.26 390.21 1359.03 384.3 1359.03 372.49 1369.26 378.39 1369.26 390.21"/><polygon class="cls-16" points="1392.96 403.89 1382.73 397.98 1382.73 386.17 1392.96 392.07 1392.96 403.89"/><polygon class="cls-16" points="1440.35 431.25 1430.12 425.34 1430.12 413.53 1440.35 419.43 1440.35 431.25"/><polygon class="cls-16" points="1464.05 444.93 1453.82 439.02 1453.82 427.21 1464.05 433.12 1464.05 444.93"/><polygon class="cls-16" points="1487.75 458.61 1477.52 452.7 1477.52 440.89 1487.75 446.8 1487.75 458.61"/><polygon class="cls-16" points="990.08 199.11 979.85 193.2 979.85 181.39 990.08 187.29 990.08 199.11"/><polygon class="cls-16" points="1013.78 212.79 1003.55 206.88 1003.55 195.07 1013.78 200.98 1013.78 212.79"/><polygon class="cls-16" points="1037.48 226.47 1027.25 220.56 1027.25 208.75 1037.48 214.66 1037.48 226.47"/><polygon class="cls-16" points="1061.17 240.15 1050.94 234.24 1050.94 222.43 1061.17 228.34 1061.17 240.15"/><polygon class="cls-16" points="1132.27 281.19 1122.04 275.28 1122.04 263.47 1132.27 269.38 1132.27 281.19"/><polygon class="cls-16" points="1179.67 308.55 1169.44 302.64 1169.44 290.83 1179.67 296.74 1179.67 308.55"/><polygon class="cls-16" points="1203.37 322.23 1193.14 316.32 1193.14 304.51 1203.37 310.42 1203.37 322.23"/><polygon class="cls-16" points="1227.06 335.91 1216.84 330 1216.84 318.19 1227.06 324.1 1227.06 335.91"/><polygon class="cls-16" points="1274.46 363.27 1264.23 357.36 1264.23 345.55 1274.46 351.46 1274.46 363.27"/><polygon class="cls-16" points="1298.16 376.95 1287.93 371.04 1287.93 359.23 1298.16 365.14 1298.16 376.95"/><polygon class="cls-16" points="1321.86 390.63 1311.63 384.72 1311.63 372.91 1321.86 378.82 1321.86 390.63"/><polygon class="cls-16" points="1369.26 417.99 1359.03 412.09 1359.03 400.27 1369.26 406.18 1369.26 417.99"/><polygon class="cls-16" points="1392.96 431.67 1382.73 425.77 1382.73 413.95 1392.96 419.86 1392.96 431.67"/><polygon class="cls-16" points="1487.75 486.39 1477.52 480.49 1477.52 468.67 1487.75 474.58 1487.75 486.39"/><polygon class="cls-16" points="1511.45 500.08 1501.22 494.17 1501.22 482.36 1511.45 488.26 1511.45 500.08"/><polygon class="cls-16" points="966.38 213.21 956.15 207.31 956.15 195.49 966.38 201.4 966.38 213.21"/><polygon class="cls-16" points="1013.78 240.58 1003.55 234.67 1003.55 222.86 1013.78 228.76 1013.78 240.58"/><polygon class="cls-16" points="1037.48 254.26 1027.25 248.35 1027.25 236.54 1037.48 242.44 1037.48 254.26"/><polygon class="cls-16" points="1061.17 267.94 1050.94 262.03 1050.94 250.22 1061.17 256.12 1061.17 267.94"/><polygon class="cls-16" points="1108.57 295.3 1098.34 289.39 1098.34 277.58 1108.57 283.49 1108.57 295.3"/><polygon class="cls-16" points="1132.27 308.98 1122.04 303.07 1122.04 291.26 1132.27 297.17 1132.27 308.98"/><polygon class="cls-16" points="1155.97 322.66 1145.74 316.75 1145.74 304.94 1155.97 310.85 1155.97 322.66"/><polygon class="cls-16" points="1179.67 336.34 1169.44 330.43 1169.44 318.62 1179.67 324.53 1179.67 336.34"/><polygon class="cls-16" points="1274.46 391.06 1264.23 385.15 1264.23 373.34 1274.46 379.25 1274.46 391.06"/><polygon class="cls-16" points="1298.16 404.74 1287.93 398.83 1287.93 387.02 1298.16 392.93 1298.16 404.74"/><polygon class="cls-16" points="1321.86 418.42 1311.63 412.51 1311.63 400.7 1321.86 406.61 1321.86 418.42"/><polygon class="cls-16" points="1345.56 432.1 1335.33 426.19 1335.33 414.38 1345.56 420.29 1345.56 432.1"/><polygon class="cls-16" points="1369.26 445.78 1359.03 439.87 1359.03 428.06 1369.26 433.97 1369.26 445.78"/><polygon class="cls-16" points="1392.96 459.46 1382.73 453.55 1382.73 441.74 1392.96 447.65 1392.96 459.46"/><polygon class="cls-16" points="1416.65 473.14 1406.43 467.23 1406.43 455.42 1416.65 461.33 1416.65 473.14"/><polygon class="cls-16" points="1440.35 486.82 1430.12 480.92 1430.12 469.1 1440.35 475.01 1440.35 486.82"/><polygon class="cls-16" points="1464.05 500.5 1453.82 494.59 1453.82 482.78 1464.05 488.69 1464.05 500.5"/><polygon class="cls-16" points="1487.75 514.18 1477.52 508.27 1477.52 496.46 1487.75 502.37 1487.75 514.18"/><polygon class="cls-16" points="1511.45 527.86 1501.22 521.96 1501.22 510.14 1511.45 516.05 1511.45 527.86"/><polygon class="cls-16" points="990.08 254.68 979.85 248.77 979.85 236.96 990.08 242.87 990.08 254.68"/><polygon class="cls-16" points="1013.78 268.36 1003.55 262.46 1003.55 250.64 1013.78 256.55 1013.78 268.36"/><polygon class="cls-16" points="1061.17 295.72 1050.94 289.82 1050.94 278 1061.17 283.91 1061.17 295.72"/><polygon class="cls-16" points="1084.87 309.4 1074.64 303.5 1074.64 291.68 1084.87 297.59 1084.87 309.4"/><polygon class="cls-16" points="1108.57 323.08 1098.34 317.18 1098.34 305.37 1108.57 311.27 1108.57 323.08"/><polygon class="cls-16" points="1321.86 446.21 1311.63 440.3 1311.63 428.49 1321.86 434.4 1321.86 446.21"/><polygon class="cls-16" points="1345.56 459.89 1335.33 453.98 1335.33 442.17 1345.56 448.08 1345.56 459.89"/><polygon class="cls-16" points="1369.26 473.57 1359.03 467.66 1359.03 455.85 1369.26 461.76 1369.26 473.57"/><polygon class="cls-16" points="1416.65 500.93 1406.43 495.02 1406.43 483.21 1416.65 489.12 1416.65 500.93"/><polygon class="cls-16" points="1440.35 514.61 1430.12 508.7 1430.12 496.89 1440.35 502.8 1440.35 514.61"/><polygon class="cls-16" points="1464.05 528.29 1453.82 522.38 1453.82 510.57 1464.05 516.48 1464.05 528.29"/><polygon class="cls-16" points="1487.75 541.97 1477.52 536.06 1477.52 524.25 1487.75 530.16 1487.75 541.97"/><polygon class="cls-16" points="1511.45 555.65 1501.22 549.74 1501.22 537.93 1511.45 543.84 1511.45 555.65"/><polygon class="cls-16" points="966.38 268.79 956.15 262.88 956.15 251.07 966.38 256.98 966.38 268.79"/><polygon class="cls-16" points="1013.78 296.15 1003.55 290.24 1003.55 278.43 1013.78 284.34 1013.78 296.15"/><polygon class="cls-16" points="1037.48 309.83 1027.25 303.92 1027.25 292.11 1037.48 298.02 1037.48 309.83"/><polygon class="cls-16" points="1061.17 323.51 1050.94 317.6 1050.94 305.79 1061.17 311.7 1061.17 323.51"/><polygon class="cls-16" points="1108.57 350.87 1098.34 344.96 1098.34 333.15 1108.57 339.06 1108.57 350.87"/><polygon class="cls-16" points="1132.27 364.55 1122.04 358.65 1122.04 346.83 1132.27 352.74 1132.27 364.55"/><polygon class="cls-16" points="1369.26 501.36 1359.03 495.45 1359.03 483.64 1369.26 489.55 1369.26 501.36"/><polygon class="cls-16" points="1392.96 515.04 1382.73 509.13 1382.73 497.32 1392.96 503.23 1392.96 515.04"/><polygon class="cls-16" points="1416.65 528.72 1406.43 522.81 1406.43 511 1416.65 516.91 1416.65 528.72"/><polygon class="cls-16" points="1511.45 583.44 1501.22 577.53 1501.22 565.72 1511.45 571.63 1511.45 583.44"/><polygon class="cls-16" points="966.38 296.58 956.15 290.67 956.15 278.86 966.38 284.77 966.38 296.58"/><polygon class="cls-16" points="990.08 310.26 979.85 304.35 979.85 292.54 990.08 298.45 990.08 310.26"/><polygon class="cls-16" points="1013.78 323.94 1003.55 318.03 1003.55 306.22 1013.78 312.13 1013.78 323.94"/><polygon class="cls-16" points="1037.48 337.62 1027.25 331.71 1027.25 319.9 1037.48 325.81 1037.48 337.62"/><polygon class="cls-16" points="1061.17 351.3 1050.94 345.39 1050.94 333.58 1061.17 339.49 1061.17 351.3"/><polygon class="cls-16" points="1132.27 392.34 1122.04 386.43 1122.04 374.62 1132.27 380.53 1132.27 392.34"/><polygon class="cls-16" points="1345.56 515.47 1335.33 509.56 1335.33 497.75 1345.56 503.65 1345.56 515.47"/><polygon class="cls-16" points="1369.26 529.15 1359.03 523.24 1359.03 511.43 1369.26 517.33 1369.26 529.15"/><polygon class="cls-16" points="1392.96 542.82 1382.73 536.92 1382.73 525.11 1392.96 531.01 1392.96 542.82"/><polygon class="cls-16" points="1416.65 556.51 1406.43 550.6 1406.43 538.79 1416.65 544.69 1416.65 556.51"/><polygon class="cls-16" points="1440.35 570.19 1430.12 564.28 1430.12 552.47 1440.35 558.38 1440.35 570.19"/><polygon class="cls-16" points="1487.75 597.55 1477.52 591.64 1477.52 579.83 1487.75 585.73 1487.75 597.55"/><polygon class="cls-16" points="1511.45 611.23 1501.22 605.32 1501.22 593.51 1511.45 599.42 1511.45 611.23"/><polygon class="cls-16" points="1013.78 351.73 1003.55 345.82 1003.55 334.01 1013.78 339.92 1013.78 351.73"/><polygon class="cls-16" points="1037.48 365.41 1027.25 359.5 1027.25 347.69 1037.48 353.6 1037.48 365.41"/><polygon class="cls-16" points="1061.17 379.09 1050.94 373.18 1050.94 361.37 1061.17 367.28 1061.17 379.09"/><polygon class="cls-16" points="1084.87 392.77 1074.64 386.86 1074.64 375.05 1084.87 380.96 1084.87 392.77"/><polygon class="cls-16" points="1108.57 406.45 1098.34 400.54 1098.34 388.73 1108.57 394.64 1108.57 406.45"/><polygon class="cls-16" points="1132.27 420.13 1122.04 414.22 1122.04 402.41 1132.27 408.32 1132.27 420.13"/><polygon class="cls-16" points="1345.56 543.25 1335.33 537.35 1335.33 525.53 1345.56 531.44 1345.56 543.25"/><polygon class="cls-16" points="1369.26 556.93 1359.03 551.03 1359.03 539.21 1369.26 545.12 1369.26 556.93"/><polygon class="cls-16" points="1440.35 597.98 1430.12 592.07 1430.12 580.26 1440.35 586.16 1440.35 597.98"/><polygon class="cls-16" points="1464.05 611.66 1453.82 605.75 1453.82 593.94 1464.05 599.84 1464.05 611.66"/><polygon class="cls-16" points="966.38 352.15 956.15 346.25 956.15 334.43 966.38 340.34 966.38 352.15"/><polygon class="cls-16" points="990.08 365.84 979.85 359.93 979.85 348.12 990.08 354.02 990.08 365.84"/><polygon class="cls-16" points="1013.78 379.52 1003.55 373.61 1003.55 361.8 1013.78 367.7 1013.78 379.52"/><polygon class="cls-16" points="1084.87 420.56 1074.64 414.65 1074.64 402.84 1084.87 408.75 1084.87 420.56"/><polygon class="cls-16" points="1108.57 434.24 1098.34 428.33 1098.34 416.52 1108.57 422.43 1108.57 434.24"/><polygon class="cls-16" points="1132.27 447.92 1122.04 442.01 1122.04 430.2 1132.27 436.11 1132.27 447.92"/><polygon class="cls-16" points="1345.56 571.04 1335.33 565.13 1335.33 553.32 1345.56 559.23 1345.56 571.04"/><polygon class="cls-16" points="1369.26 584.72 1359.03 578.81 1359.03 567 1369.26 572.91 1369.26 584.72"/><polygon class="cls-16" points="1392.96 598.4 1382.73 592.5 1382.73 580.68 1392.96 586.59 1392.96 598.4"/><polygon class="cls-16" points="1416.65 612.08 1406.43 606.17 1406.43 594.36 1416.65 600.27 1416.65 612.08"/><polygon class="cls-16" points="1487.75 653.12 1477.52 647.22 1477.52 635.4 1487.75 641.31 1487.75 653.12"/><polygon class="cls-16" points="1511.45 666.8 1501.22 660.9 1501.22 649.08 1511.45 654.99 1511.45 666.8"/><polygon class="cls-16" points="966.38 379.94 956.15 374.03 956.15 362.22 966.38 368.13 966.38 379.94"/><polygon class="cls-16" points="990.08 393.62 979.85 387.71 979.85 375.9 990.08 381.81 990.08 393.62"/><polygon class="cls-16" points="1013.78 407.3 1003.55 401.4 1003.55 389.58 1013.78 395.49 1013.78 407.3"/><polygon class="cls-16" points="1037.48 420.98 1027.25 415.08 1027.25 403.26 1037.48 409.17 1037.48 420.98"/><polygon class="cls-16" points="1061.17 434.66 1050.94 428.76 1050.94 416.94 1061.17 422.85 1061.17 434.66"/><polygon class="cls-16" points="1132.27 475.71 1122.04 469.8 1122.04 457.99 1132.27 463.89 1132.27 475.71"/><polygon class="cls-16" points="1345.56 598.83 1335.33 592.92 1335.33 581.11 1345.56 587.01 1345.56 598.83"/><polygon class="cls-16" points="1392.96 626.19 1382.73 620.28 1382.73 608.47 1392.96 614.38 1392.96 626.19"/><polygon class="cls-16" points="1416.65 639.87 1406.43 633.96 1406.43 622.15 1416.65 628.06 1416.65 639.87"/><polygon class="cls-16" points="1440.35 653.55 1430.12 647.64 1430.12 635.83 1440.35 641.74 1440.35 653.55"/><polygon class="cls-16" points="1464.05 667.23 1453.82 661.33 1453.82 649.51 1464.05 655.42 1464.05 667.23"/><polygon class="cls-16" points="1511.45 694.59 1501.22 688.68 1501.22 676.87 1511.45 682.78 1511.45 694.59"/><polygon class="cls-16" points="966.38 407.73 956.15 401.82 956.15 390.01 966.38 395.92 966.38 407.73"/><polygon class="cls-16" points="1037.48 448.77 1027.25 442.86 1027.25 431.05 1037.48 436.96 1037.48 448.77"/><polygon class="cls-16" points="1061.17 462.45 1050.94 456.55 1050.94 444.73 1061.17 450.64 1061.17 462.45"/><polygon class="cls-16" points="1084.87 476.13 1074.64 470.22 1074.64 458.41 1084.87 464.32 1084.87 476.13"/><polygon class="cls-16" points="1108.57 489.81 1098.34 483.9 1098.34 472.09 1108.57 478 1108.57 489.81"/><polygon class="cls-16" points="1132.27 503.49 1122.04 497.59 1122.04 485.77 1132.27 491.68 1132.27 503.49"/><polygon class="cls-16" points="1155.97 517.18 1145.74 511.27 1145.74 499.46 1155.97 505.36 1155.97 517.18"/><polygon class="cls-16" points="1321.86 612.93 1311.63 607.03 1311.63 595.22 1321.86 601.13 1321.86 612.93"/><polygon class="cls-16" points="1345.56 626.62 1335.33 620.71 1335.33 608.9 1345.56 614.8 1345.56 626.62"/><polygon class="cls-16" points="1369.26 640.3 1359.03 634.39 1359.03 622.58 1369.26 628.48 1369.26 640.3"/><polygon class="cls-16" points="1392.96 653.98 1382.73 648.07 1382.73 636.26 1392.96 642.17 1392.96 653.98"/><polygon class="cls-16" points="1416.65 667.66 1406.43 661.75 1406.43 649.94 1416.65 655.85 1416.65 667.66"/><polygon class="cls-16" points="1440.35 681.34 1430.12 675.43 1430.12 663.62 1440.35 669.52 1440.35 681.34"/><polygon class="cls-16" points="1464.05 695.02 1453.82 689.11 1453.82 677.3 1464.05 683.21 1464.05 695.02"/><polygon class="cls-16" points="1487.75 708.7 1477.52 702.8 1477.52 690.98 1487.75 696.89 1487.75 708.7"/><polygon class="cls-16" points="1511.45 722.38 1501.22 716.47 1501.22 704.66 1511.45 710.57 1511.45 722.38"/><polygon class="cls-16" points="966.38 435.52 956.15 429.61 956.15 417.8 966.38 423.71 966.38 435.52"/><polygon class="cls-16" points="990.08 449.2 979.85 443.29 979.85 431.48 990.08 437.39 990.08 449.2"/><polygon class="cls-16" points="1013.78 462.88 1003.55 456.97 1003.55 445.16 1013.78 451.07 1013.78 462.88"/><polygon class="cls-16" points="1037.48 476.56 1027.25 470.65 1027.25 458.84 1037.48 464.75 1037.48 476.56"/><polygon class="cls-16" points="1061.17 490.24 1050.94 484.33 1050.94 472.52 1061.17 478.43 1061.17 490.24"/><polygon class="cls-16" points="1179.67 558.64 1169.44 552.73 1169.44 540.92 1179.67 546.83 1179.67 558.64"/><polygon class="cls-16" points="1203.37 572.32 1193.14 566.41 1193.14 554.6 1203.37 560.51 1203.37 572.32"/><polygon class="cls-16" points="1274.46 613.36 1264.23 607.46 1264.23 595.65 1274.46 601.55 1274.46 613.36"/><polygon class="cls-16" points="1298.16 627.04 1287.93 621.14 1287.93 609.32 1298.16 615.23 1298.16 627.04"/><polygon class="cls-16" points="1321.86 640.73 1311.63 634.82 1311.63 623 1321.86 628.91 1321.86 640.73"/><polygon class="cls-16" points="1416.65 695.45 1406.43 689.54 1406.43 677.73 1416.65 683.64 1416.65 695.45"/><polygon class="cls-16" points="1440.35 709.13 1430.12 703.22 1430.12 691.41 1440.35 697.31 1440.35 709.13"/><polygon class="cls-16" points="966.38 463.31 956.15 457.4 956.15 445.59 966.38 451.5 966.38 463.31"/><polygon class="cls-16" points="990.08 476.99 979.85 471.08 979.85 459.27 990.08 465.18 990.08 476.99"/><polygon class="cls-16" points="1037.48 504.35 1027.25 498.44 1027.25 486.63 1037.48 492.54 1037.48 504.35"/><polygon class="cls-16" points="1061.17 518.03 1050.94 512.12 1050.94 500.31 1061.17 506.22 1061.17 518.03"/><polygon class="cls-16" points="1084.87 531.71 1074.64 525.8 1074.64 513.99 1084.87 519.9 1084.87 531.71"/><polygon class="cls-16" points="1108.57 545.39 1098.34 539.48 1098.34 527.67 1108.57 533.58 1108.57 545.39"/><polygon class="cls-16" points="1132.27 559.07 1122.04 553.16 1122.04 541.35 1132.27 547.26 1132.27 559.07"/><polygon class="cls-16" points="1155.97 572.75 1145.74 566.84 1145.74 555.03 1155.97 560.94 1155.97 572.75"/><polygon class="cls-16" points="1179.67 586.43 1169.44 580.52 1169.44 568.71 1179.67 574.62 1179.67 586.43"/><polygon class="cls-16" points="1203.37 600.11 1193.14 594.21 1193.14 582.39 1203.37 588.3 1203.37 600.11"/><polygon class="cls-16" points="1298.16 654.83 1287.93 648.93 1287.93 637.11 1298.16 643.02 1298.16 654.83"/><polygon class="cls-16" points="1321.86 668.51 1311.63 662.61 1311.63 650.79 1321.86 656.7 1321.86 668.51"/><polygon class="cls-16" points="1345.56 682.19 1335.33 676.29 1335.33 664.48 1345.56 670.38 1345.56 682.19"/><polygon class="cls-16" points="1369.26 695.88 1359.03 689.97 1359.03 678.16 1369.26 684.06 1369.26 695.88"/><polygon class="cls-16" points="1392.96 709.55 1382.73 703.65 1382.73 691.83 1392.96 697.74 1392.96 709.55"/><polygon class="cls-16" points="1416.65 723.24 1406.43 717.33 1406.43 705.52 1416.65 711.42 1416.65 723.24"/><polygon class="cls-16" points="1487.75 764.28 1477.52 758.37 1477.52 746.56 1487.75 752.46 1487.75 764.28"/><polygon class="cls-16" points="1511.45 777.96 1501.22 772.05 1501.22 760.24 1511.45 766.15 1511.45 777.96"/><polygon class="cls-16" points="966.38 491.1 956.15 485.19 956.15 473.38 966.38 479.28 966.38 491.1"/><polygon class="cls-16" points="990.08 504.78 979.85 498.87 979.85 487.06 990.08 492.96 990.08 504.78"/><polygon class="cls-16" points="1013.78 518.45 1003.55 512.55 1003.55 500.73 1013.78 506.64 1013.78 518.45"/><polygon class="cls-16" points="1037.48 532.14 1027.25 526.23 1027.25 514.42 1037.48 520.32 1037.48 532.14"/><polygon class="cls-16" points="1132.27 586.86 1122.04 580.95 1122.04 569.14 1132.27 575.05 1132.27 586.86"/><polygon class="cls-16" points="1155.97 600.54 1145.74 594.63 1145.74 582.82 1155.97 588.72 1155.97 600.54"/><polygon class="cls-16" points="1179.67 614.22 1169.44 608.31 1169.44 596.5 1179.67 602.4 1179.67 614.22"/><polygon class="cls-16" points="1250.76 655.26 1240.53 649.35 1240.53 637.54 1250.76 643.44 1250.76 655.26"/><polygon class="cls-16" points="1274.46 668.94 1264.23 663.03 1264.23 651.22 1274.46 657.13 1274.46 668.94"/><polygon class="cls-16" points="1298.16 682.62 1287.93 676.72 1287.93 664.9 1298.16 670.81 1298.16 682.62"/><polygon class="cls-16" points="1321.86 696.3 1311.63 690.39 1311.63 678.58 1321.86 684.49 1321.86 696.3"/><polygon class="cls-16" points="1345.56 709.98 1335.33 704.07 1335.33 692.26 1345.56 698.17 1345.56 709.98"/><polygon class="cls-16" points="1416.65 751.02 1406.43 745.12 1406.43 733.3 1416.65 739.21 1416.65 751.02"/><polygon class="cls-16" points="1440.35 764.71 1430.12 758.8 1430.12 746.99 1440.35 752.89 1440.35 764.71"/><polygon class="cls-16" points="1464.05 778.39 1453.82 772.48 1453.82 760.67 1464.05 766.57 1464.05 778.39"/><polygon class="cls-16" points="1487.75 792.06 1477.52 786.16 1477.52 774.34 1487.75 780.25 1487.75 792.06"/><polygon class="cls-16" points="1511.45 805.74 1501.22 799.84 1501.22 788.02 1511.45 793.93 1511.45 805.74"/><polygon class="cls-16" points="966.38 518.88 956.15 512.98 956.15 501.16 966.38 507.07 966.38 518.88"/><polygon class="cls-16" points="990.08 532.56 979.85 526.66 979.85 514.84 990.08 520.75 990.08 532.56"/><polygon class="cls-16" points="1037.48 559.92 1027.25 554.02 1027.25 542.2 1037.48 548.11 1037.48 559.92"/><polygon class="cls-16" points="1061.17 573.61 1050.94 567.7 1050.94 555.89 1061.17 561.79 1061.17 573.61"/><polygon class="cls-16" points="1084.87 587.29 1074.64 581.38 1074.64 569.57 1084.87 575.47 1084.87 587.29"/><polygon class="cls-16" points="1108.57 600.96 1098.34 595.06 1098.34 583.24 1108.57 589.15 1108.57 600.96"/><polygon class="cls-16" points="1155.97 628.33 1145.74 622.42 1145.74 610.61 1155.97 616.51 1155.97 628.33"/><polygon class="cls-16" points="1179.67 642.01 1169.44 636.1 1169.44 624.29 1179.67 630.19 1179.67 642.01"/><polygon class="cls-16" points="1203.37 655.69 1193.14 649.78 1193.14 637.97 1203.37 643.87 1203.37 655.69"/><polygon class="cls-16" points="1227.06 669.37 1216.84 663.46 1216.84 651.65 1227.06 657.56 1227.06 669.37"/><polygon class="cls-16" points="1250.76 683.05 1240.53 677.14 1240.53 665.33 1250.76 671.23 1250.76 683.05"/><polygon class="cls-16" points="1321.86 724.09 1311.63 718.18 1311.63 706.37 1321.86 712.28 1321.86 724.09"/><polygon class="cls-16" points="1345.56 737.77 1335.33 731.86 1335.33 720.05 1345.56 725.96 1345.56 737.77"/><polygon class="cls-16" points="1369.26 751.45 1359.03 745.55 1359.03 733.73 1369.26 739.64 1369.26 751.45"/><polygon class="cls-16" points="1392.96 765.13 1382.73 759.23 1382.73 747.41 1392.96 753.32 1392.96 765.13"/><polygon class="cls-16" points="1416.65 778.81 1406.43 772.9 1406.43 761.09 1416.65 767 1416.65 778.81"/><polygon class="cls-16" points="1487.75 819.85 1477.52 813.95 1477.52 802.13 1487.75 808.04 1487.75 819.85"/><polygon class="cls-16" points="1511.45 833.53 1501.22 827.62 1501.22 815.81 1511.45 821.72 1511.45 833.53"/><path class="cls-8" d="m1123.19,409.99c0-70.63,49.59-99.27,110.76-63.95,61.17,35.32,110.76,121.21,110.76,191.84,0,70.64-49.59,99.27-110.76,63.95-61.17-35.32-110.76-121.21-110.76-191.85Z"/><path class="cls-6" d="m1134.32,416.42c0-63.54,44.6-89.29,99.63-57.52,55.03,31.77,99.63,109.03,99.64,172.57,0,63.54-44.61,89.29-99.63,57.53-55.03-31.77-99.63-109.03-99.63-172.57Z"/><path class="cls-27" d="m1249.82,514.28c-3.2-5.54-7.2-10.29-11.54-13.77v-59.48l6,3.46v-10l-6-3.47v-9.58s6,3.46,6,3.46v-10l-6-3.47v-7.08s-8.66-5-8.66-5v7.08l-13.49-7.78v10s7.22,4.17,7.22,4.17v10l6.27,3.62v8s-17.6-10.16-17.6-10.16v10l11.33,6.54v9.91s6.27,3.62,6.27,3.62v41.16c-10.31-3.61-18.11,2.39-18.11,14.97,0,6.92,2.33,14.78,6.57,22.12,4.24,7.34,9.87,13.29,15.87,16.75,12.37,7.15,22.44,1.33,22.44-12.96,0-6.92-2.34-14.78-6.57-22.12Zm-6.13,26.05c-2.6,1.5-6.06,1.16-9.75-.97-3.68-2.12-7.15-5.78-9.75-10.29-2.6-4.51-4.04-9.33-4.03-13.58,0-8.78,6.18-12.35,13.78-7.96,3.68,2.12,7.14,5.78,9.75,10.29,2.6,4.51,4.04,9.33,4.04,13.58,0,4.25-1.44,7.42-4.04,8.92Z"/><g class="cls-33"><polygon class="cls-73" points="634.2 1010.55 595.71 1010.55 593.76 1011.68 611.59 1021.97 611.59 1021.97 613.71 1023.19 634.9 1010.96 634.2 1010.55"/><polygon class="cls-79" points="632.95 1072.69 613.71 1061.58 591.92 1074.16 630.41 1074.16 632.95 1072.69"/><path class="cls-47" d="m718.44,1109.93c2.77,0,5.47-.22,8.07-.62,1.37-3.01,4.06-5.85,8.14-8.21.96-.56,1.98-1.05,3.02-1.52-12.35-5.51-30.19-5.01-41.51,1.52-.95.55-1.8,1.13-2.6,1.73.8.62,1.64,1.21,2.6,1.77,5.95,3.44,13.86,5.33,22.27,5.33Z"/><path class="cls-81" d="m793.2,1093.02c-7.07-4.08-15.7-6.69-24.79-7.89.84,2.15,1.32,4.36,1.33,6.61v22.22c0,7.91-5.34,15.35-15.03,20.94-9.69,5.6-22.57,8.68-36.27,8.68h37.24l.06-.03c.4,0,.79.03,1.19.03,13.7,0,26.58-3.09,36.27-8.68,9.69-5.6,15.03-13.03,15.03-20.94,0-7.91-5.34-15.35-15.02-20.94Z"/><polygon class="cls-83" points="576.57 1038.95 574.52 1038.95 552.73 1051.53 576.57 1051.53 576.57 1038.95"/><path class="cls-82" d="m690.21,1055.66l-13.88-8.01,11.06-6.39-14-8.08h-22.13l.45.26-10.13,5.85,48.27,27.87h0l-9.78-5.65,10.13-5.85Zm-38.01-10.24h0,0Z"/></g><polygon class="cls-9" points="641.58 1039.29 651.72 1033.44 651.72 1055.66 641.58 1061.51 641.58 1039.29"/><polygon class="cls-12" points="586.7 1023.76 574.52 1016.73 574.52 1038.95 586.7 1045.98 586.7 1023.76"/><polygon class="cls-12" points="675.86 1075.24 613.71 1039.36 613.71 1061.58 675.86 1097.46 675.86 1075.24"/><polygon class="cls-9" points="613.71 1039.36 591.92 1051.94 591.92 1074.16 613.71 1061.58 613.71 1039.36"/><polygon class="cls-12" points="590.56 1037.69 576.57 1029.61 576.57 1051.83 590.56 1059.91 590.56 1037.69"/><polygon class="cls-12" points="552.73 1029.31 538.73 1021.23 538.73 1043.45 552.73 1051.53 552.73 1029.31"/><polygon class="cls-12" points="560.52 1008.65 550.61 1002.93 550.61 1025.15 560.52 1030.87 560.52 1008.65"/><polygon class="cls-9" points="588.52 1008.65 609.71 996.41 609.71 1018.63 588.52 1030.87 588.52 1008.65"/><polygon class="cls-9" points="637.84 1025.43 648.9 1019.04 648.9 1041.26 637.84 1047.65 637.84 1025.43"/><polygon class="cls-9" points="574.52 1016.73 552.73 1029.31 552.73 1051.53 574.52 1038.95 574.52 1016.73"/><path class="cls-11" d="m689.85,1067.16l-48.27-27.87,10.13-5.85-13.88-8.01,11.06-6.39-14-8.08-21.19,12.24-25.2-14.55,21.19-12.24-14-8.08-21.19,12.24-9.91-5.72-13.99,8.08,9.91,5.72-21.79,12.58,14,8.08,21.79-12.58,12.18,7.03-10.13,5.85,13.02,7.51-11.66,6.73,14,8.08,21.79-12.58,62.15,35.88c-13.39,11.51-11.3,27.28,6.31,37.45,9.69,5.59,22.57,8.68,36.27,8.68s26.58-3.09,36.27-8.68c9.69-5.6,15.03-13.03,15.03-20.94,0-7.91-5.34-15.35-15.02-20.94-17.61-10.16-44.93-11.37-64.86-3.64Zm60.09,24.58c0,4.86-3.28,9.42-9.23,12.86-5.95,3.44-13.86,5.33-22.28,5.33s-16.32-1.89-22.27-5.33c-12.28-7.09-12.29-18.63,0-25.72,12.28-7.09,32.27-7.09,44.55,0,5.95,3.44,9.23,8,9.23,12.86Z"/><path class="cls-80" d="m693.53,1102.85c.81-.61,1.67-1.19,2.63-1.75,12.28-7.09,32.27-7.09,44.55,0,.95.56,1.82,1.14,2.63,1.75,4.26-3.16,6.6-7.03,6.6-11.11,0-4.86-3.28-9.42-9.23-12.86-12.29-7.09-32.27-7.09-44.55,0-11.32,6.54-12.18,16.84-2.63,23.97Z"/><path class="cls-76" d="m754.71,1112.68c-9.69,5.59-22.57,8.68-36.27,8.68s-26.58-3.09-36.27-8.68c-9.7-5.6-14.66-12.9-14.94-20.24h-.05v21.62h0c.04,7.55,5.02,15.1,14.98,20.84,9.69,5.6,22.57,8.68,36.27,8.68s26.58-3.08,36.27-8.68c9.69-5.59,15.03-13.03,15.03-20.94v-22.22c0,7.91-5.34,15.35-15.03,20.94Z"/><polygon class="cls-12" points="591.92 1051.94 577.92 1043.86 577.92 1066.08 591.92 1074.16 591.92 1051.94"/><path class="cls-45" d="m459.55,918.42c5.95,3.44,13.86,5.33,22.27,5.33,6.99,0,13.62-1.32,19.08-3.74-.7-.35-1.59-.85-2.86-1.59-12.28-7.09-12.28-18.63,0-25.72.97-.56,2.03-1.03,3.09-1.49-12.35-5.54-30.24-5.06-41.58,1.49-12.29,7.09-12.29,18.63,0,25.72Z"/><path class="cls-46" d="m328,1002.46h19.82l-9.91-5.72-9.91,5.72Zm130.03-20.01l-18.31-10.57,13.88-8.01-10.13-5.85,39.61-22.87c-.42,0-.83.04-1.26.04-10.34,0-20.21-1.76-28.6-5.03l-47.11,27.2-.87.81,9.87,5.7-13.88,8.01,18.31,10.57-13.99,8.08-28.44-16.42-11.2,6.47,10.13,5.85-14,8.08,11.66,6.73-2.34,1.35h0l-11.66,6.73h38.49l14-8.08h0,0l-11.66-6.73,6.89-3.98h36.61l13.99-8.08h0,0,0Z"/><path class="cls-44" d="m556.59,884.63c-14.98-8.65-37-10.82-55.51-6.51,6.2,1.44,12,3.61,17.02,6.5,9.69,5.6,15.02,13.03,15.03,20.94,0,7.91-5.34,15.35-15.03,20.94-9.3,5.37-21.55,8.39-34.64,8.63l-.09.05h38.49l.08-.04c13.09-.24,25.34-3.26,34.64-8.63,9.69-5.59,15.02-13.03,15.03-20.94,0-7.91-5.34-15.35-15.03-20.94Z"/><polygon class="cls-75" points="348.04 1002.59 348.04 1002.59 348.04 1002.58 348.04 1002.59"/><polygon class="cls-28" points="322.77 973.69 336.77 981.77 336.77 959.55 322.77 951.47 322.77 973.69"/><polygon class="cls-28" points="314.21 983.06 328.21 991.14 328.21 968.91 314.21 960.84 314.21 983.06"/><path class="cls-28" d="m430.65,882.09h-.09v22.76l8.68-5.01c-6.2-5.33-9.04-11.57-8.59-17.75Z"/><path class="cls-77" d="m456.92,894.45c.81-.61,1.67-1.2,2.63-1.75,12.28-7.09,32.27-7.09,44.55,0,.96.56,1.82,1.14,2.63,1.75,4.26-3.16,6.6-7.03,6.6-11.11,0-4.86-3.28-9.42-9.23-12.86-12.28-7.09-32.27-7.09-44.55,0-11.33,6.54-12.18,16.85-2.63,23.97Z"/><path class="cls-58" d="m518.09,904.28c-9.69,5.59-22.57,8.67-36.27,8.68-10.34,0-20.21-1.76-28.6-5.03v22.23c8.39,3.27,18.26,5.02,28.6,5.02,13.7,0,26.58-3.08,36.27-8.68,9.69-5.6,15.02-13.03,15.03-20.94v-22.23c0,7.91-5.34,15.35-15.03,20.94Z"/><polygon class="cls-25" points="404.97 958.01 453.22 930.16 453.22 907.93 404.97 935.79 404.97 958.01"/><polygon class="cls-25" points="401.22 971.88 415.1 963.86 415.1 941.64 401.22 949.65 401.22 971.88"/><polygon class="cls-25" points="405.54 990.53 419.53 982.45 419.53 960.23 405.54 968.31 405.54 990.53"/><polygon class="cls-25" points="365.89 980.58 377.1 974.11 377.1 951.89 365.89 958.35 365.89 980.58"/><polygon class="cls-25" points="362.03 994.5 376.03 986.42 376.03 964.2 362.03 972.28 362.03 994.5"/><polygon class="cls-25" points="359.7 1009.32 373.69 1001.24 373.69 979.01 359.7 987.1 359.7 1009.32"/><polygon class="cls-25" points="328 1002.46 337.9 996.73 337.9 974.51 328 980.24 328 1002.46"/><polygon class="cls-28" points="337.9 996.73 359.7 1009.32 359.7 987.1 337.9 974.51 337.9 996.73"/><polygon class="cls-28" points="377.1 974.11 405.54 990.53 405.54 968.31 377.1 951.89 377.1 974.11"/><polygon class="cls-28" points="314 994.38 328 1002.46 328 980.24 314 972.15 314 994.38"/><path class="cls-27" d="m439.24,899.85l-88.94,51.35-13.53-7.81-14,8.08,3.83,2.21-12.39,7.16,9.7,5.6-9.91,5.72,14,8.08,9.91-5.72,21.79,12.58,14-8.08-11.66-6.73,14-8.08-10.13-5.85,11.2-6.46,28.44,16.42,13.99-8.08-18.31-10.57,13.88-8.01-10.13-5.85,48.25-27.86c8.39,3.27,18.26,5.03,28.6,5.03,13.7,0,26.58-3.09,36.27-8.68,9.69-5.6,15.02-13.03,15.03-20.94,0-7.91-5.34-15.35-15.03-20.94-20-11.55-52.54-11.54-72.54,0-17.6,10.17-19.7,25.94-6.31,37.45Zm64.85-29.37c5.95,3.44,9.23,8,9.23,12.86s-3.28,9.42-9.23,12.86c-5.95,3.43-13.86,5.33-22.28,5.33s-16.32-1.89-22.27-5.33c-12.28-7.09-12.28-18.63,0-25.72,12.28-7.09,32.27-7.09,44.55,0Z"/><rect class="cls-57" x="1724.65" y="951.52" width="261.02" height="151.62"/><polygon class="cls-2" points="1724.65 955.85 1597.09 882.2 1724.65 808.56 1852.21 882.2 1724.65 955.85"/><polygon class="cls-16" points="1724.65 1103.15 1597.09 1029.5 1597.09 882.2 1724.65 955.85 1724.65 1103.15"/><polygon class="cls-19" points="1724.65 1103.15 1852.21 1029.5 1852.21 882.2 1724.65 955.85 1724.65 1103.15"/><g class="cls-33"><polygon class="cls-17" points="1724.65 833.23 1714.45 827.34 1724.65 821.45 1734.85 827.34 1724.65 833.23"/><polygon class="cls-17" points="1748.41 846.94 1738.2 841.06 1748.41 835.17 1758.6 841.06 1748.41 846.94"/><polygon class="cls-17" points="1772.16 860.66 1761.96 854.77 1772.16 848.88 1782.36 854.77 1772.16 860.66"/><polygon class="cls-17" points="1795.92 874.38 1785.72 868.49 1795.92 862.6 1806.12 868.49 1795.92 874.38"/><polygon class="cls-17" points="1819.68 888.09 1809.47 882.2 1819.68 876.31 1829.87 882.2 1819.68 888.09"/><polygon class="cls-17" points="1700.89 846.94 1690.69 841.06 1700.89 835.17 1711.09 841.06 1700.89 846.94"/><polygon class="cls-17" points="1724.65 860.66 1714.45 854.77 1724.65 848.88 1734.85 854.77 1724.65 860.66"/><polygon class="cls-17" points="1748.41 874.38 1738.2 868.49 1748.41 862.6 1758.6 868.49 1748.41 874.38"/><polygon class="cls-17" points="1772.16 888.09 1761.96 882.2 1772.16 876.31 1782.36 882.2 1772.16 888.09"/><polygon class="cls-17" points="1795.92 901.81 1785.72 895.92 1795.92 890.03 1806.12 895.92 1795.92 901.81"/><polygon class="cls-17" points="1677.13 860.66 1666.93 854.77 1677.13 848.88 1687.33 854.77 1677.13 860.66"/><polygon class="cls-17" points="1700.89 874.38 1690.69 868.49 1700.89 862.6 1711.09 868.49 1700.89 874.38"/><polygon class="cls-17" points="1724.65 888.09 1714.45 882.2 1724.65 876.31 1734.85 882.2 1724.65 888.09"/><polygon class="cls-17" points="1748.41 901.81 1738.2 895.92 1748.41 890.03 1758.6 895.92 1748.41 901.81"/><polygon class="cls-17" points="1772.16 915.53 1761.96 909.64 1772.16 903.75 1782.36 909.64 1772.16 915.53"/><polygon class="cls-17" points="1653.38 874.38 1643.17 868.49 1653.38 862.6 1663.57 868.49 1653.38 874.38"/><polygon class="cls-17" points="1677.13 888.09 1666.93 882.2 1677.13 876.31 1687.33 882.2 1677.13 888.09"/><polygon class="cls-17" points="1700.89 901.81 1690.69 895.92 1700.89 890.03 1711.09 895.92 1700.89 901.81"/><polygon class="cls-17" points="1724.65 915.53 1714.45 909.64 1724.65 903.75 1734.85 909.64 1724.65 915.53"/><polygon class="cls-17" points="1748.41 929.24 1738.2 923.36 1748.41 917.47 1758.6 923.36 1748.41 929.24"/><polygon class="cls-17" points="1629.62 888.09 1619.42 882.2 1629.62 876.31 1639.82 882.2 1629.62 888.09"/><polygon class="cls-17" points="1653.38 901.81 1643.17 895.92 1653.38 890.03 1663.57 895.92 1653.38 901.81"/><polygon class="cls-17" points="1677.13 915.53 1666.93 909.64 1677.13 903.75 1687.33 909.64 1677.13 915.53"/><polygon class="cls-17" points="1700.89 929.24 1690.69 923.36 1700.89 917.47 1711.09 923.36 1700.89 929.24"/><polygon class="cls-17" points="1724.65 942.96 1714.45 937.07 1724.65 931.18 1734.85 937.07 1724.65 942.96"/><polygon class="cls-17" points="1618.45 919.21 1608.25 913.32 1608.25 901.54 1618.45 907.43 1618.45 919.21"/><polygon class="cls-17" points="1642.21 932.93 1632.01 927.04 1632.01 915.26 1642.21 921.15 1642.21 932.93"/><polygon class="cls-17" points="1665.97 946.64 1655.77 940.75 1655.77 928.98 1665.97 934.86 1665.97 946.64"/><polygon class="cls-17" points="1689.73 960.36 1679.52 954.47 1679.52 942.69 1689.73 948.58 1689.73 960.36"/><polygon class="cls-17" points="1713.48 974.08 1703.28 968.18 1703.28 956.41 1713.48 962.3 1713.48 974.08"/><polygon class="cls-17" points="1618.45 946.64 1608.25 940.75 1608.25 928.98 1618.45 934.86 1618.45 946.64"/><polygon class="cls-17" points="1642.21 960.36 1632.01 954.47 1632.01 942.69 1642.21 948.58 1642.21 960.36"/><polygon class="cls-17" points="1665.97 974.08 1655.77 968.18 1655.77 956.41 1665.97 962.3 1665.97 974.08"/><polygon class="cls-17" points="1689.73 987.79 1679.52 981.9 1679.52 970.12 1689.73 976.01 1689.73 987.79"/><polygon class="cls-17" points="1713.48 1001.51 1703.28 995.62 1703.28 983.84 1713.48 989.73 1713.48 1001.51"/><polygon class="cls-17" points="1618.45 974.08 1608.25 968.18 1608.25 956.41 1618.45 962.3 1618.45 974.08"/><polygon class="cls-17" points="1642.21 987.79 1632.01 981.9 1632.01 970.12 1642.21 976.01 1642.21 987.79"/><polygon class="cls-17" points="1665.97 1001.51 1655.77 995.62 1655.77 983.84 1665.97 989.73 1665.97 1001.51"/><polygon class="cls-17" points="1689.73 1015.23 1679.52 1009.34 1679.52 997.56 1689.73 1003.44 1689.73 1015.23"/><polygon class="cls-17" points="1713.48 1028.94 1703.28 1023.05 1703.28 1011.28 1713.48 1017.16 1713.48 1028.94"/><polygon class="cls-17" points="1618.45 1001.51 1608.25 995.62 1608.25 983.84 1618.45 989.73 1618.45 1001.51"/><polygon class="cls-17" points="1642.21 1015.23 1632.01 1009.34 1632.01 997.56 1642.21 1003.44 1642.21 1015.23"/><polygon class="cls-17" points="1665.97 1028.94 1655.77 1023.05 1655.77 1011.28 1665.97 1017.16 1665.97 1028.94"/><polygon class="cls-17" points="1689.73 1042.66 1679.52 1036.77 1679.52 1024.99 1689.73 1030.88 1689.73 1042.66"/><polygon class="cls-17" points="1713.48 1056.37 1703.28 1050.48 1703.28 1038.71 1713.48 1044.6 1713.48 1056.37"/><polygon class="cls-17" points="1618.45 1028.94 1608.25 1023.05 1608.25 1011.28 1618.45 1017.16 1618.45 1028.94"/><polygon class="cls-17" points="1642.21 1042.66 1632.01 1036.77 1632.01 1024.99 1642.21 1030.88 1642.21 1042.66"/><polygon class="cls-17" points="1665.97 1056.37 1655.77 1050.48 1655.77 1038.71 1665.97 1044.6 1665.97 1056.37"/><polygon class="cls-17" points="1689.73 1070.09 1679.52 1064.2 1679.52 1052.42 1689.73 1058.31 1689.73 1070.09"/><polygon class="cls-17" points="1713.48 1083.81 1703.28 1077.92 1703.28 1066.14 1713.48 1072.03 1713.48 1083.81"/><polygon class="cls-17" points="1830.84 919.21 1841.04 913.32 1841.04 901.54 1830.84 907.43 1830.84 919.21"/><polygon class="cls-17" points="1807.08 932.93 1817.28 927.04 1817.28 915.26 1807.08 921.15 1807.08 932.93"/><polygon class="cls-17" points="1783.33 946.64 1793.52 940.75 1793.52 928.98 1783.33 934.86 1783.33 946.64"/><polygon class="cls-17" points="1759.57 960.36 1769.77 954.47 1769.77 942.69 1759.57 948.58 1759.57 960.36"/><polygon class="cls-17" points="1735.81 974.08 1746.01 968.18 1746.01 956.41 1735.81 962.3 1735.81 974.08"/><polygon class="cls-17" points="1830.84 946.64 1841.04 940.75 1841.04 928.98 1830.84 934.86 1830.84 946.64"/><polygon class="cls-17" points="1807.08 960.36 1817.28 954.47 1817.28 942.69 1807.08 948.58 1807.08 960.36"/><polygon class="cls-17" points="1783.33 974.08 1793.52 968.18 1793.52 956.41 1783.33 962.3 1783.33 974.08"/><polygon class="cls-17" points="1759.57 987.79 1769.77 981.9 1769.77 970.12 1759.57 976.01 1759.57 987.79"/><polygon class="cls-17" points="1735.81 1001.51 1746.01 995.62 1746.01 983.84 1735.81 989.73 1735.81 1001.51"/><polygon class="cls-17" points="1830.84 974.08 1841.04 968.18 1841.04 956.41 1830.84 962.3 1830.84 974.08"/><polygon class="cls-17" points="1807.08 987.79 1817.28 981.9 1817.28 970.12 1807.08 976.01 1807.08 987.79"/><polygon class="cls-17" points="1783.33 1001.51 1793.52 995.62 1793.52 983.84 1783.33 989.73 1783.33 1001.51"/><polygon class="cls-17" points="1759.57 1015.23 1769.77 1009.34 1769.77 997.56 1759.57 1003.44 1759.57 1015.23"/><polygon class="cls-17" points="1735.81 1028.94 1746.01 1023.05 1746.01 1011.28 1735.81 1017.16 1735.81 1028.94"/><polygon class="cls-17" points="1830.84 1001.51 1841.04 995.62 1841.04 983.84 1830.84 989.73 1830.84 1001.51"/><polygon class="cls-17" points="1807.08 1015.23 1817.28 1009.34 1817.28 997.56 1807.08 1003.44 1807.08 1015.23"/><polygon class="cls-17" points="1783.33 1028.94 1793.52 1023.05 1793.52 1011.28 1783.33 1017.16 1783.33 1028.94"/><polygon class="cls-17" points="1759.57 1042.66 1769.77 1036.77 1769.77 1024.99 1759.57 1030.88 1759.57 1042.66"/><polygon class="cls-17" points="1735.81 1056.37 1746.01 1050.48 1746.01 1038.71 1735.81 1044.6 1735.81 1056.37"/><polygon class="cls-17" points="1830.84 1028.94 1841.04 1023.05 1841.04 1011.28 1830.84 1017.16 1830.84 1028.94"/><polygon class="cls-17" points="1807.08 1042.66 1817.28 1036.77 1817.28 1024.99 1807.08 1030.88 1807.08 1042.66"/><polygon class="cls-17" points="1783.33 1056.37 1793.52 1050.48 1793.52 1038.71 1783.33 1044.6 1783.33 1056.37"/><polygon class="cls-17" points="1759.57 1070.09 1769.77 1064.2 1769.77 1052.42 1759.57 1058.31 1759.57 1070.09"/><polygon class="cls-17" points="1735.81 1083.81 1746.01 1077.92 1746.01 1066.14 1735.81 1072.03 1735.81 1083.81"/></g><polygon class="cls-22" points="1746.01 904.49 1813.6 904.49 1852.21 882.2 1746.01 820.89 1746.01 904.49"/><path class="cls-19" d="m1846.05,849.34l-91.25,52.68c-5.01,2.89-9.56,3.16-12.84,1.27-3.28-1.9-5.32-5.97-5.32-11.76v-105.36c0-5.79,2.03-12.21,5.32-17.89,3.29-5.69,7.83-10.66,12.84-13.55l91.25-52.68c5.01-2.9,9.55-3.17,12.84-1.27,3.29,1.89,5.32,5.96,5.32,11.75v105.35c0,5.79-2.03,12.21-5.32,17.9-3.28,5.69-7.82,10.66-12.84,13.55Z"/><path class="cls-59" d="m1736.65,891.53v-105.36c0-5.79,2.03-12.21,5.32-17.89,3.29-5.69,7.83-10.66,12.84-13.55l91.25-52.68c5.01-2.9,9.55-3.17,12.84-1.27l-119.52-69.01c-3.29-1.89-7.83-1.62-12.84,1.27l-91.24,52.68c-5.01,2.9-9.55,7.87-12.84,13.55-3.29,5.69-5.32,12.11-5.32,17.9v105.36c0,5.79,2.03,9.86,5.32,11.75l119.52,69.01c-3.28-1.9-5.32-5.97-5.32-11.76Z"/><g class="cls-33"><path class="cls-17" d="m1723.08,757.38c3.29-5.69,7.83-10.66,12.84-13.55l91.24-52.68c5.01-2.9,9.55-3.17,12.84-1.27l5.73,3.31c-3.28-1.89-7.82-1.62-12.84,1.27l-91.25,52.68c-5.01,2.9-9.55,7.87-12.84,13.55-3.28,5.69-5.32,12.11-5.32,17.9v105.36c0,5.79,2.03,9.86,5.32,11.75h0l-5.73-3.31c-3.28-1.89-5.32-5.97-5.32-11.76v-105.36c0-5.78,2.03-12.2,5.32-17.89Z"/><path class="cls-17" d="m1707.74,748.52c3.28-5.69,7.82-10.66,12.84-13.55l91.24-52.68c5.01-2.9,9.55-3.17,12.84-1.27l5.73,3.31c-3.28-1.9-7.82-1.62-12.84,1.27l-91.24,52.68c-5.01,2.9-9.55,7.87-12.84,13.55-3.29,5.69-5.32,12.11-5.32,17.9v105.35c0,5.79,2.03,9.86,5.32,11.75h0l-5.73-3.31c-3.29-1.9-5.32-5.97-5.32-11.75v-105.36c0-5.79,2.03-12.2,5.32-17.9Z"/><path class="cls-17" d="m1692.4,739.66c3.28-5.69,7.82-10.66,12.84-13.55l91.25-52.68c5.01-2.89,9.55-3.17,12.84-1.27l5.73,3.31c-3.28-1.9-7.82-1.62-12.84,1.27l-91.24,52.68c-5.01,2.9-9.56,7.86-12.84,13.55-3.28,5.69-5.32,12.11-5.32,17.9v105.36c0,5.79,2.04,9.86,5.32,11.75h0l-5.73-3.31c-3.28-1.9-5.32-5.97-5.32-11.75v-105.36c0-5.79,2.04-12.2,5.32-17.9Z"/><path class="cls-17" d="m1677.06,730.8c3.28-5.69,7.82-10.66,12.84-13.55l91.25-52.68c5.01-2.9,9.55-3.17,12.84-1.27l5.73,3.31c-3.29-1.89-7.83-1.62-12.84,1.27l-91.25,52.68c-5.01,2.89-9.56,7.86-12.84,13.55-3.28,5.69-5.32,12.1-5.32,17.9v105.36c0,5.79,2.04,9.86,5.32,11.76h0l-5.73-3.31c-3.29-1.89-5.32-5.96-5.32-11.75v-105.36c0-5.79,2.03-12.2,5.32-17.9Z"/><path class="cls-17" d="m1661.72,721.95c3.28-5.69,7.82-10.66,12.84-13.56l91.24-52.68c5.01-2.9,9.55-3.17,12.84-1.27l5.73,3.31c-3.29-1.89-7.83-1.62-12.84,1.27l-91.24,52.68c-5.01,2.9-9.55,7.87-12.84,13.55-3.29,5.69-5.32,12.11-5.32,17.9v105.36c0,5.79,2.03,9.86,5.32,11.75h0l-5.73-3.31c-3.29-1.89-5.32-5.97-5.32-11.75v-105.36c0-5.79,2.03-12.21,5.32-17.9Z"/><path class="cls-17" d="m1646.37,713.09c3.29-5.69,7.83-10.66,12.84-13.56l91.25-52.68c5.01-2.9,9.55-3.17,12.84-1.27l5.73,3.31c-3.29-1.9-7.83-1.62-12.84,1.27l-91.24,52.68c-5.01,2.9-9.55,7.87-12.84,13.56-3.28,5.69-5.31,12.11-5.31,17.9v105.36c0,5.79,2.03,9.86,5.31,11.75h0l-5.73-3.31c-3.28-1.9-5.32-5.97-5.32-11.76v-105.35c0-5.79,2.03-12.21,5.32-17.9Z"/><path class="cls-17" d="m1631.03,704.23c3.29-5.69,7.83-10.66,12.84-13.55l91.24-52.68c5.01-2.9,9.55-3.17,12.84-1.27l5.73,3.31c-3.29-1.9-7.82-1.63-12.84,1.27l-91.25,52.68c-5.01,2.9-9.55,7.87-12.84,13.55-3.28,5.69-5.31,12.11-5.31,17.9v105.36c0,5.79,2.03,9.86,5.31,11.75h0l-5.73-3.31c-3.28-1.9-5.32-5.97-5.32-11.76v-105.35c0-5.79,2.03-12.21,5.32-17.9Z"/></g><path class="cls-27" d="m1183.33,102.06l-119.82-69.18c-5.62-3.24-10.17-11.94-10.17-19.43v-4.55c0-7.49,4.55-10.93,10.17-7.69l119.82,69.18c5.62,3.24,10.17,11.94,10.17,19.43v4.55c0,7.49-4.55,10.93-10.17,7.69Z"/><path class="cls-6" d="m1058.07,14.23c0-6.18,4.34-8.69,9.7-5.6,5.35,3.09,9.69,10.61,9.69,16.79s-4.34,8.69-9.69,5.6c-5.36-3.09-9.7-10.61-9.7-16.79Z"/><path class="cls-25" d="m1069.45,20.8c.95-.18,1.59-1.11,1.59-2.62,0-2.28-1.47-4.98-3.27-6.03-1.81-1.04-3.27-.03-3.27,2.25,0,1.5.64,3.18,1.59,4.45-2.76-.52-4.52,1.21-4.52,3.45.47.27,6.2,3.58,6.2,3.58,0,0,5.73,3.31,6.2,3.58,0-2.24-1.76-6-4.52-8.67Z"/><path class="cls-26" d="m1087.8,30.7c0-1.25.88-1.76,1.97-1.14,1.09.63,1.97,2.15,1.97,3.41s-.88,1.76-1.97,1.14c-1.09-.63-1.97-2.15-1.97-3.41Z"/><path class="cls-26" d="m1099.35,37.37c0-1.26.88-1.76,1.97-1.14s1.97,2.15,1.97,3.41-.88,1.76-1.97,1.14c-1.09-.63-1.97-2.15-1.97-3.41Z"/><path class="cls-26" d="m1110.9,44.03c0-1.26.88-1.76,1.97-1.14,1.09.63,1.97,2.15,1.97,3.41s-.88,1.76-1.97,1.14c-1.09-.63-1.97-2.15-1.97-3.41Z"/><path class="cls-26" d="m1122.45,50.7c0-1.25.88-1.76,1.97-1.14,1.09.63,1.97,2.15,1.97,3.41s-.88,1.76-1.97,1.14c-1.09-.63-1.97-2.15-1.97-3.41Z"/><path class="cls-26" d="m1134,57.37c0-1.26.88-1.77,1.97-1.14,1.09.63,1.97,2.15,1.97,3.41s-.88,1.76-1.97,1.14c-1.09-.63-1.97-2.15-1.97-3.41Z"/><path class="cls-26" d="m1145.55,64.04c0-1.25.88-1.76,1.97-1.14,1.09.63,1.97,2.15,1.97,3.41s-.88,1.76-1.97,1.14c-1.09-.63-1.97-2.15-1.97-3.41Z"/><path class="cls-26" d="m1157.1,70.71c0-1.25.88-1.76,1.97-1.14s1.97,2.15,1.97,3.41-.88,1.76-1.97,1.14c-1.09-.63-1.97-2.15-1.97-3.41Z"/><path class="cls-26" d="m1168.65,77.38c0-1.26.88-1.77,1.97-1.14,1.09.63,1.97,2.15,1.97,3.41s-.88,1.76-1.97,1.14c-1.09-.63-1.97-2.15-1.97-3.41Z"/><path class="cls-10" d="m1183.33,150.4l-119.82-69.18c-5.62-3.24-10.17-11.94-10.17-19.43v-4.55c0-7.49,4.55-10.93,10.17-7.69l119.82,69.18c5.62,3.24,10.17,11.94,10.17,19.43v4.55c0,7.49-4.55,10.93-10.17,7.69Z"/><path class="cls-26" d="m1087.8,79.76c0-1.25.88-1.76,1.97-1.14,1.09.63,1.97,2.15,1.97,3.41s-.88,1.76-1.97,1.14c-1.09-.63-1.97-2.15-1.97-3.41Z"/><path class="cls-26" d="m1099.35,86.43c0-1.26.88-1.76,1.97-1.14s1.97,2.15,1.97,3.41-.88,1.76-1.97,1.14c-1.09-.63-1.97-2.15-1.97-3.41Z"/><path class="cls-26" d="m1110.9,93.1c0-1.26.88-1.76,1.97-1.14,1.09.63,1.97,2.15,1.97,3.41s-.88,1.76-1.97,1.14c-1.09-.63-1.97-2.15-1.97-3.41Z"/><path class="cls-26" d="m1122.45,99.76c0-1.25.88-1.76,1.97-1.14,1.09.63,1.97,2.15,1.97,3.41s-.88,1.76-1.97,1.14c-1.09-.63-1.97-2.15-1.97-3.41Z"/><path class="cls-26" d="m1134,106.43c0-1.26.88-1.77,1.97-1.14,1.09.63,1.97,2.15,1.97,3.41s-.88,1.76-1.97,1.14c-1.09-.63-1.97-2.15-1.97-3.41Z"/><path class="cls-26" d="m1145.55,113.1c0-1.25.88-1.76,1.97-1.14,1.09.63,1.97,2.15,1.97,3.41s-.88,1.76-1.97,1.14c-1.09-.63-1.97-2.15-1.97-3.41Z"/><path class="cls-26" d="m1157.1,119.77c0-1.25.88-1.76,1.97-1.14s1.97,2.15,1.97,3.41-.88,1.76-1.97,1.14c-1.09-.63-1.97-2.15-1.97-3.41Z"/><path class="cls-34" d="m1154.55,1162.78h-102.68c-52.32,0-79.62,9.83-71.52,23.44-39.41,4.46-51.3,17.26-25.15,32.36,27.32,15.78,87.43,29.04,144.55,32.92l104.23-60.18-49.44-28.55Z"/><path class="cls-16" d="m896.21,1057.12v59.28c0,37.63,26.42,83.38,59,102.19,32.59,18.81,59,3.56,59-34.06v-59.28l-118-68.13Z"/><path class="cls-2" d="m993.67,1137.11c-2.91-5.05-2.91-10.5,0-12.19,2.91-1.68,7.64,1.04,10.55,6.09,2.91,5.04,2.91,10.5,0,12.18-2.91,1.68-7.64-1.04-10.55-6.09Z"/><rect class="cls-19" x="993.77" y="1132.36" width="10.37" height="3.4" transform="translate(-433.11 651.15) rotate(-29.99)"/><path class="cls-2" d="m916.75,1080.51c-2.91-5.04-7.64-7.77-10.55-6.09-2.91,1.68-2.91,7.14,0,12.19,2.91,5.04,7.64,7.77,10.55,6.09,2.91-1.68,2.91-7.13,0-12.18Z"/><rect class="cls-19" x="906.29" y="1081.86" width="10.36" height="3.4" transform="translate(-419.58 600.67) rotate(-29.99)"/><polygon class="cls-4" points="933.87 1035.37 1051.87 1103.5 1014.21 1125.25 896.21 1057.12 933.87 1035.37"/><path class="cls-60" d="m1014.21,1125.25v59.28c0,18.71-6.53,31.87-17.1,38.08l36.66-21.17h-.03c11.17-5.96,18.13-19.35,18.13-38.65v-59.28l-37.66,21.74Z"/><polygon class="cls-35" points="1013.43 1108.99 1042.36 1108.99 1051.87 1103.5 1042.36 1098 1013.43 1098 1013.43 1108.99"/><polygon class="cls-36" points="934.65 1063.51 982.61 1063.51 973.09 1058.02 963.58 1052.53 934.65 1052.53 934.65 1063.51"/><path class="cls-28" d="m968.9,995.07c-24.6-14.2-44.54-2.69-44.54,25.71v36.78l10.29,5.94v-36.78c0-21.8,15.36-30.67,34.24-19.77,18.88,10.9,34.25,37.51,34.25,59.32v36.77l10.29,5.94v-36.77c0-28.4-19.94-62.94-44.54-77.14Z"/><path class="cls-14" d="m937.24,992.06h0s.04-.03.07-.04l-.07.04Z"/><path class="cls-26" d="m934.65,1026.73v36.78l10.29-5.95v-36.78c0-7.88,2.03-14.04,5.48-18.22-9.48,1.57-15.77,10.21-15.77,24.16Z"/><path class="cls-62" d="m979.19,989.13c-12.25-7.08-23.35-7.76-31.4-3.16h0s-.07.03-.07.03c-.01,0-.03.01-.04.02l-10.18,5.88c8.05-4.59,19.15-3.91,31.4,3.17,24.6,14.2,44.54,48.74,44.54,77.14v36.77l10.3-5.94v-36.77c0-28.4-19.94-62.94-44.54-77.14Z"/><polygon class="cls-63" points="952.07 1182.71 958.36 1179.07 958.36 1171.01 952.07 1174.64 952.07 1182.71"/><polygon class="cls-61" points="955.21 1184.52 958.36 1186.34 958.36 1179.07 952.07 1182.71 955.21 1184.52"/><path class="cls-56" d="m955.21,1125.46c-5.36-3.1-9.71-.59-9.71,5.61,0,4.92,2.75,10.68,6.57,14.39l12.3-7.1c-1.3-5.17-4.89-10.43-9.16-12.9Z"/><path class="cls-54" d="m964.39,1145.61l-6.04,3.49c2.83.51,5.07-.78,6.04-3.49Z"/><path class="cls-55" d="m958.36,1149.09l6.04-3.49c.34-.94.53-2.05.53-3.33s-.22-2.59-.56-3.92l-12.3,7.1v22.58l6.29-3.63v-15.32Z"/><path class="cls-53" d="m952.07,1168.04c-1.58-.91-2.86-.18-2.86,1.65s1.28,4.03,2.86,4.95l6.29-3.63v-6.6l-6.29,3.63Z"/><polygon class="cls-38" points="1187.52 1314.53 1113.19 1314.53 1159.66 1342.18 1113.19 1369.01 1187.52 1369.01 1234.69 1341.78 1187.52 1314.53"/><polygon class="cls-15" points="1113.19 1369.01 1159.66 1342.18 1159.66 1287.7 1113.19 1314.53 1113.19 1369.01"/><polygon class="cls-20" points="1113.19 1369.01 1066.72 1342.18 1066.72 1287.7 1113.19 1314.53 1113.19 1369.01"/><polygon class="cls-3" points="1113.19 1314.53 1066.72 1287.7 1113.19 1260.89 1159.66 1287.7 1113.19 1314.53"/><polygon class="cls-37" points="311.74 652.02 260.64 652.02 292.58 671.04 260.64 689.48 311.74 689.48 344.17 670.76 311.74 652.02"/><polygon class="cls-15" points="260.64 689.48 292.58 671.04 292.58 633.58 260.64 652.02 260.64 689.48"/><polygon class="cls-20" points="260.64 689.48 228.69 671.04 228.69 633.58 260.64 652.02 260.64 689.48"/><polygon class="cls-3" points="260.64 652.02 228.69 633.58 260.64 615.15 292.58 633.58 260.64 652.02"/></g></g></g></g></svg>