<?xml version="1.0" encoding="UTF-8"?><svg id="Layer_2" xmlns="http://www.w3.org/2000/svg" viewBox="0 0 2.46 3.12"><defs><style>.cls-1{fill:#0168a1;stroke-width:0px;}</style></defs><g id="social_media"><path class="cls-1" d="M.33,1.23h.02v-.36c0-.24.1-.46.26-.62h0c.16-.16.37-.26.61-.26s.46.1.62.26c.16.16.26.38.26.62v.36h.02c.09,0,.18.04.24.1.06.06.1.14.1.24v1.22c0,.09-.04.18-.1.24h-.01c-.06.06-.14.1-.23.1H.33c-.09,0-.17-.04-.23-.1-.06-.06-.1-.14-.1-.24v-1.22c0-.09.04-.18.1-.24H.1c.06-.06.14-.1.23-.1H.33ZM1.23,2.22h0s.08-.02.11-.05.05-.07.05-.12-.02-.09-.05-.12c-.03-.03-.07-.05-.12-.05s-.09.02-.12.05c-.03.03-.05.07-.05.12s.02.09.05.12c.03.03.07.05.11.05h0ZM1.31,2.38v.17s-.04.08-.08.08-.08-.04-.08-.08v-.17c-.06-.01-.11-.04-.15-.09-.06-.06-.1-.14-.1-.24s.04-.17.1-.23c.06-.06.14-.1.23-.1s.17.04.23.1c.06.06.1.14.1.23s-.04.18-.1.24c-.04.04-.09.07-.15.09h0ZM.63,1.23h1.2v-.36c0-.17-.07-.31-.18-.42-.11-.11-.26-.18-.42-.18s-.31.06-.42.17h0c-.11.12-.18.26-.18.43v.36h0ZM2.13,1.51H.33s-.03,0-.04.02h0s-.02.02-.02.04v1.22s0,.03.02.04c.01.01.03.02.04.02h1.8s.03,0,.04-.01h0s.02-.03.02-.04v-1.22s0-.03-.02-.04c-.01-.01-.02-.02-.04-.02h0ZM2.36,3.03c-.05.04-.13.04-.18,0h.18Z"/></g></svg>