<?xml version="1.0" encoding="UTF-8"?><svg id="Layer_2" xmlns="http://www.w3.org/2000/svg" viewBox="0 0 2.65 3.58"><defs><style>.cls-1{fill:#0168a1;stroke-width:0px;}</style></defs><g id="audio"><path class="cls-1" d="M1.32,0c.24,0,.45.1.61.25s.25.37.25.61v.79c0,.24-.1.45-.25.61h0c-.16.16-.37.25-.61.25s-.45-.1-.61-.25h0c-.15-.16-.25-.38-.25-.61v-.79c0-.24.1-.45.25-.61.16-.16.37-.25.61-.25h0ZM.74,1.18h1.18v-.31c0-.16-.07-.31-.17-.42-.11-.11-.25-.17-.42-.17s-.31.07-.42.17c-.11.11-.17.25-.17.42v.31h0ZM1.91,1.34H.74v.31c0,.16.06.3.17.41h0c.11.11.25.18.42.18s.31-.07.42-.17h0s0,0,0,0c.11-.11.17-.25.17-.42v-.31h0ZM.51,3.58h1.63c.08,0,.14-.06.14-.14s-.06-.14-.14-.14h-.68v-.33c.31-.03.59-.17.8-.38.12-.12.22-.27.29-.43.06-.16.1-.33.1-.51v-.39c0-.08-.06-.14-.14-.14s-.14.06-.14.14v.39c0,.14-.03.28-.08.4-.05.13-.13.24-.23.34-.19.19-.45.31-.74.31-.14,0-.28-.03-.4-.08-.13-.05-.24-.13-.34-.23-.1-.1-.18-.21-.23-.34-.05-.12-.08-.26-.08-.4v-.39c0-.08-.06-.14-.14-.14s-.14.06-.14.14v.39c0,.18.04.35.1.51.07.16.17.31.29.43.12.12.27.22.43.29.12.05.24.08.37.09v.33h-.68c-.08,0-.14.06-.14.14s.06.14.14.14h0Z"/></g></svg>