<?xml version="1.0" encoding="UTF-8"?><svg id="Layer_2" xmlns="http://www.w3.org/2000/svg" viewBox="0 0 2.46 3.48"><defs><style>.cls-1{fill:#0168a1;stroke-width:0px;}</style></defs><g id="NEWS"><path class="cls-1" d="M1.23,0c.52,0,.94.42.94.94,0,.26-.11.5-.28.67h0s0,0,0,0h0s0,0,0,0c.18.18.39.35.49.6h0c.05.12.08.26.08.4v.29c0,.07-.02.14-.06.2-.04.06-.1.1-.18.11h-.02s-.27,0-.27,0v.12c0,.08-.06.14-.14.14H.67c-.08,0-.14-.06-.14-.14h0v-.12h-.27s-.02,0-.03,0c-.07-.01-.13-.05-.17-.11-.04-.05-.06-.13-.06-.2v-.29c0-.14.03-.27.08-.4.1-.24.31-.42.49-.6h0s0,0,0,0c-.18-.18-.28-.42-.28-.67,0-.52.42-.94.94-.94h0ZM.64,2.94v-.36s.04-.08.08-.08.08.04.08.08v.49h0v.14h.85v-.12h0s0-.02,0-.02v-.49s.04-.08.08-.08.08.04.08.08v.36h.36s0-.02,0-.03v-.29c0-.11-.02-.2-.06-.29h0,0c-.09-.21-.31-.39-.46-.54-.13.07-.28.11-.43.11s-.31-.04-.44-.11c-.15.15-.38.33-.46.54-.04.09-.05.19-.05.29v.29s0,.02,0,.03h.36ZM1.23.28c-.37,0-.67.3-.67.67s.3.67.67.67.67-.3.67-.67-.3-.67-.67-.67h0Z"/></g></svg>