<?xml version="1.0" encoding="UTF-8"?><svg id="Layer_2" xmlns="http://www.w3.org/2000/svg" xmlns:xlink="http://www.w3.org/1999/xlink" viewBox="0 0 1481.42 902.75"><defs><style>.cls-1{fill:#f4d4bd;}.cls-2{fill:#faaf40;}.cls-3{fill:#035c80;}.cls-4{fill:#efcd80;}.cls-5{fill:#ed7e36;}.cls-6{fill:#eac0aa;}.cls-7{fill:#fcfcfd;}.cls-8{fill:#e8bea9;}.cls-9{fill:#e8b35f;}.cls-10{fill:#ea944a;}.cls-11{fill:#e9dbb9;}.cls-12{fill:#e8efef;}.cls-13{fill:#e9b444;}.cls-14{fill:#ff9d00;}.cls-15,.cls-16{fill:#fff;}.cls-17{fill:#ffd400;}.cls-18{fill:#e47d3a;}.cls-19{fill:#686868;}.cls-20{fill:#021a1e;}.cls-21{fill:#91bcd6;}.cls-22{fill:#bb793a;}.cls-23{fill:#d2e1ee;}.cls-24{fill:#abd8e1;}.cls-25{fill:#afcde2;}.cls-26{fill:#b2c8de;}.cls-27{fill:#d9e3ed;}.cls-28{fill:#dddd3c;}.cls-29{fill:#d4b095;}.cls-30{fill:#dd873d;}.cls-31{fill:#d3af94;}.cls-32{fill:#d65a64;}.cls-33{fill:#db813c;}.cls-34{fill:#0a3b59;}.cls-35{fill:#065f87;}.cls-36{fill:#1371b0;}.cls-37{fill:#0db3be;}.cls-38{fill:#191401;}.cls-39,.cls-40{fill:#19132e;}.cls-41{fill:#3e3f44;}.cls-42{fill:#1b1b1c;}.cls-43{fill:#459fa7;}.cls-44{fill:#29667d;}.cls-45{fill:#562f21;}.cls-46{fill:#493623;}.cls-47{fill:#263e66;}.cls-48{fill:#33a7aa;}.cls-49{fill:#3d403f;}.cls-50{fill:#5a7390;}.cls-51{fill:#3a2a1c;}.cls-52{fill:#55b6ca;}.cls-53{fill:#49478a;}.cls-54{fill:#604533;}.cls-55{fill:#5d6079;}.cls-56{fill:#75563e;}.cls-57{fill:#828c8e;}.cls-58{fill:#24adbb;}.cls-59{fill:url(#Dégradé_sans_nom_71);}.cls-60{fill:url(#Dégradé_sans_nom_78);}.cls-61{fill:url(#Dégradé_sans_nom_89);}.cls-62{fill:url(#Dégradé_sans_nom_86);}.cls-63{fill:url(#Dégradé_sans_nom_53);}.cls-64{stroke:#3e2b68;}.cls-64,.cls-65,.cls-66,.cls-67{fill:none;stroke-miterlimit:10;}.cls-65{stroke:#3d2767;}.cls-66{stroke:#25596b;}.cls-67{stroke:#382b66;}.cls-68{fill:url(#Dégradé_sans_nom_5);}.cls-69{fill:url(#Dégradé_sans_nom_53-2);}.cls-70{fill:url(#Dégradé_sans_nom_53-9);}.cls-71{fill:url(#Dégradé_sans_nom_53-8);}.cls-72{fill:url(#Dégradé_sans_nom_53-3);}.cls-73{fill:url(#Dégradé_sans_nom_53-7);}.cls-74{fill:url(#Dégradé_sans_nom_53-6);}.cls-75{fill:url(#Dégradé_sans_nom_53-4);}.cls-76{fill:url(#Dégradé_sans_nom_53-5);}.cls-77{fill:url(#Dégradé_sans_nom_86-3);}.cls-78{fill:url(#Dégradé_sans_nom_86-4);}.cls-79{fill:url(#Dégradé_sans_nom_86-2);}.cls-80{fill:url(#Dégradé_sans_nom_86-6);}.cls-81{fill:url(#Dégradé_sans_nom_86-5);}.cls-82{fill:url(#Dégradé_sans_nom_78-2);}.cls-83{isolation:isolate;}.cls-84{fill:url(#Dégradé_sans_nom_56);}.cls-84,.cls-85,.cls-86,.cls-87,.cls-40{opacity:.6;}.cls-85{fill:#a3c1d0;}.cls-86{fill:#eaf0f9;}.cls-87{fill:#000023;}.cls-88{fill:#bd7339;}.cls-88,.cls-89,.cls-16{opacity:.3;}.cls-89{fill:#2f5064;}</style><linearGradient id="Dégradé_sans_nom_53" x1="325.69" y1="736.07" x2="444" y2="736.07" gradientUnits="userSpaceOnUse"><stop offset="0" stop-color="#002d49"/><stop offset="1" stop-color="#002737"/></linearGradient><linearGradient id="Dégradé_sans_nom_53-2" x1="606.03" y1="792.43" x2="606.03" y2="559.74" gradientTransform="translate(1942.09) rotate(-180) scale(1 -1)" xlink:href="#Dégradé_sans_nom_53"/><linearGradient id="Dégradé_sans_nom_78" x1="558.61" y1="489.38" x2="758.94" y2="489.38" gradientTransform="translate(1942.09) rotate(-180) scale(1 -1)" gradientUnits="userSpaceOnUse"><stop offset="0" stop-color="#62b4bd"/><stop offset="1" stop-color="#1ca7bf"/></linearGradient><linearGradient id="Dégradé_sans_nom_56" x1="1288.87" y1="490.61" x2="1306.38" y2="490.61" gradientUnits="userSpaceOnUse"><stop offset="0" stop-color="#006782"/><stop offset="1" stop-color="#006883"/></linearGradient><linearGradient id="Dégradé_sans_nom_78-2" x1="601.87" y1="436.92" x2="530.51" y2="560.51" xlink:href="#Dégradé_sans_nom_78"/><linearGradient id="Dégradé_sans_nom_53-3" x1="122.11" y1="808.51" x2="122.11" y2="552.45" xlink:href="#Dégradé_sans_nom_53"/><linearGradient id="Dégradé_sans_nom_53-4" x1="104.5" y1="472.87" x2="107.15" y2="472.87" gradientTransform="translate(33.59 -6.28) rotate(4.04)" xlink:href="#Dégradé_sans_nom_53"/><linearGradient id="Dégradé_sans_nom_53-5" x1="182.99" y1="460.23" x2="186.04" y2="460.23" gradientTransform="translate(36.76 -13.08) rotate(4.51)" xlink:href="#Dégradé_sans_nom_53"/><linearGradient id="Dégradé_sans_nom_53-6" x1="945.41" y1="781.88" x2="945.41" y2="558.55" gradientTransform="translate(1942.09) rotate(-180) scale(1 -1)" xlink:href="#Dégradé_sans_nom_53"/><linearGradient id="Dégradé_sans_nom_53-7" x1="1016.17" y1="831.74" x2="1016.17" y2="818.82" xlink:href="#Dégradé_sans_nom_53"/><linearGradient id="Dégradé_sans_nom_53-8" x1="950.76" y1="830.61" x2="950.76" y2="817.69" xlink:href="#Dégradé_sans_nom_53"/><linearGradient id="Dégradé_sans_nom_86" x1="960.13" y1="488.75" x2="1027.65" y2="488.75" gradientUnits="userSpaceOnUse"><stop offset="0" stop-color="#409db2"/><stop offset="1" stop-color="#0090b6"/></linearGradient><linearGradient id="Dégradé_sans_nom_89" x1="1006" y1="472.5" x2="1087.42" y2="472.5" gradientUnits="userSpaceOnUse"><stop offset="0" stop-color="#006e80"/><stop offset="1" stop-color="#0090b6"/></linearGradient><linearGradient id="Dégradé_sans_nom_53-9" x1="1164.28" y1="859.88" x2="1164.28" y2="628.06" xlink:href="#Dégradé_sans_nom_53"/><linearGradient id="Dégradé_sans_nom_5" x1="1090.14" y1="565.5" x2="1264.77" y2="565.5" gradientUnits="userSpaceOnUse"><stop offset="0" stop-color="#e9903e"/><stop offset="1" stop-color="#d76a37"/></linearGradient><linearGradient id="Dégradé_sans_nom_71" x1="1090.12" y1="570" x2="1133.59" y2="570" gradientUnits="userSpaceOnUse"><stop offset=".06" stop-color="#b45f2d"/><stop offset="1" stop-color="#d76a37"/></linearGradient><linearGradient id="Dégradé_sans_nom_86-2" x1="465.31" y1="49.89" x2="483.45" y2="49.89" xlink:href="#Dégradé_sans_nom_86"/><linearGradient id="Dégradé_sans_nom_86-3" x1="443.37" y1="58.29" x2="461.51" y2="58.29" xlink:href="#Dégradé_sans_nom_86"/><linearGradient id="Dégradé_sans_nom_86-4" x1="420.98" y1="68.36" x2="439.11" y2="68.36" xlink:href="#Dégradé_sans_nom_86"/><linearGradient id="Dégradé_sans_nom_86-5" x1="398.59" y1="75.42" x2="416.72" y2="75.42" xlink:href="#Dégradé_sans_nom_86"/><linearGradient id="Dégradé_sans_nom_86-6" x1="393.88" y1="97.14" x2="488.6" y2="97.14" xlink:href="#Dégradé_sans_nom_86"/></defs><g id="Layer_1-2"><path class="cls-5" d="m259.76,148.82h-10.2v-6.11h10.2v-10.81h6.26v10.81h10.2v6.11h-10.2v10.81h-6.26v-10.81Z"/><path class="cls-27" d="m137.97,169.07v19.64h4.25v-19.64c0-1.41-.95-2.56-2.12-2.56s-2.12,1.15-2.12,2.56Z"/><path class="cls-27" d="m137.97,254.92c0,1.41.95,2.56,2.12,2.56s2.12-1.15,2.12-2.56v-18.46h-4.25v18.46Z"/><path class="cls-27" d="m94.61,211.99c0,1.17,1.15,2.12,2.56,2.12h19.64v-4.25h-19.64c-1.41,0-2.56.95-2.56,2.12Z"/><path class="cls-27" d="m183.01,209.87h-18.46v4.25h18.46c1.41,0,2.56-.95,2.56-2.12s-1.15-2.12-2.56-2.12Z"/><path class="cls-27" d="m108.24,183.14l13.89,13.89,3-3-13.89-13.89c-1-1-2.48-1.14-3.31-.31s-.69,2.31.31,3.31Z"/><path class="cls-27" d="m168.94,243.84c1,1,2.48,1.14,3.31.31s.69-2.31-.31-3.31l-13.05-13.05-3,3,13.05,13.05Z"/><path class="cls-27" d="m107.93,244.16c.83.83,2.31.69,3.31-.31l13.89-13.89-3-3-13.89,13.89c-1,1-1.14,2.48-.31,3.31Z"/><path class="cls-27" d="m168.94,180.14l-13.05,13.05,3,3,13.05-13.05c1-1,1.14-2.48.31-3.31s-2.31-.69-3.31.31Z"/><path class="cls-21" d="m1283.78,769.08h-13.36v-8h13.36v-14.15h8.2v14.15h13.36v8h-13.36v14.15h-8.2v-14.15Z"/><path class="cls-21" d="m917.28,10.59v16.76h3.62V10.59c0-1.21-.81-2.19-1.81-2.19s-1.81.98-1.81,2.19Z"/><path class="cls-21" d="m917.28,83.86c0,1.21.81,2.19,1.81,2.19s1.81-.98,1.81-2.19v-15.76h-3.62v15.76Z"/><path class="cls-21" d="m880.26,47.23c0,1,.98,1.81,2.19,1.81h16.76v-3.62h-16.76c-1.21,0-2.19.81-2.19,1.81Z"/><path class="cls-21" d="m955.72,45.41h-15.76v3.62h15.76c1.21,0,2.19-.81,2.19-1.81s-.98-1.81-2.19-1.81Z"/><path class="cls-21" d="m891.9,22.6l11.85,11.85,2.56-2.56-11.85-11.85c-.85-.85-2.12-.97-2.83-.27s-.59,1.97.27,2.83Z"/><path class="cls-21" d="m943.71,74.41c.85.85,2.12.97,2.83.27.71-.71.59-1.97-.27-2.83l-11.14-11.14-2.56,2.56,11.14,11.14Z"/><path class="cls-21" d="m891.63,74.68c.71.71,1.97.59,2.83-.27l11.85-11.85-2.56-2.56-11.85,11.85c-.85.85-.97,2.12-.27,2.83Z"/><path class="cls-21" d="m943.71,20.04l-11.14,11.14,2.56,2.56,11.14-11.14c.85-.85.97-2.12.27-2.83s-1.97-.59-2.83.27Z"/><path class="cls-86" d="m1269.92,397.28c55.63,135.59-4.98,531.22-367.43,504.14-103.99-7.77-220.26-106.88-306.71-85.52-86.46,21.36-127.4,105.07-289.79,78.07-162.39-26.99-199.67-168.25-164.6-273.46,35.08-105.22-59.08-138.36-51.48-228.04,6.95-82.02,128.55-100.46,184.8-164.88,56.24-64.42,79.21-190.16,205.54-191.69,140.74-1.71,134.82,166.09,323.56,140.98,208.58-27.75,395.96,49.38,466.12,220.39Z"/><path class="cls-23" d="m1150.56,323.15l21.12,2.03,2-11.37-20.61-5.47c.38-3.17.65-6.37.84-9.59l21.33-1.41.14-11.55-21.35-2.09c-.11-2.68-.29-5.37-.54-8.07l21-4.64-1.6-11.43-21.5,1.16c-.46-2.42-.97-4.83-1.54-7.2l20-7.65-3.27-11.07-20.95,4.29c-.85-2.46-1.75-4.88-2.72-7.27l18.55-10.5-4.89-10.46-19.96,7.32c-1.43-2.74-2.94-5.43-4.52-8.07l16.54-13.22-6.48-9.55-18.4,10.31c-1.93-2.61-3.94-5.15-6.03-7.62l14.06-15.58-7.94-8.38-16.31,13c-1.96-1.92-3.97-3.79-6.04-5.6l11.46-17.4-9.11-7.09-14.03,15.18c-3.32-2.4-6.74-4.65-10.25-6.78l8.04-18.75-10.22-5.37-10.87,17.01c-2.44-1.18-4.92-2.3-7.43-3.35l5.06-19.39-10.91-3.78-8.06,18.1c-3.09-.96-6.22-1.84-9.38-2.61l1.88-19.52-11.37-2-4.97,18.73c-3.38-.49-6.79-.85-10.23-1.12l-1.27-19.14-11.55-.14-1.85,18.87c-2.91.05-5.83.19-8.76.41l-4.07-18.42-11.43,1.6,1.01,18.59c-2.68.46-5.33.98-7.96,1.57l-6.86-17.12-10.58,3.12,2.88,18c-2.62.86-5.21,1.79-7.76,2.78l-9.12-15.52-9.99,4.67,5.41,16.96c-2.95,1.49-5.84,3.07-8.67,4.73l-11.18-13.54-9.13,6.19,7.85,15.53c-2.83,2.06-5.57,4.21-8.24,6.44l-12.92-11.3-8.01,7.58,10.03,13.76c-2.08,2.11-4.11,4.28-6.07,6.5l-14.21-9.05-6.77,8.71,11.78,11.87c-2.59,3.58-5.02,7.28-7.3,11.07l-15.27-6.26-5.12,9.77,13.43,9.42c-1.28,2.67-2.49,5.38-3.62,8.13l-15.78-3.85-3.61,10.42,14.48,7.21c-1.01,3.33-1.91,6.71-2.7,10.12l-15.98-1.28-1.91,10.86,15.29,4.77c-.48,3.61-.84,7.26-1.06,10.93l-15.85,1.3-.14,11.03,15.78,2.23c.1,3.08.31,6.18.6,9.28l-15.4,3.66,1.53,10.92,15.88-.18c.54,2.9,1.17,5.75,1.87,8.58l-14.76,5.92,3.12,10.58,15.77-2.53c1,2.86,2.08,5.67,3.24,8.44l-13.75,8.08,4.67,9.99,15.32-4.88c1.65,3.1,3.39,6.13,5.24,9.08l-12.4,10.24,6.19,9.13,14.53-7.34c2.2,2.88,4.5,5.68,6.89,8.39l-10.75,12.29,7.58,8.01,13.38-9.75c2.22,2.08,4.49,4.1,6.82,6.05l-8.86,13.93,8.71,6.77,11.9-11.81c3.59,2.46,7.29,4.77,11.09,6.92l-6.44,15.7,9.77,5.13,9.9-14.12c2.6,1.17,5.23,2.27,7.9,3.29l-4.1,16.8,10.42,3.61,7.84-15.75c3.17.88,6.38,1.65,9.62,2.33l-1.42,17.62,10.86,1.91,5.37-17.2c3.36.36,6.75.63,10.15.77l1.48,18.07,11.03.14,2.59-18.32c2.8-.16,5.61-.39,8.42-.7l4.28,18.01,10.92-1.53-.21-18.87c2.58-.54,5.12-1.14,7.64-1.8l6.77,17.68,11.07-3.27-3.85-18.81c2.64-.97,5.25-2.01,7.82-3.11l9.52,16.81,10.46-4.89-6.75-18.39c2.86-1.57,5.66-3.22,8.4-4.96l12.32,15.41,9.55-6.48-9.78-17.45c2.65-2.06,5.22-4.2,7.72-6.42l14.97,13.51,8.38-7.94-12.72-15.96c1.91-2.06,3.77-4.17,5.57-6.32l17.12,11.28,7.09-9.11-15.22-14.07c2.28-3.33,4.42-6.76,6.43-10.26l19.16,8.21,5.37-10.22-17.7-11.31c1.08-2.39,2.1-4.8,3.06-7.24l20.37,5.32,3.78-10.91-19.36-8.62c.84-2.96,1.61-5.95,2.27-8.97Zm-122.11,83.06l-12.72-79.21-7.49,1.2c14.47-2.32,25.81-12.27,30.61-25.08l79.97,12.95c-10.04,43.84-44.43,79.78-90.37,90.13Zm-128.53-54.08l71.5-38.02c8.58,10.58,22.41,16.41,36.82,14.1l-6.37,1.02,12.74,79.28c-46.96,5.01-91.1-18.06-114.68-56.38Zm117.93-65.31c1.41,8.75-4.55,16.98-13.3,18.39-8.75,1.41-16.98-4.55-18.39-13.3-1.41-8.75,4.55-16.98,13.3-18.39,8.75-1.41,16.98,4.55,18.39,13.3Zm-108.3-73.65l59.03,55.45c-4.83,7.77-6.99,17.24-5.42,26.98.34,2.14.86,4.2,1.52,6.19l-71.4,37.96c-4.51-9.75-7.78-20.27-9.57-31.4-5.68-35.35,4.74-69.57,25.84-95.2Zm141.14-33.29l-38.01,71.61c-5.34-1.51-11.08-1.92-16.91-.98-6.71,1.08-12.75,3.8-17.78,7.68l-58.89-55.32c16.98-16.3,38.91-27.79,63.91-31.8,23.84-3.83,47.16-.34,67.69,8.81Zm70.45,122.35l-79.79-12.92c0-2.04-.17-4.11-.5-6.19-1.71-10.62-7.52-19.56-15.55-25.46l37.86-71.33c29.49,17.52,51.28,47.51,57.14,84.02,1.74,10.8,1.96,21.5.84,31.87Z"/><path class="cls-23" d="m624.52,478.18l13.18-6.15-1.79-10.94-14.45-1.63c-2.06-5.28-5.07-10.09-8.83-14.21l4.97-13.66-8.99-6.47-11.38,9.07c-4.98-2.19-10.43-3.51-16.17-3.79l-6.16-13.21-10.93,1.79-1.64,14.46c-5.26,2.05-10.06,5.04-14.18,8.78l-13.73-5-6.47,8.99,9.09,11.41c-2.21,5.01-3.54,10.49-3.81,16.26l-13.26,6.18,1.78,10.93,14.54,1.64c2.05,5.24,5.03,10.02,8.75,14.11l-5.01,13.76,8.99,6.47,11.44-9.11c4.99,2.2,10.45,3.53,16.2,3.8l6.18,13.25,10.93-1.79,1.64-14.51c5.26-2.05,10.05-5.04,14.16-8.77l13.71,4.99,6.47-8.99-9.07-11.39c2.21-5.02,3.55-10.51,3.82-16.29Zm-17.22,6.37c-4.69,15.71-21.22,24.65-36.93,19.96-15.71-4.69-24.65-21.22-19.96-36.93,4.69-15.71,21.22-24.65,36.93-19.96,15.71,4.69,24.65,21.22,19.96,36.93Z"/><path class="cls-23" d="m882.35,538.74c.1-4.55-.08-9.14-.58-13.75l20.14-10.64-3.8-15.92-22.77-.4c-1.81-4.78-3.94-9.37-6.36-13.75l14.2-17.47-9.69-13.19-20.93,8.32c-3.18-3.32-6.56-6.42-10.12-9.3l6.58-21.55-13.94-8.57-16.26,15.6c-4.59-2.07-9.34-3.82-14.2-5.22l-2.31-22.4-16.18-2.48-8.91,20.67c-4.55-.1-9.14.08-13.75.58l-10.64-20.14-15.92,3.8-.4,22.77c-4.78,1.81-9.37,3.94-13.75,6.36l-17.47-14.2-13.19,9.69,8.32,20.93c-3.32,3.18-6.42,6.56-9.3,10.12l-21.55-6.58-8.57,13.94,15.6,16.26c-2.07,4.59-3.82,9.34-5.23,14.2l-22.4,2.31-2.48,16.18,20.67,8.91c-.1,4.55.08,9.14.58,13.75l-20.14,10.64,3.8,15.92,22.77.4c1.81,4.78,3.94,9.37,6.36,13.75l-14.2,17.47,9.69,13.19,20.93-8.32c3.18,3.32,6.56,6.42,10.12,9.3l-6.58,21.55,13.94,8.57,16.26-15.6c4.59,2.07,9.34,3.82,14.2,5.22l2.31,22.4,16.18,2.48,8.91-20.67c4.55.1,9.14-.08,13.75-.58l10.64,20.14,15.92-3.8.4-22.77c4.78-1.81,9.37-3.94,13.75-6.36l17.47,14.2,13.19-9.69-8.32-20.93c3.32-3.18,6.42-6.56,9.3-10.12l21.55,6.58,8.57-13.94-15.6-16.26c2.07-4.59,3.82-9.34,5.23-14.2l22.4-2.31,2.48-16.18-20.67-8.91Zm-33.93,19.52c-12.14,40.68-54.95,63.82-95.63,51.68-40.68-12.14-63.82-54.95-51.68-95.63,12.14-40.68,54.95-63.82,95.63-51.68,40.68,12.14,63.82,54.95,51.68,95.63Z"/><path class="cls-23" d="m1057.68,617.74c4.83-4.46,9.12-9.46,12.72-14.96l-8.7-15.04c2.9-5.83,4.95-12.12,6.01-18.68l15.83-7.14c.11-3.21.1-6.49-.18-9.8-.26-3.32-.75-6.55-1.39-9.73l-16.8-4.45c-2.14-6.36-5.13-12.2-8.94-17.48l6.16-16.3c-4.48-4.77-9.49-9.07-14.96-12.64l-15.06,8.68c-5.82-2.91-12.05-4.96-18.75-6.04l-7.06-15.87c-3.27-.11-6.55-.09-9.87.17-3.28.29-6.59.8-9.69,1.43l-4.52,16.79c-6.38,2.13-12.24,5.18-17.47,8.96l-16.33-6.1c-4.8,4.45-9.04,9.48-12.69,14.92l8.71,15.09c-2.84,5.79-4.92,12.07-5.99,18.67l-15.85,7.13c-.12,3.23-.09,6.5.16,9.83.28,3.28.8,6.53,1.42,9.7l16.78,4.5c2.13,6.28,5.22,12.13,8.95,17.43l-6.18,16.28c4.51,4.83,9.49,9.09,14.96,12.69l15.08-8.68c5.78,2.85,12.07,4.93,18.7,6.02l7.16,15.83c3.21.13,6.53.09,9.84-.16,3.32-.31,6.51-.76,9.74-1.44l4.44-16.78c6.38-2.12,12.23-5.17,17.5-8.98l16.23,6.16Zm-30.55-15.02c-24.35,13.21-54.8,4.17-68.01-20.18-13.21-24.35-4.17-54.8,20.18-68.01,24.35-13.21,54.8-4.17,68.01,20.18,13.21,24.35,4.17,54.8-20.18,68.01Z"/><path class="cls-23" d="m791.66,200.22c-.42-6.89-1.29-13.81-2.62-20.72l29.12-18.64-7.76-23.6-34.5,2.29c-3.34-7-7.15-13.67-11.36-19.99l19.26-28.22-16.33-18.73-30.6,15.24c-5.23-4.62-10.74-8.89-16.48-12.78l7.22-33.43-22.18-11.2-22.62,25.66c-7.21-2.54-14.61-4.59-22.14-6.1l-6.34-33.59-24.79-1.7-10.85,32.4c-6.89.42-13.81,1.29-20.72,2.62l-18.64-29.12-23.6,7.76,2.29,34.5c-7,3.34-13.67,7.15-19.99,11.36l-28.22-19.26-18.73,16.33,15.24,30.6c-4.62,5.23-8.89,10.74-12.78,16.48l-33.43-7.22-11.2,22.18,25.66,22.62c-2.54,7.21-4.59,14.61-6.1,22.14l-33.59,6.34-1.7,24.79,32.4,10.85c.42,6.89,1.29,13.81,2.62,20.72l-29.12,18.64,7.76,23.6,34.5-2.29c3.34,7,7.15,13.67,11.36,19.99l-19.26,28.22,16.33,18.73,30.6-15.24c5.23,4.62,10.74,8.89,16.48,12.78l-7.22,33.43,22.18,11.2,22.62-25.66c7.21,2.54,14.61,4.59,22.14,6.1l6.34,33.59,24.79,1.7,10.85-32.4c6.89-.42,13.81-1.29,20.72-2.62l18.64,29.12,23.6-7.76-2.29-34.5c7-3.35,13.67-7.15,19.99-11.36l28.22,19.26,18.73-16.33-15.24-30.6c4.62-5.23,8.89-10.74,12.78-16.48l33.43,7.22,11.2-22.18-25.66-22.62c2.54-7.21,4.59-14.61,6.1-22.14l33.59-6.34,1.7-24.79-32.4-10.85Zm-91.75,68.9c-32.57,39.37-90.89,44.88-130.27,12.31-39.37-32.57-44.88-90.9-12.31-130.27,32.57-39.37,90.9-44.88,130.27-12.31,39.37,32.57,44.88,90.89,12.31,130.27Z"/><path class="cls-23" d="m738.42,248.03c20.92-60.63-11.27-126.75-71.9-147.68-60.63-20.92-126.75,11.27-147.68,71.9-20.92,60.63,11.27,126.75,71.9,147.68,60.63,20.93,126.75-11.27,147.68-71.9Zm-24.48-8.45c-16.26,47.11-67.63,72.13-114.74,55.87-47.11-16.26-72.13-67.63-55.87-114.74,16.26-47.11,67.63-72.13,114.74-55.87,47.11,16.26,72.13,67.63,55.87,114.74Z"/><path class="cls-23" d="m447.33,330.72l21.12-19.34-9.82-19.48-28.11,5.48c-6.99-8.7-15.49-15.94-24.99-21.46l1.25-28.59-20.72-6.83-16,23.76c-10.65-1.16-21.67-.42-32.6,2.46l-19.38-21.16-19.48,9.82,5.49,28.12c-8.67,6.96-15.91,15.42-21.42,24.88l-28.74-1.26-6.83,20.72,23.82,16.05c-1.18,10.7-.44,21.79,2.46,32.78l-21.24,19.46,9.82,19.48,28.27-5.51c6.94,8.63,15.37,15.83,24.79,21.32l-1.26,28.8,20.72,6.83,16.08-23.88c10.67,1.17,21.71.44,32.67-2.45l19.44,21.23,19.48-9.82-5.5-28.21c8.67-6.96,15.89-15.41,21.4-24.86l28.69,1.26,6.83-20.72-23.78-16.01c1.19-10.73.45-21.84-2.47-32.85Zm-60.7,22.65c.22,14.52-11.36,26.47-25.88,26.69-14.52.22-26.47-11.37-26.69-25.88-.22-14.52,11.37-26.47,25.88-26.69s26.47,11.37,26.69,25.88Z"/><path class="cls-23" d="m416.73,373.26c10.75-31.16-5.79-65.13-36.95-75.88-31.16-10.75-65.13,5.79-75.88,36.95-10.75,31.16,5.79,65.13,36.95,75.88,31.16,10.75,65.13-5.79,75.88-36.95Zm-30.46-10.51c-4.95,14.34-20.58,21.95-34.92,17-14.34-4.95-21.95-20.58-17-34.92,4.95-14.34,20.58-21.95,34.92-17,14.34,4.95,21.95,20.58,17,34.92Z"/><path class="cls-21" d="m53.72,726.89h-7.7v-4.62h7.7v-8.17h4.73v8.17h7.7v4.62h-7.7v8.17h-4.73v-8.17Z"/><path class="cls-21" d="m1187.2,212.39h-7.7v-4.62h7.7v-8.17h4.73v8.17h7.7v4.62h-7.7v8.17h-4.73v-8.17Z"/><path class="cls-18" d="m850.93,736.16h-7.87v-5.17h7.87v-9.15h4.83v9.15h7.87v5.17h-7.87v9.15h-4.83v-9.15Z"/><ellipse class="cls-85" cx="390.07" cy="870.47" rx="117.31" ry="9.56"/><path class="cls-53" d="m376.18,635.83c.38,0,.73-.25.83-.62l5.82-21.26c.12-.45-.15-.91-.61-1.03-.47-.12-.93.14-1.05.59l-5.82,21.26c-.12.45.15.91.61,1.03.07.02.15.03.22.03Z"/><path class="cls-63" d="m326.24,606.33l91.72-2.62c.96,16.91,3.19,63.56,4.9,89.44,3.72,72.36,10.71,164.47,10.71,164.47l10.44,10.81h-25.8s-31.83-175.27-31.83-175.27l-10.1-51.25-6.4.13-4.3,51.12-17.27,175.27h-21.73s5.39-9.86,5.39-9.86c0,0-3.99-81.58-5.81-165.42-.6-22.69-.69-65.66.07-86.81Z"/><path class="cls-13" d="m296.38,545.88c.08-1.56.34-3.39.93-5.13.85-5.95,3.32-11.73,5.78-17.42,5.48-12.71,10.95-25.42,16.43-38.13,2.08-4.83,6.13-11,9.38-15.39,6.88-9.27,17.1-12.32,29.96-12.27,6,.02-9.99,24.17-13.81,30.07-5.64,8.72-7.49,19.31-16.27,35.8-2.94,5.51-5.28,14.07-8.71,20.56.08,1.19.08,2.39.07,3.58-.09,8.52-.17,17.03-.26,25.55-.08,7.7-.34,14.89,1.59,22.39.78,3.03-.36,6.2-3.21,8.4-4.25,3.27-7.74,3.01-7.74,3.01-5.36-11.51-9.94-23.38-12.35-35.56-.52-2.61-.93-5.24-1.24-7.87-.67-5.84-.86-11.71-.55-17.58Z"/><path class="cls-13" d="m323.93,614.42l95.47,3.94c-.26-16.77-1.4-40.1-2.25-53.02-.07-.83-.1-1.62-.13-2.39-.58-8.31-.92-16.46-.81-25.17,0-.86,0-1.72.04-2.58.07-3.42.25-6.93.53-10.57.43-5.91,1.1-12.19,2.09-19.01,1.38-9.52,7.31-22.92,5.78-30.27-1.92-8.9-9.84-15.78-19.51-18.62-3.55-1.06-7.32-1.58-11.13-1.45l-39.68,1.31c-27.35.9-30.28,27.22-29.58,45.31.55,14.33,1.48,28.69,2.14,43.05.83,19.56.73,29.38-1.2,48.81-.55,5.66-1.64,14.9-1.76,20.68Z"/><path class="cls-22" d="m359.83,541.22c12.03,5.38,41.01,15.84,46.91,19.12,3.26,1.81,6.79,3.51,10.43,5.01-.07-.83-.1-1.62-.13-2.39-.59-8.3-.92-16.46-.81-25.17-11.75-2.61-24.06-6.1-32.15-9.46-3.24-1.33-14.82-7.68-17.04-4.13-1.66,2.7-5.18,5.78-8.44,8.32-3.16,2.43-2.51,7.04,1.24,8.7Z"/><path class="cls-19" d="m345.24,493.52c-.02.26,0,.52.06.79l7.7,29.18c.37,1.36,1.88,2.42,3.36,2.37l16.65-.38c.55-.04,1.04-.18,1.42-.44v-.03c.6-.45.86-1.19.64-2.03l-7.69-29.21c-.34-1.32-1.85-2.38-3.33-2.34l-16.65.38c-1.19.03-2.02.73-2.15,1.72Z"/><path class="cls-49" d="m345.24,493.52c-.02.26,0,.52.06.79l7.7,29.18c.37,1.36,1.88,2.42,3.36,2.37l16.65-.38c.55-.04,1.04-.18,1.42-.44v-.03c.06-.25.04-.51-.05-.79l-7.69-29.21c-.34-1.32-1.85-2.38-3.37-2.34l-16.65.38c-.58.03-1.04.18-1.43.48Z"/><path class="cls-56" d="m370.21,517.18c5.69,2.48,6.57,10.51,8.8,13.38,2.7,3.47-2.81,4.58-8.79,3.84-5.36-.66-11.91-2.92-14.04-5.44-1.81-2.14-4.13-4.7-3.91-11.19.17-5.3,10.52-3.83,17.94-.58Z"/><path class="cls-13" d="m374.62,524.46c2.18-2.48,4.49-.66,7.71.3,11.56,3.46,31.63,2.61,46.57,4.38-1.01-2.38-1.96-4.67-2.85-6.7-8.84-20.07-14.05-28.56-17.45-35.75-3.17-6.72-17.62-31.15-11.69-31.35,15.08-.5,23.98,2.92,30.12,13.3,12.87,21.8,19.26,40.41,23.51,51.86,2.75,7.41,6.29,12.16,6.81,19.35.03.21.02,4.86.04,5.08.16,3.42-.43,1.88-2.19,3.86-.18.35-.33.69-.54,1.05-3.92,6.95-30.14,5.62-47.7-1.38-8.33-3.32-33.78-14.96-33.78-14.96,0,0-2.13-4.98,1.45-9.04Z"/><path class="cls-22" d="m360.87,456.36c.21.85.53,1.64.95,2.39,2.07,3.95,6.63,6.38,12.6,6.19,6.89-.23,13.89-3.9,18.56-9.13.17-.16.34-.36.47-.53l-32.58,1.08Z"/><path class="cls-56" d="m390.07,436.22v20.12s-15.24,17.22-29.23.4l1.22-20.52h28.01Z"/><path class="cls-54" d="m375.16,449.97c.37.05.75.1,1.13.12,4.69.36,9.02-1.01,12.53-3.95.32-.27.32-.73.01-1.03-.31-.3-.82-.33-1.14-.06-3.19,2.67-7.11,3.91-11.34,3.59-4.42-.34-8.19-2.48-11.22-6.36-.26-.34-.77-.43-1.12-.21-.36.22-.44.67-.18,1.01,3.03,3.88,6.93,6.24,11.34,6.88Z"/><path class="cls-56" d="m395.77,413.35c1.83,16.41-.23,34.15-12.73,35.31-13,1.2-26.72-6.44-28.55-22.84-1.83-16.41,6.71-31.9,19.08-34.61,12.37-2.71,20.37,5.74,22.2,22.15Z"/><path class="cls-57" d="m394.68,398.36c.59-1.54.4-3.36-.87-5.39-.25-.4-.55-.82-.9-1.25-1.45-1.88-3.55-3.65-5.47-5.17-.07.01-.14.01-.2.02-9.46-2.99-20.4-3.71-28.95.54-4.19,2.01-6.52,5.04-7.59,8.54-2.22,4.7-1.56,12.28-.34,17.97.33,1.55.69,2.96,1.06,4.14,1.66,5.47,3.8,12.88,8.21,17.03.92.75,2.4,1.51,3.75,1.35.07-.01.14-.03.2-.04-.16-.25-.32-.51-.46-.78-.44-1.66-.34-3.52-.34-5.16-.67.62-1.21.93-1.83.97-.6.05-1.27-.19-2.17-.73-2.34-1.29-3.16-3.76-3.26-6.32,0-.66.11-1.82.39-2.92.01-.01.01-.04.03-.05.21-.78.51-1.51.95-2.01.35-.39.76-.64,1.29-.64.72,0,1.96.94,2.59,1.72.05.07.1.14.14.2.14.78.31,1.55.5,2.31.2.88.46,1.75.73,2.61,1.04.52,2.09,1.22,3.24,1.34l.05-.57c-1.66-4.72-1.62-9.72-1.44-14.72.05-1.22.1-2.44.14-3.66.05-1.14.08-2.26.08-3.38v-.18c5.13-.33,10.37-.66,14.78-2.55-1.72.77-3.16,1.82-4.5,2.99-.45.39-.88.79-1.31,1.2-1.02.97-2.01,1.97-3.03,2.89,5.86.43,14.61-2.87,20.55-6.51.85-.53,1.65-1.07,2.37-1.6l.02.02.03.03c.11,1.29.2,2.59.25,3.92.25,4.7.27,9.58-.18,14.32.08,0,.18.01.27.02.24-1.26.59-2.47.93-3.7.45-1.66.87-3.33,1.01-5.08.27-3.42,1.08-8.52-.74-11.71Z"/><path class="cls-56" d="m326.35,601.23s-.87-.02,0,0c-1.44-1.31-2.99-2.8-4.53-4.14-.2.25-.47.47-.62.77-1.89,3.81-3.7,7.05-11.31,8.31,1.29,1.99,2.49,3.56,9.5,8.67,5.16,2.94,9.15,3.38,12.36,3.04,2.59-.28,4.57-2.5,4.54-3.88-3.62-4.87-7.39-10.35-9.93-12.75Z"/><polygon class="cls-39" points="336.21 857.95 349.25 858.69 348.13 868.42 320.52 868.42 336.21 857.95"/><polygon class="cls-39" points="464.91 868.76 428.89 868.76 426.17 865.33 423.86 868.76 417.57 868.76 417.57 853 435.48 849.74 444.39 860.62 464.91 866.72 464.91 868.76"/><path class="cls-52" d="m1376.98,761.53l-2.96-12.23c1.39-.15,2.75-.38,4.11-.72,2.17-.54,4.27-1.33,6.29-2.34l2.96,12.25c-2.03.99-4.13,1.76-6.29,2.31-1.35.34-2.72.58-4.11.74Z"/><path class="cls-24" d="m1273.67,612.8l1.47-5.86c3.03.96,6.11,1.83,9.25,2.59,1.95.47,3.91.89,5.87,1.26l-1.47,5.85c-1.96-.38-3.91-.8-5.87-1.27-3.13-.75-6.21-1.61-9.25-2.57Z"/><ellipse class="cls-85" cx="1328.8" cy="806.41" rx="152.61" ry="12.51"/><path class="cls-8" d="m1328.8,391.59s10.75-13.65,7.61-29.33c-1.66-8.27-22.29-14.38-29.35-14.38-7.06,0-6.14,9.58-6.14,9.58,0,0-13.06,16.87-14.1,19.82l6.63,4.64s-7.77,14.11-3.46,16.24c2.55,1.26,14.96,2.3,14.96,2.3l1.77,20.87,21.39-6.65.69-23.1Z"/><path class="cls-45" d="m1317.03,357.61c.45-4.94-10.2-1.53-15.41-3.1-3.32-.99-.11-6.63,4.05-8.51,7.72-3.49,18.87,4.12,18.87,4.12,0,0,11.37,5.39,13.17,12.88,1.8,7.49-4.49,27.42-4.49,27.42,0,0,4.23-2.08-3.44-3.96-7.67-1.88-4.06-10.48-8.18-10.9s-10.48,7.09-10.48,7.09l-4.87-1.16s10.34-18.93,10.79-23.87Z"/><polygon class="cls-31" points="1323.08 385.97 1314.07 401.57 1305.84 403.27 1304.94 400.46 1313.58 399.57 1322.11 385.97 1323.08 385.97"/><polygon class="cls-31" points="1290.27 374.29 1298.13 361.09 1286.81 377.29 1287.87 378.38 1290.27 374.29"/><polygon class="cls-69" points="1270.15 784.91 1295.9 792.39 1303.11 709.52 1300.22 682.35 1311.78 596.21 1334.9 677.15 1376.52 792.43 1401.96 792.43 1382.54 718.88 1365.25 665.29 1358.03 566.68 1303.4 563.15 1271.89 559.74 1270.15 784.91"/><path class="cls-60" d="m1190.37,446.54l43.84,16s1.84,4.63,5.31-.35c2.19-3.14,19.13-21.68,31.32-34.92l11.03-13.2,1.26-.09c.21-.23.32-.35.32-.35l-.04.33,15.08-1.1,7.51,64.56,30.05-68.5,35.55,25.51,9.56,16.79,2.31,36.42-25.75-20.46-3.47,42.81,4.91,59.88-92.5-6.07,10.4-95.92-7.59,4.9-32.29,25.83s-5.78,0-7.67-2.51c-1.89-2.51-46.39-26.37-46.39-26.37l7.23-23.18Z"/><polygon class="cls-87" points="1297.9 677.72 1300.33 708.08 1295.03 789.79 1303.23 706.61 1300.55 678.02 1311.78 596.21 1308.6 584.94 1297.9 677.72"/><line class="cls-64" x1="1349.07" y1="682.64" x2="1357.74" y2="691.89"/><polygon class="cls-39" points="1229.69 805.72 1279.4 805.72 1283.16 802.25 1286.34 805.72 1295.03 805.72 1295.03 789.79 1270.31 786.49 1258.02 797.49 1229.69 803.66 1229.69 805.72"/><polygon class="cls-39" points="1377.68 807.75 1402.46 806.53 1403.12 799.94 1399.65 792.43 1377.68 793.29 1377.68 807.75"/><polygon class="cls-15" points="1306.01 477.41 1335.19 409.78 1331.5 409.26 1311.78 419.89 1303.4 411.12 1298.5 412.85 1306.01 477.41"/><polygon class="cls-30" points="1310.04 428.56 1303.24 453.48 1306.01 477.41 1316.41 453.69 1312.64 429.14 1316.41 425.1 1312.08 419.6 1307.44 424.81 1310.04 428.56"/><polygon class="cls-43" points="1343 422.2 1306.01 477.41 1336.06 408.91 1342.13 417 1336.47 417.28 1343 422.2"/><polygon class="cls-43" points="1289.23 417.29 1306.01 477.41 1298.5 412.85 1289.23 417.29"/><polygon class="cls-44" points="1358.31 570.73 1314.09 568.99 1272.76 563.79 1358.89 567.55 1358.31 570.73"/><polygon class="cls-84" points="1303.77 563.16 1303.03 563.13 1305.63 477.46 1288.87 418.26 1289.59 418.06 1306.38 477.37 1306.38 477.43 1303.77 563.16"/><line class="cls-67" x1="1359.47" y1="448.51" x2="1357.74" y2="467.01"/><line class="cls-66" x1="1279.21" y1="440.88" x2="1277.08" y2="467.87"/><polygon class="cls-8" points="1173.21 435.42 1169.94 438.58 1174.43 445.44 1164.38 443.76 1158.07 448.52 1158.33 452.52 1166.99 457.79 1176.3 460.85 1184.6 461.81 1189.61 452.25 1173.21 435.42"/><line class="cls-64" x1="1352.7" y1="680.61" x2="1366.25" y2="694.47"/><line class="cls-64" x1="1275.36" y1="678.01" x2="1284.03" y2="687.26"/><polygon class="cls-40" points="1277.96 462.96 1277.67 467.1 1237.2 498.6 1277.96 462.96"/><polygon class="cls-40" points="1377.1 482.52 1377.1 482.52 1358.03 467.87 1358.89 463.83 1379.69 482.43 1377.1 482.52"/><polygon class="cls-82" points="1379.48 501.6 1354.94 476.3 1359.73 425.66 1373.09 435.25 1404.81 494.18 1399.26 567.62 1379.56 563.65 1379.48 501.6"/><polygon class="cls-8" points="1373.75 583.75 1377.56 585.79 1382.68 580.15 1383.85 589.29 1377.02 603.6 1381.44 603.76 1389.96 593.55 1396.11 583.46 1396.41 574.62 1395.05 567.18 1384.86 565.27 1373.75 583.75"/><g class="cls-83"><path class="cls-7" d="m144.73,361.91h-5.97v-3.92h5.97v-6.94h3.67v6.94h5.97v3.92h-5.97v6.94h-3.67v-6.94Z"/></g><g class="cls-83"><path class="cls-7" d="m177.03,609.17h-9.45v-6.21h9.45v-10.98h5.8v10.98h9.45v6.21h-9.45v10.98h-5.8v-10.98Z"/></g><ellipse class="cls-85" cx="129.99" cy="822.25" rx="117.24" ry="9.56"/><path class="cls-6" d="m134.43,398.14s-10.63-13.5-7.52-29c1.64-8.18,22.04-14.22,29.02-14.22s7.96,9.48,7.96,9.48c0,0,6.36,15.62,7.39,18.54l-1.88,5.65s7.68,13.95,3.42,16.06c-2.52,1.24-14.79,2.27-14.79,2.27l-1.75,20.64-21.15-6.57-.68-22.84Z"/><path class="cls-28" d="m147.96,370.2c-.44-4.89,8.2-7.17,13.35-8.71,3.28-.98.11-6.56-4-8.42-7.64-3.45-18.66,4.07-18.66,4.07,0,0-11.24,5.33-13.02,12.74s4.44,27.11,4.44,27.11c0,0-4.18-2.06,3.4-3.92,7.58-1.86-1.63-10.37,2.44-10.78,4.07-.41,6.6,7.01,6.6,7.01l3.87-2.09s2.02-12.12,1.58-17.01Z"/><polygon class="cls-29" points="140.09 392.6 149 408.02 157.13 409.69 158.02 406.92 149.48 406.04 141.05 392.6 140.09 392.6"/><polygon class="cls-72" points="192.42 801.08 166.97 808.47 159.84 712.49 162.7 685.62 151.26 600.46 128.4 680.48 76.96 808.51 51.81 808.51 75.3 721.75 98.39 668.76 105.54 559.31 159.54 555.81 190.7 552.45 192.42 801.08"/><path class="cls-34" d="m238.21,559.88s-16.29-72.14-19.72-77.07c-2.17-3.11-14.7-36.3-26.75-49.39l-10.91-13.05-1.24-.09c-.21-.22-.32-.35-.32-.35l.04.33-14.91-1.09-7.42,36.95-29.71-40.85s-23.06,10.15-35.15,25.22c-12.09,15.08-25.15,51.98-26.01,66.23-.86,14.25-.86,68.02-.86,68.02l20.23-1.62,6.64-58.78,14.57-29.34,2.57,30.19-4.86,47.25,91.45-6-10.28-82.88-.21,4.84,19.49,29.65,11.93,53.93,21.43-2.11Z"/><polygon class="cls-40" points="164.98 681.05 162.58 711.06 167.82 805.9 159.71 709.61 162.37 681.34 151.26 600.46 154.41 589.31 164.98 681.05"/><line class="cls-65" x1="114.4" y1="685.91" x2="105.82" y2="695.05"/><polygon class="cls-39" points="232.43 821.66 183.27 821.66 179.56 818.23 176.41 821.66 167.82 821.66 167.82 805.9 192.26 802.64 204.42 813.52 232.43 819.62 232.43 821.66"/><polygon class="cls-39" points="75.82 823.66 51.32 822.45 50.67 815.94 54.1 808.51 75.82 809.37 75.82 823.66"/><polygon class="cls-15" points="155.79 449.31 128.12 416.13 131.76 415.62 151.26 426.13 159.54 417.45 164.39 419.17 155.79 449.31"/><polygon class="cls-6" points="91.65 593.06 87.74 595.15 82.48 589.37 81.28 598.74 88.29 613.43 83.75 613.6 75 603.11 68.69 592.76 68.39 583.69 69.78 576.05 80.25 574.09 91.65 593.06"/><polygon class="cls-40" points="105.25 563.31 148.98 561.59 189.84 556.45 104.68 560.16 105.25 563.31"/><polygon class="cls-40" points="87.82 549.21 92.11 514.34 106.68 485 105.82 481 89.55 514.25 87.82 549.21"/><rect class="cls-75" x="105.35" y="460.7" width=".94" height="24.33" transform="translate(-33.06 8.63) rotate(-4.04)"/><rect class="cls-76" x="184.04" y="446.84" width=".94" height="26.77" transform="translate(-35.62 15.93) rotate(-4.51)"/><line class="cls-65" x1="110.81" y1="683.91" x2="97.41" y2="697.61"/><line class="cls-65" x1="187.27" y1="681.34" x2="178.7" y2="690.48"/><polygon class="cls-40" points="184.7 472.87 184.84 476.95 204.85 508.06 184.7 472.87"/><polygon class="cls-6" points="215.14 582.4 219.39 583.78 223.41 577.19 226.43 586.2 222.44 601.85 226.93 601.23 233.46 589.41 237.61 578.14 236.13 569.17 233.25 561.91 222.59 561.79 215.14 582.4"/><path class="cls-10" d="m247.89,594.87v-14.8h-39.17v14.8h-14.99v52.27h69.16v-52.27h-14.99Zm-36.07-12.46h32.97v12.46h-32.97v-12.46Z"/><ellipse class="cls-85" cx="985.28" cy="831.74" rx="89.99" ry="12.53"/><path class="cls-38" d="m997.82,381.73s2.06-36.2-7.79-39.96-16.94,13.8-16.94,13.8c0,0-4.89,8.37-5.95,16.04s2.13,11.48,2.13,11.48c0,0,12.97,1.09,16.78,11.92,3.81,10.83-.94,40.98-.94,40.98,0,0,28.82-8.99,19.86-22.72-7.75-11.87-7.14-31.54-7.14-31.54Z"/><ellipse class="cls-38" cx="1014.1" cy="398.61" rx="19.93" ry="61.58" transform="translate(-74.71 440.7) rotate(-23.67)"/><polygon class="cls-74" points="954.58 780.62 975.43 781.85 982 703.89 987.9 676.23 990.81 648.77 999.77 676.51 1021.19 781.88 1038.78 781.88 1034.3 711.3 1028.14 659.86 1023.14 565.2 985.36 561.81 963.56 558.55 954.58 780.62"/><polygon class="cls-1" points="1039.09 823.57 1005.9 827.26 1027.5 809.85 1027.5 782.95 1036.46 782.95 1036.99 805.11 1039.09 823.57"/><path class="cls-73" d="m1030.14,822.51s-13.51,1.25-18.97,1.98c-10.8,1.45-17.65,7.25-17.65,7.25h18.18l18.44-5.87v4.29h8.69v-11.34l-8.69,3.69Z"/><polygon class="cls-1" points="973.68 822.44 940.48 826.13 962.08 808.72 962.08 781.82 971.04 781.82 971.57 803.97 973.68 822.44"/><path class="cls-71" d="m964.72,821.38s-13.51,1.25-18.97,1.98c-10.8,1.45-17.65,7.25-17.65,7.25h18.18l18.44-5.87v4.29h8.69v-11.34l-8.69,3.69Z"/><path class="cls-62" d="m1027.65,461.92l-16.83-51.62-24.24,11.32s-10.27,17.73-14.93,37.01c-3.65,15.09-2.04,30.51-1.58,43.17,1.05,28.84-9.94,61.19-9.94,61.19,0,0,16.62-1.03,32.07-.34,15.46.69,31.76,4.56,31.76,4.56,0,0-13.37-31.44-13.44-52.64-.06-21.21,17.12-52.64,17.12-52.64Z"/><path class="cls-61" d="m1085.86,487.38l-73.47-74.76s-7.89,7.95-6.13,22.72,21.4,26.59,21.4,26.59l30.59,35.24-15.46,14.84,9.13,20.4s26.65-21.24,32.47-26.27,1.48-18.75,1.48-18.75Z"/><path class="cls-1" d="m1000.63,382.58l-19.21-37.67-5.41,9.24s-2.28,3.28-3.1,5.99c-.63,2.06-7.8,8.48-5.36,9.24,0,0,1.43.35,1.75,2,.33,1.65-.45,4.6-.45,5.4,0,7.74,3.69,11.08,3.69,11.08,0,0,13-.7,18.27,9.5,5.27,10.2,0,21.82,0,21.82,0,0,32.01,6.03,21.24-6.33-9.31-10.69-11.42-30.26-11.42-30.26Z"/><ellipse class="cls-38" cx="995.79" cy="361.36" rx="13.29" ry="21.29" transform="translate(-61.33 429.73) rotate(-23.65)"/><polygon class="cls-1" points="1024.12 536.31 1048.77 527.38 1045.09 517.4 1021.34 526.91 1024.12 536.31"/><ellipse class="cls-1" cx="1010.77" cy="532.26" rx="16.88" ry="6.99"/><path class="cls-38" d="m989.21,341.15c-1.36.4-2.67.86-3.93,1.39,10.81,7.57,19.63,19.63,23.97,34.52.59,2.02,1.07,4.03,1.47,6.04,10.98-6.31,17.05-17.45,14.07-27.66-3.66-12.55-19.59-18.94-35.58-14.28Z"/><ellipse class="cls-85" cx="1172.95" cy="872.51" rx="118.37" ry="9.15"/><path class="cls-46" d="m1160.07,469.31s-11.47-13.88-8.12-29.83c1.77-8.41,23.79-14.63,31.32-14.63s10.94,9.75,10.94,9.75l7.98,22.49s3.9,16.74-.7,18.91c-2.72,1.28-15.96,2.34-15.96,2.34l-1.89,21.23-22.83-5.09-.74-25.17Z"/><path class="cls-51" d="m1166.18,463.6l9.61,15.86c3.16.61,6.32,1.21,9.48,1.82.09-.98.18-1.96.26-2.94l-9.22-.91-9.1-13.83h-1.04Z"/><path class="cls-39" d="m1128.71,866.53c-7.45,1.3-18.86,2.91-18.86,2.91l-.66-6.24,1.12-7.12,25.96-.68,12.84,2.02,2.93,2.36s-17.56,5.74-23.33,6.75Z"/><polygon class="cls-70" points="1218.54 852.8 1192.84 859.88 1185.65 767.97 1188.53 742.24 1176.99 660.69 1153.91 737.31 1135.15 859.88 1110.03 859.88 1116.8 777.4 1123.61 726.09 1130.83 634.63 1185.35 631.28 1216.81 628.06 1218.54 852.8"/><path class="cls-68" d="m1264.77,621.82s-16.45-69.09-19.91-73.8c-2.19-2.98-14.84-28.09-27.01-40.62l-8.08-9.16-3.6-3.42c-.21-.21-.91-.33-.91-.33l.04.31-15.06-1.04h-13.26s-24.24-.4-24.24-.4l-27.88,10.59-28.15,67.71-6.58,64.4,20.42-1.55-.54-60.63,21.95-23.75,2.6,28.91-4.91,58.6,92.33-5.75-10.38-92.71-.22,4.64,19.68,28.39,12.04,51.64,21.64-2.02Z"/><polygon class="cls-40" points="1190.84 737.86 1188.42 766.6 1193.71 857.42 1185.52 765.21 1188.2 738.14 1176.99 660.69 1180.17 650.01 1190.84 737.86"/><polygon class="cls-39" points="1242.66 872.51 1206.31 872.51 1203.56 869.22 1201.23 872.51 1194.88 872.51 1194.88 857.42 1212.95 854.3 1221.94 864.71 1242.66 870.56 1242.66 872.51"/><polygon class="cls-46" points="1116.8 653.6 1112.86 655.6 1107.55 650.06 1106.34 659.04 1113.42 673.11 1108.83 673.27 1100 663.23 1093.63 653.32 1093.32 644.62 1094.73 637.31 1105.29 635.43 1116.8 653.6"/><polygon class="cls-40" points="1130.54 638.46 1174.68 636.82 1215.94 631.89 1129.96 635.45 1130.54 638.46"/><polygon class="cls-46" points="1241.48 643.4 1245.77 644.72 1249.83 638.4 1252.88 647.03 1248.86 662.01 1253.39 661.42 1259.97 650.1 1264.17 639.31 1262.67 630.72 1259.77 623.77 1249.01 623.65 1241.48 643.4"/><path class="cls-20" d="m1197.9,425.11c-1.58-2.67-7.96-4.5-12.25-4.97,0,0-2.81-13.72-13.75-7.46-10.94,6.27-20.55,10.99-23.57,21.98-1.54,5.61-.68,23.99,2.87,36.77,3.55,12.78,26.86,8.01,30.34,4.09,1.38-1.55,2.11-6.22,2.96-11.92-1.3-1.13-2.65-2.61-3.91-4.36-3.56-4.95-2.63-7.38-.9-8.83,1.63-1.36,3.39-1.37,6.55,2.74.4-2,.86-3.98,1.4-5.87,1.07-3.73,1.2-8.49,3.53-10.58,4.96-4.45,8.52-8.56,6.73-11.58Z"/><path class="cls-59" d="m1124.87,503.94l-7.61,3.55s-20.24,41.56-23.91,63.42c-3.67,21.87-3.21,65.13-3.21,65.13l20.42-1.55s1.51-37.86,6.7-56.29c5.19-18.43,14.72-28.09,14.72-28.09l1.57,17.5c.02-1.17.04-2.35.04-3.53,0-22.67-1.76-43.54-8.72-60.15Z"/><path class="cls-15" d="m224.37,25.24v33.28h3.89V25.24c0-2.4-.87-4.34-1.95-4.34s-1.95,1.94-1.95,4.34Z"/><path class="cls-15" d="m211.85,41.65h33.28v-3.89h-33.28c-2.4,0-4.34.87-4.34,1.95s1.94,1.95,4.34,1.95Z"/><path class="cls-15" d="m195.13,58.34v18.53h2.17v-18.53c0-1.33-.49-2.42-1.08-2.42s-1.08,1.08-1.08,2.42Z"/><path class="cls-15" d="m188.15,67.48h18.53v-2.17h-18.53c-1.33,0-2.42.49-2.42,1.08s1.08,1.08,2.42,1.08Z"/><path class="cls-15" d="m37.36,645.86h-11.74v-7.03h11.74v-12.45h7.21v12.45h11.74v7.03h-11.74v12.45h-7.21v-12.45Z"/><rect class="cls-35" x="533.34" y="396.74" width="393.75" height="369.89" rx="26.76" ry="26.76"/><rect class="cls-36" x="488.6" y="396.74" width="393.75" height="369.89" rx="26.76" ry="26.76"/><path class="cls-35" d="m724.25,661.23l-23.83-89.37c12.63-6.37,21.35-19.94,21.35-35.67,0-21.83-16.81-39.52-37.54-39.52s-37.54,17.7-37.54,39.52c0,16.62,9.75,30.84,23.56,36.68l-24.05,88.36h78.05Z"/><path class="cls-17" d="m739.17,661.23l-23.83-89.37c12.63-6.37,21.35-19.94,21.35-35.67,0-21.83-16.81-39.52-37.54-39.52s-37.54,17.7-37.54,39.52c0,16.62,9.75,30.84,23.56,36.68l-24.05,88.36h78.05Z"/><path class="cls-42" d="m595.49,396.74v-96.7c0-57.56,47.09-104.65,104.65-104.65h0c57.56,0,104.65,47.09,104.65,104.65v96.7h37.78v-102.17c0-78.34-64.1-142.44-142.44-142.44h0c-78.34,0-142.44,64.1-142.44,142.44v102.17h37.78Z"/><path class="cls-55" d="m576.6,308.59c0-69.91,57.18-128.25,133.25-141.87-77.81,3.17-139.71,55.79-139.71,120.25,0,13.34,2.66,26.18,7.56,38.17-.71-5.43-1.09-10.95-1.09-16.55Z"/><path class="cls-79" d="m466.99,91.2h14.78c.93,0,1.68-.75,1.68-1.68V10.26c0-.93-.75-1.68-1.68-1.68h-14.78c-.93,0-1.68.75-1.68,1.68v79.26c0,.93.75,1.68,1.68,1.68Zm1.68-79.26h11.42v75.91h-11.42V11.94Z"/><path class="cls-77" d="m445.05,91.2h14.78c.93,0,1.68-.75,1.68-1.68V27.05c0-.93-.75-1.68-1.68-1.68h-14.78c-.93,0-1.68.75-1.68,1.68v62.47c0,.93.75,1.68,1.68,1.68Zm1.68-62.47h11.42v59.11h-11.42V28.73Z"/><path class="cls-78" d="m422.66,91.2h14.78c.93,0,1.68-.75,1.68-1.68v-42.32c0-.93-.75-1.68-1.68-1.68h-14.78c-.93,0-1.68.75-1.68,1.68v42.32c0,.93.75,1.68,1.68,1.68Zm1.68-42.32h11.42v38.96h-11.42v-38.96Z"/><path class="cls-81" d="m400.27,91.2h14.78c.93,0,1.68-.75,1.68-1.68v-28.21c0-.93-.75-1.68-1.68-1.68h-14.78c-.93,0-1.68.75-1.68,1.68v28.21c0,.93.75,1.68,1.68,1.68Zm1.68-28.21h11.42v24.85h-11.42v-24.85Z"/><path class="cls-80" d="m486.92,95.46h-91.36c-.93,0-1.68.75-1.68,1.68s.75,1.68,1.68,1.68h91.36c.93,0,1.68-.75,1.68-1.68s-.75-1.68-1.68-1.68Z"/><path class="cls-48" d="m1360.48,282.49c-.3,0-.6-.1-.85-.28l-15.89-11.92h-31.04c-6.66,0-12.08-5.42-12.08-12.08v-38.12c0-6.66,5.42-12.08,12.08-12.08h44.98c6.66,0,12.08,5.42,12.08,12.08v38.12c0,5.06-3.19,9.57-7.88,11.32v11.55c0,.53-.3,1.02-.78,1.26-.2.1-.42.15-.63.15Zm-47.78-71.67c-5.11,0-9.26,4.16-9.26,9.26v38.12c0,5.11,4.16,9.26,9.26,9.26h31.51c.31,0,.6.1.85.28l14.01,10.51v-9.75c0-.64.43-1.19,1.04-1.36,4.03-1.1,6.84-4.78,6.84-8.94v-38.12c0-5.11-4.16-9.26-9.26-9.26h-44.98Z"/><path class="cls-48" d="m1357.94,254.66h-44.86c-.78,0-1.41-.63-1.41-1.41s.63-1.41,1.41-1.41h44.86c.78,0,1.41.63,1.41,1.41s-.63,1.41-1.41,1.41Z"/><path class="cls-48" d="m1357.94,245.51h-44.86c-.78,0-1.41-.63-1.41-1.41s.63-1.41,1.41-1.41h44.86c.78,0,1.41.63,1.41,1.41s-.63,1.41-1.41,1.41Z"/><path class="cls-48" d="m1357.94,236.11h-44.86c-.78,0-1.41-.63-1.41-1.41s.63-1.41,1.41-1.41h44.86c.78,0,1.41.63,1.41,1.41s-.63,1.41-1.41,1.41Z"/><path class="cls-48" d="m1357.94,226.2h-44.86c-.78,0-1.41-.63-1.41-1.41s.63-1.41,1.41-1.41h44.86c.78,0,1.41.63,1.41,1.41s-.63,1.41-1.41,1.41Z"/><path class="cls-48" d="m51.23,370.04H0v-35.75h51.23v35.75Zm-49.31-1.92h47.39v-31.91H1.92v31.91Z"/><polygon class="cls-48" points="25.61 358.69 .32 335.96 1.6 334.53 25.61 356.11 49.63 334.53 50.91 335.96 25.61 358.69"/><rect class="cls-48" x="-2.56" y="359.47" width="24.79" height="1.92" transform="translate(-248.67 109.08) rotate(-44.24)"/><rect class="cls-48" x="40.29" y="348.12" width="1.92" height="24.84" transform="translate(-248.92 142.61) rotate(-46.56)"/><circle class="cls-58" cx="995.79" cy="204.72" r="62.82"/><polygon class="cls-15" points="968.6 239.28 1022.32 238.95 1021.88 166.28 977.68 166.54 968.21 175.87 968.6 239.28"/><polygon class="cls-12" points="969.64 239.28 1022.92 166.28 978.72 166.54 969.26 175.87 969.64 239.28"/><rect class="cls-25" x="978.39" y="184.04" width="34.26" height="3.4" transform="translate(1992.15 365.44) rotate(179.65)"/><rect class="cls-25" x="978.44" y="192.5" width="34.26" height="3.4" transform="translate(1992.3 382.38) rotate(179.65)"/><rect class="cls-25" x="978.5" y="201.77" width="34.26" height="3.4" transform="translate(1992.47 400.9) rotate(179.65)"/><rect class="cls-25" x="978.55" y="210.6" width="34.26" height="3.4" transform="translate(1992.63 418.57) rotate(179.65)"/><rect class="cls-25" x="978.61" y="219.86" width="34.26" height="3.4" transform="translate(1992.8 437.09) rotate(179.65)"/><polygon class="cls-2" points="968.21 175.69 977.73 175.63 977.68 166.54 968.21 175.69"/><path class="cls-47" d="m1035.68,189.54c1.71-1.79.96-5.27-1.67-7.78h0c-2.63-2.51-6.15-3.1-7.85-1.32l-9.63,10.07c-1.71,1.79-.96,5.27,1.67,7.78h0c2.63,2.51,6.15,3.1,7.85,1.32l9.63-10.07Z"/><polygon class="cls-3" points="1011.19 215.5 1001.66 206.39 1021.62 185.18 1031.15 194.28 1011.19 215.5"/><polygon class="cls-11" points="1011.19 215.5 1001.66 206.39 997.87 216.43 1001.33 219.74 1011.19 215.5"/><polygon class="cls-37" points="1001.33 219.74 997.87 216.43 995.7 222.17 1001.33 219.74"/><rect class="cls-14" x="1022.67" y="184.73" width="4.39" height="13.18" transform="translate(178.45 800.04) rotate(-46.3)"/><path class="cls-16" d="m1034.26,181.93c-.07-.07-.14-.14-.21-.21-2.63-2.51-6.15-3.1-7.85-1.32l-5.48,5.73-2.09,2.19h0s-2.06,2.16-2.06,2.16c-.14.14-.25.3-.36.47l-14.51,15.42-3.8,10.04-1.82,4.81,38.17-39.27Z"/><circle class="cls-50" cx="420.46" cy="248.36" r="65.82"/><path class="cls-89" d="m444.86,223.22l-30.7,10.46,1.39,26.43-7.21,14.26,38.04,33.31c20.95-7.07,36.53-28.87,38.98-51.56l-40.49-32.91Z"/><circle class="cls-4" cx="419.73" cy="248.08" r="39.32"/><circle class="cls-32" cx="419.73" cy="248.08" r="29.92"/><circle class="cls-15" cx="419.73" cy="248.08" r="19.36"/><circle class="cls-32" cx="419.73" cy="248.08" r="7.39"/><rect class="cls-41" x="419.73" y="246.49" width="52.56" height="3.17"/><polygon class="cls-41" points="476.36 255.37 470.22 248.08 476.36 240.78 478.79 242.82 474.36 248.08 478.79 253.33 476.36 255.37"/><polygon class="cls-41" points="468.21 255.37 462.07 248.08 468.21 240.78 470.63 242.82 466.21 248.08 470.63 253.33 468.21 255.37"/><circle class="cls-9" cx="713.16" cy="41.92" r="41.92"/><path class="cls-88" d="m728.68,25.49l-19.55,6.66.89,16.83,1.34,14.11,18.29,16.19c13.34-4.5,23.26-18.39,24.82-32.84l-25.79-20.96Z"/><polygon class="cls-15" points="695.07 66.69 731.52 66.47 731.22 17.15 701.23 17.33 694.81 23.66 695.07 66.69"/><rect class="cls-26" x="699.78" y="35.05" width="26.04" height="1.19" transform="translate(1425.81 66.97) rotate(179.65)"/><rect class="cls-26" x="699.8" y="38.01" width="26.04" height="1.19" transform="translate(1425.86 72.89) rotate(179.65)"/><rect class="cls-26" x="699.82" y="41.24" width="26.04" height="1.19" transform="translate(1425.92 79.37) rotate(179.65)"/><rect class="cls-26" x="699.88" y="50.94" width="11.45" height="1.19" transform="translate(1411.51 98.8) rotate(179.65)"/><rect class="cls-26" x="714.48" y="50.85" width="11.45" height="6.87" transform="translate(1440.73 104.22) rotate(179.65)"/><rect class="cls-26" x="699.9" y="53.78" width="11.45" height="1.19" transform="translate(1411.56 104.48) rotate(179.65)"/><rect class="cls-26" x="699.92" y="56.63" width="11.45" height="1.19" transform="translate(1411.62 110.17) rotate(179.65)"/><rect class="cls-26" x="699.93" y="59.29" width="26.04" height="1.19" transform="translate(1426.25 115.46) rotate(179.65)"/><rect class="cls-26" x="699.84" y="44.33" width="26.04" height="1.19" transform="translate(1425.98 85.54) rotate(179.65)"/><rect class="cls-26" x="699.86" y="47.57" width="26.04" height="1.19" transform="translate(1426.04 92.01) rotate(179.65)"/><rect class="cls-26" x="705.43" y="26.76" width="20.17" height="3.61" transform="translate(1431.19 52.81) rotate(179.65)"/><polygon class="cls-33" points="694.8 23.54 701.26 23.5 701.23 17.33 694.8 23.54"/></g></svg>