<?xml version="1.0" encoding="UTF-8"?><svg id="Layer_2" xmlns="http://www.w3.org/2000/svg" viewBox="0 0 3.58 3.12"><defs><style>.cls-1{fill:#0168a1;stroke-width:0px;}</style></defs><g id="social_media"><path class="cls-1" d="M1.45,1.23h.02v-.36c0-.17-.07-.31-.18-.42h0c-.11-.11-.25-.18-.42-.18s-.31.07-.42.18H.45c-.11.11-.18.26-.18.42v.5c0,.08-.06.14-.14.14s-.14-.06-.14-.14v-.5c0-.24.1-.46.26-.62h0c.16-.16.38-.26.62-.26s.45.1.61.25h0c.16.16.26.38.26.62v.36h1.5c.09,0,.18.04.24.1.06.06.1.14.1.24v1.22c0,.09-.04.18-.1.24h-.01c-.06.06-.14.1-.23.1h-1.8c-.09,0-.18-.04-.24-.1-.06-.06-.1-.14-.1-.24v-1.22c0-.09.04-.18.1-.24h0c.06-.06.14-.1.24-.1h0ZM2.34,2.22h0s.08-.02.11-.05c.03-.03.05-.07.05-.12s-.02-.09-.05-.12c-.03-.03-.07-.05-.12-.05s-.09.02-.12.05c-.03.03-.05.07-.05.12s.02.09.05.12c.03.03.07.05.11.05h0ZM2.43,2.38v.17s-.04.08-.08.08-.08-.04-.08-.08v-.17c-.06-.01-.11-.04-.15-.09-.06-.06-.1-.14-.1-.24s.04-.17.1-.23c.06-.06.14-.1.23-.1s.17.04.23.1c.06.06.1.14.1.23s-.04.18-.1.24c-.04.04-.09.07-.15.09h0ZM3.25,1.51h-1.8s-.03,0-.04.02h0s-.02.02-.02.04v1.22s0,.03.02.04c.01.01.02.02.04.02h1.8s.03,0,.04-.01h0s.02-.03.02-.04v-1.22s0-.03-.02-.04c-.01-.01-.02-.02-.04-.02h0ZM3.47,3.03c-.05.04-.13.04-.18,0h.18Z"/></g></svg>