<?xml version="1.0" encoding="UTF-8"?><svg id="Layer_2" xmlns="http://www.w3.org/2000/svg" viewBox="0 0 3.58 3.58"><defs><style>.cls-1{fill:#0168a1;stroke-width:0px;}</style></defs><g id="NEWS"><path class="cls-1" d="M1.79,0c.49,0,.94.2,1.27.52h0c.32.32.52.77.52,1.27s-.2.94-.52,1.27h0c-.32.33-.77.52-1.26.52s-.94-.2-1.27-.52h0c-.32-.32-.52-.77-.52-1.27S.2.85.52.52h0c.32-.33.77-.52,1.26-.52h0ZM1.55.3s-.01.06-.02.09c-.03.18-.07.38-.17.48-.04.04-.27.21-.27.25,0,.01.05.01.25.01h0c.1,0,.23.03.34.09.08.04.15.11.2.18.05.08.08.17.05.27h0c-.02.06-.05.13-.11.19-.2.22-.19.25-.18.36,0,.05.01.11.01.19,0,.05,0,.09,0,.14,0,.11,0,.19,0,.26h0c-.05.4-.4.12-.52-.02-.13-.15-.26-.34-.3-.43-.01-.03-.06-.05-.12-.08-.13-.06-.28-.14-.29-.37,0-.15.02-.26.05-.34.01-.04.05-.05.03-.05-.03,0-.08,0-.13.01-.03,0-.06.01-.09.02-.01.08-.02.15-.02.23,0,.42.17.8.44,1.07h0c.16.16.36.29.58.36.13-.02.26-.08.38-.11.28-.05.55-.1.85,0,.12-.07.23-.15.33-.25h0c.08-.08.14-.16.2-.25-.06.05-.12.09-.17.11-.07.03-.14.04-.19.01h0s-.02-.01-.03-.03h0c-.12-.15-.06-.34,0-.54.07-.21.14-.42-.12-.5-.04-.01-.09-.03-.12-.05-.1-.06-.19-.14-.24-.22-.13-.21-.04-.33.1-.48.02-.03.04-.05.06-.07-.11,0-.25.01-.32-.17h0s-.02-.05-.02-.08h0c-.02-.15-.1-.22-.2-.33h-.01c-.08,0-.16,0-.24.02h0ZM.33,1.38h.01c.07-.02.15-.03.22-.01.13.04.11.12.08.25-.02.07-.04.16-.04.29,0,.13.1.18.19.22.08.04.16.08.2.17.03.08.15.25.27.38.03.04.22.26.23.11,0-.08,0-.16,0-.24,0-.04,0-.09,0-.14,0-.07,0-.13-.01-.18-.02-.17-.03-.21.22-.49.04-.04.06-.08.07-.12h0s0-.1-.03-.14c-.03-.05-.09-.09-.14-.12-.08-.05-.18-.07-.26-.07h0c-.32,0-.41,0-.41-.17,0-.16.22-.27.32-.37.06-.06.1-.24.12-.39v-.02c-.24.07-.46.2-.64.38h0c-.18.19-.32.41-.39.67H.33ZM2.27,3.23c-.19-.02-.38.02-.56.05-.03,0-.06.01-.08.02.05,0,.11,0,.16,0,.17,0,.33-.03.48-.08h0ZM3.25,2.11s.01-.02.02-.03c.02-.09.03-.19.03-.29,0-.42-.17-.8-.44-1.07h0c-.22-.22-.51-.37-.83-.42.07.08.12.17.13.29h0s0,.04.01.05h0c.03.07.1.06.15.06.09,0,.16,0,.19.09.03.09-.04.17-.12.25-.09.1-.16.15-.08.28.04.06.1.12.17.16.03.02.06.03.09.04.42.13.33.43.23.71-.05.15-.1.29-.04.37l.04-.02s.1-.06.15-.11c.09-.08.19-.2.27-.36h0ZM2.35.84s.01-.02.01-.02c0-.02,0,0-.01.02h0Z"/></g></svg>